SplineFontDB: 3.0
FontName: Dhyana-Bold
FullName: Dhyana Bold
FamilyName: Dhyana
Weight: Bold
Copyright: Copyright (c) 2010 vernon adams (www.newtypography.co.uk), with Reserved Font Names "Dhyana"
Version: 1.01
ItalicAngle: 0
UnderlinePosition: -188
UnderlineWidth: 48
Ascent: 1638
Descent: 410
sfntRevision: 0x00010000
LayerCount: 2
Layer: 0 1 "Back"  1
Layer: 1 1 "Fore"  0
NeedsXUIDChange: 1
XUID: [1021 332 469972825 9070266]
FSType: 0
OS2Version: 2
OS2_WeightWidthSlopeOnly: 0
OS2_UseTypoMetrics: 1
CreationTime: 1283209859
ModificationTime: 1323716314
PfmFamily: 17
TTFWeight: 700
TTFWidth: 5
LineGap: 0
VLineGap: 0
Panose: 2 0 8 3 5 0 0 2 0 4
OS2TypoAscent: 3022
OS2TypoAOffset: 0
OS2TypoDescent: -670
OS2TypoDOffset: 0
OS2TypoLinegap: 0
OS2WinAscent: 3022
OS2WinAOffset: 0
OS2WinDescent: 670
OS2WinDOffset: 0
HheadAscent: 3022
HheadAOffset: 0
HheadDescent: -670
HheadDOffset: 0
OS2SubXSize: 1331
OS2SubYSize: 1433
OS2SubXOff: 0
OS2SubYOff: 286
OS2SupXSize: 1331
OS2SupYSize: 1433
OS2SupXOff: 0
OS2SupYOff: 983
OS2StrikeYSize: 102
OS2StrikeYPos: 512
OS2Vendor: 'PfEd'
OS2CodePages: 00000001.00000000
OS2UnicodeRanges: 8200006f.1000200a.00000000.00000000
Lookup: 1 0 0 "'liga' Standard Ligatures lookup 0"  {"'liga' Standard Ligatures lookup 0 subtable"  } ['liga' ('lao ' <'dflt' > 'latn' <'dflt' > ) ]
Lookup: 4 0 1 "'liga' Standard Ligatures lookup 1"  {"'liga' Standard Ligatures lookup 1 subtable"  } ['liga' ('lao ' <'dflt' > 'latn' <'dflt' > ) ]
Lookup: 258 0 0 "'kern' Horizontal Kerning in Latin lookup 0"  {"'kern' Horizontal Kerning in Latin lookup 0 subtable"  } ['kern' ('latn' <'dflt' > ) ]
MarkAttachClasses: 1
DEI: 91125
TtTable: prep
PUSHW_1
 511
SCANCTRL
PUSHB_1
 4
SCANTYPE
EndTTInstrs

StartChar: .notdef
Encoding: 65536 -1 0
Width: 761
Flags: HW
HStem: 0 69<138 554> 1320 70<138 554>
VStem: 69 69<69 1320> 554 69<69 1320>
LayerCount: 2
Fore
SplineSet
554 69 m 1,0,-1
 554 1320 l 1,1,-1
 138 1320 l 1,2,-1
 138 69 l 1,3,-1
 554 69 l 1,0,-1
69 1390 m 1,4,-1
 623 1390 l 1,5,-1
 623 0 l 1,6,-1
 69 0 l 1,7,-1
 69 1390 l 1,4,-1
EndSplineSet
EndChar

StartChar: exclam
Encoding: 33 33 6
Width: 768
GlyphClass: 2
Flags: HW
HStem: -7 320<277.786 520.803> 1587 20G<228 557>
VStem: 243 317<27.8171 262.468> 297 194<464 701.479>
LayerCount: 2
Fore
SplineSet
409 313 m 0,0,1
 560 313 560 313 560 153 c 128,-1,2
 560 -7 560 -7 409 -7 c 0,3,4
 333 -7 333 -7 276 26 c 1,5,6
 243 84 243 84 243 149.5 c 128,-1,7
 243 215 243 215 265 264 c 1,8,9
 324.652173913 313 324.652173913 313 409 313 c 0,0,1
491 464 m 1,10,-1
 297 464 l 1,11,-1
 228 1607 l 1,12,-1
 557 1607 l 1,13,-1
 491 464 l 1,10,-1
EndSplineSet
EndChar

StartChar: quotedbl
Encoding: 34 34 7
Width: 897
GlyphClass: 2
Flags: HW
HStem: 1587 20G<62 416 520 874>
VStem: 139 178<920 1016.35> 597 178<920 1016.09>
LayerCount: 2
Fore
SplineSet
874 1607 m 1,0,-1
 859 1483 l 1,1,-1
 775 920 l 1,2,-1
 597 920 l 1,3,-1
 531 1483 l 1,4,-1
 520 1607 l 1,5,-1
 874 1607 l 1,0,-1
416 1607 m 1,6,-1
 403 1498 l 1,7,-1
 317 920 l 1,8,-1
 139 920 l 1,9,-1
 71 1498 l 1,10,-1
 62 1607 l 1,11,-1
 416 1607 l 1,6,-1
EndSplineSet
EndChar

StartChar: numbersign
Encoding: 35 35 8
Width: 1278
GlyphClass: 2
Flags: HW
HStem: 490 143<174 340 553 736 948 1146> 874 145<185 384 599 778 996 1155>
VStem: 287 197<118 315> 452 194<1201 1395> 684 197<118 315> 845 198<1197 1395>
DStem2: 287 118 484 118 0.128144 0.991756<25.2443 375.725 544.84 762.197 933.553 1287.62> 684 118 881 118 0.125851 0.992049<24.7927 375.587 544.13 761.819 933.102 1287.11>
LayerCount: 2
Fore
SplineSet
749 633 m 1,0,-1
 778 874 l 1,1,-1
 584 874 l 1,2,-1
 553 633 l 1,3,-1
 749 633 l 1,0,-1
537 490 m 1,4,-1
 484 118 l 1,5,-1
 287 118 l 1,6,-1
 340 490 l 1,7,-1
 174 490 l 1,8,-1
 174 633 l 1,9,-1
 354 633 l 1,10,-1
 384 874 l 1,11,-1
 185 874 l 1,12,-1
 185 1019 l 1,13,-1
 403 1019 l 1,14,-1
 452 1395 l 1,15,-1
 646 1395 l 1,16,-1
 599 1019 l 1,17,-1
 801 1019 l 1,18,-1
 845 1395 l 1,19,-1
 1043 1395 l 1,20,-1
 996 1019 l 1,21,-1
 1155 1019 l 1,22,-1
 1155 874 l 1,23,-1
 979 874 l 1,24,-1
 948 633 l 1,25,-1
 1146 633 l 1,26,-1
 1146 490 l 1,27,-1
 931 490 l 1,28,-1
 881 118 l 1,29,-1
 684 118 l 1,30,-1
 736 490 l 1,31,-1
 537 490 l 1,4,-1
EndSplineSet
EndChar

StartChar: dollar
Encoding: 36 36 9
Width: 1306
GlyphClass: 2
Flags: HW
HStem: -30 230<369.746 604 713 819.694> 1256 228<422.098 604 713 941.219> 1594 20G<604 713>
VStem: 100 272<1008.07 1206.07> 604 109<-162 -30 209 609 921 1253 1484 1614> 908 275<280.721 523.904>
DStem2: 345 253 304 28 0.954248 -0.299017<-136.38 261.176> 604 921 342 751 0.936431 -0.350853<-254.622 0 211.537 408.055> 843.5 1464 822.5 1240.5 0.967856 -0.251505<-71.6927 270.598>
LayerCount: 2
Fore
SplineSet
713 209 m 1,0,1
 801 220 801 220 854.5 270.5 c 128,-1,2
 908 321 908 321 908 402 c 0,3,4
 908 466.545454545 908 466.545454545 884 499.272727273 c 0,5,6
 845.990049751 551.104477612 845.990049751 551.104477612 764 588 c 0,7,8
 740 598 740 598 713 609 c 1,9,-1
 713 209 l 1,0,1
604 1256 m 1,10,11
 486 1254 486 1254 429 1216.5 c 128,-1,12
 372 1179 372 1179 372 1096 c 0,13,14
 372 1020.41176471 372 1020.41176471 477 971 c 0,15,16
 526 948 526 948 604 921 c 1,17,-1
 604 1256 l 1,10,11
604 1614 m 1,18,-1
 713 1614 l 1,19,-1
 713 1479 l 1,20,21
 891.431578947 1468.34736842 891.431578947 1468.34736842 1055 1410.5 c 0,22,23
 1096 1396 1096 1396 1118 1384 c 1,24,-1
 1050 1175 l 1,25,26
 991 1196 991 1196 936 1212 c 0,27,28
 795.0625 1253 795.0625 1253 713 1253 c 1,29,-1
 713 884 l 1,30,31
 782.666666667 858.333333333 782.666666667 858.333333333 856 829 c 0,32,33
 1183 698.2 1183 698.2 1183 436 c 0,34,35
 1183 111.793103448 1183 111.793103448 906 11.5 c 0,36,37
 819 -20 819 -20 713 -28 c 1,38,-1
 713 -162 l 1,39,-1
 604 -162 l 1,40,-1
 604 -30 l 1,41,42
 429.75 -30 429.75 -30 147 86 c 1,43,-1
 207 307 l 1,44,45
 449.533333333 200 449.533333333 200 604 200 c 1,46,-1
 604 648 l 1,47,48
 459.542307692 700.9 459.542307692 700.9 338.271153846 753.95 c 0,49,50
 100 858.181586083 100 858.181586083 100 1093 c 0,51,52
 100 1398.59782609 100 1398.59782609 407 1462 c 0,53,54
 499 1481 499 1481 604 1484 c 1,55,-1
 604 1614 l 1,18,-1
EndSplineSet
EndChar

StartChar: percent
Encoding: 37 37 10
Width: 1724
GlyphClass: 2
Flags: HW
HStem: -33 21G<566.805 618.51> 12 162<1272.96 1506.84> 625 163<270.583 503.468> 749 167<1277.8 1501.47> 1362 168<275.586 498.471>
VStem: 29 184<849.424 1294.47> 562 190<849.778 1294.47> 1032 184<235.471 680.647> 1565 189<236.778 681.899>
DStem2: 436 49 609 -33 0.428034 0.903763<0 1627.67>
LayerCount: 2
Fore
SplineSet
1390 174 m 256,0,1
 1481.02941176 174 1481.02941176 174 1521.5 238 c 0,2,3
 1565 306.790697674 1565 306.790697674 1565 456.395348837 c 128,-1,4
 1565 606 1565 606 1523.5 677.5 c 128,-1,5
 1482 749 1482 749 1389.5 749 c 128,-1,6
 1297 749 1297 749 1256.5 677.5 c 128,-1,7
 1216 606 1216 606 1216 492.5 c 128,-1,8
 1216 379 1216 379 1226.5 325.5 c 128,-1,9
 1237 272 1237 272 1258.5 238 c 0,10,11
 1298.97058824 174 1298.97058824 174 1390 174 c 256,0,1
1393 916 m 0,12,13
 1754 916 1754 916 1754 451 c 0,14,15
 1754 288.111111111 1754 288.111111111 1679 164.5 c 0,16,17
 1586.47191011 12 1586.47191011 12 1393 12 c 256,18,19
 1145.65979381 12 1145.65979381 12 1063.5 253.5 c 0,20,21
 1032 346.090909091 1032 346.090909091 1032 451 c 0,22,23
 1032 683 1032 683 1126 799.5 c 128,-1,24
 1220 916 1220 916 1393 916 c 0,12,13
387 788 m 256,25,26
 477.746268657 788 477.746268657 788 518.5 851.5 c 0,27,28
 562 919.279069767 562 919.279069767 562 1069.13953488 c 128,-1,29
 562 1219 562 1219 520.5 1290.5 c 128,-1,30
 479 1362 479 1362 387 1362 c 256,31,32
 295 1362 295 1362 254 1290.5 c 128,-1,33
 213 1219 213 1219 213 1106 c 128,-1,34
 213 993 213 993 223.5 939 c 128,-1,35
 234 885 234 885 256 851.5 c 0,36,37
 297.701492537 788 297.701492537 788 387 788 c 256,25,26
391 625 m 256,38,39
 145.649484536 625 145.649484536 625 61 866.5 c 0,40,41
 29 957.794117647 29 957.794117647 29 1064 c 0,42,43
 29 1297 29 1297 123.5 1413.5 c 128,-1,44
 218 1530 218 1530 392 1530 c 128,-1,45
 566 1530 566 1530 659 1413.5 c 128,-1,46
 752 1297 752 1297 752 1064 c 0,47,48
 752 901.111111111 752 901.111111111 677 777.5 c 0,49,50
 584.471910112 625 584.471910112 625 391 625 c 256,38,39
1136 1527 m 1,51,-1
 1308 1437 l 1,52,-1
 609 -33 l 1,53,-1
 436 49 l 1,54,-1
 1136 1527 l 1,51,-1
EndSplineSet
EndChar

StartChar: ampersand
Encoding: 38 38 11
Width: 1740
GlyphClass: 2
Flags: HW
HStem: -40 220<543.576 1069.82> -36 21G<1572.21 1612.23> 1381 193<595.348 910.214>
VStem: 150 266<296.082 603.573> 295 251<1091.4 1331.25> 966 226<1095.84 1328.42> 1275.5 241<496.877 875>
DStem2: 873 823 675 728 0.765036 -0.643988<-447.402 -318.938 0 514.947 803.24 1102.76>
LayerCount: 2
Fore
SplineSet
675 728 m 1,0,1
 416 665.482758621 416 665.482758621 416 451 c 0,2,3
 416 180 416 180 780 180 c 0,4,5
 953.135135135 180 953.135135135 180 1071 224.5 c 0,6,7
 1160.22839506 258.188271605 1160.22839506 258.188271605 1186 302 c 1,8,-1
 675 728 l 1,0,1
1364 159 m 1,9,10
 1222.44329897 -40 1222.44329897 -40 780 -40 c 0,11,12
 328.380681818 -40 328.380681818 -40 195.5 217 c 0,13,14
 150 305 150 305 150 414.5 c 128,-1,15
 150 524 150 524 177 596.5 c 128,-1,16
 204 669 204 669 252 723 c 0,17,18
 336.336283186 817.878318584 336.336283186 817.878318584 507 883 c 1,19,20
 454.784232365 915.634854772 454.784232365 915.634854772 409.392116183 970.817427386 c 128,-1,21
 364 1026 364 1026 343 1063 c 0,22,23
 295 1147.57142857 295 1147.57142857 295 1228.28571429 c 128,-1,24
 295 1309 295 1309 329 1373 c 128,-1,25
 363 1437 363 1437 423 1481.5 c 0,26,27
 547.719101124 1574 547.719101124 1574 749 1574 c 0,28,29
 951.813186813 1574 951.813186813 1574 1072.5 1478.5 c 0,30,31
 1192 1383.93913043 1192 1383.93913043 1192 1233 c 0,32,33
 1192 932.65625 1192 932.65625 873 823 c 1,34,-1
 1270 495 l 1,35,36
 1276 585 1276 585 1276 753 c 1,37,-1
 1275 875 l 1,38,-1
 1518 875 l 1,39,40
 1518 628 1518 628 1480 400 c 1,41,-1
 1467 332 l 1,42,-1
 1721 118 l 1,43,-1
 1596 -36 l 1,44,-1
 1364 159 l 1,9,10
710 982 m 1,45,46
 966 1053.11111111 966 1053.11111111 966 1211 c 0,47,48
 966 1296 966 1296 910 1338.5 c 128,-1,49
 854 1381 854 1381 755 1381 c 0,50,51
 546 1381 546 1381 546 1214 c 0,52,53
 546 1142.48148148 546 1142.48148148 608 1069 c 1,54,55
 664.315789474 1007.05263158 664.315789474 1007.05263158 710 982 c 1,45,46
EndSplineSet
EndChar

StartChar: quotesingle
Encoding: 39 39 12
Width: 625
GlyphClass: 2
Flags: HW
HStem: 1587 20G<136 489>
VStem: 212 179<920 1016.35>
LayerCount: 2
Fore
SplineSet
489 1607 m 1,0,-1
 477 1498 l 1,1,-1
 391 920 l 1,2,-1
 212 920 l 1,3,-1
 144 1498 l 1,4,-1
 136 1607 l 1,5,-1
 489 1607 l 1,0,-1
EndSplineSet
EndChar

StartChar: parenleft
Encoding: 40 40 13
Width: 859
GlyphClass: 2
Flags: HW
HStem: 1655 20G<594 650.725>
VStem: 203 271<353.009 1041.32>
LayerCount: 2
Fore
SplineSet
243 358 m 0,0,1
 203 512 203 512 203 695 c 128,-1,2
 203 878 203 878 240.5 1031 c 128,-1,3
 278 1184 278 1184 338.5 1307.5 c 0,4,5
 453.215593059 1541.67149988 453.215593059 1541.67149988 634 1675 c 1,6,-1
 777 1504 l 1,7,8
 573.823550088 1315.08154657 573.823550088 1315.08154657 500 963 c 0,9,10
 474 839 474 839 474 698 c 256,11,12
 474 433.686746988 474 433.686746988 565.5 211 c 0,13,14
 644.843513514 17.8989189189 644.843513514 17.8989189189 773 -97 c 1,15,-1
 641 -270 l 1,16,17
 351.745791246 -60.6712962963 351.745791246 -60.6712962963 243 358 c 0,0,1
EndSplineSet
EndChar

StartChar: parenright
Encoding: 41 41 14
Width: 857
GlyphClass: 2
Flags: HW
HStem: 1657 20G<215.74 254>
VStem: 398 272<367.17 1051.11>
LayerCount: 2
Fore
SplineSet
670 684 m 0,0,1
 670 528 670 528 632 373.5 c 128,-1,2
 594 219 594 219 532 96 c 0,3,4
 415.746275829 -134.632388275 415.746275829 -134.632388275 233 -270 c 1,5,-1
 95 -98 l 1,6,7
 220.264545206 16.2764272057 220.264545206 16.2764272057 303.5 218 c 0,8,9
 398 447.023529412 398 447.023529412 398 707 c 0,10,11
 398 970.166666667 398 970.166666667 306 1192.5 c 0,12,13
 225.946902655 1385.96165192 225.946902655 1385.96165192 99 1504 c 1,14,-1
 231 1677 l 1,15,16
 400.087912088 1552.02197802 400.087912088 1552.02197802 520 1334 c 0,17,18
 670 1061.27272727 670 1061.27272727 670 684 c 0,0,1
EndSplineSet
EndChar

StartChar: asterisk
Encoding: 42 42 15
Width: 998
GlyphClass: 2
Flags: HW
HStem: 1134 157<44 333 634 911>
DStem2: 333 1134 483 1033 0.496879 0.86782<-292.852 -13.1181 297.436 578.653> 481 1392 336 1291 0.495401 -0.868664<-279.953 0 312.841 592.752>
LayerCount: 2
Fore
SplineSet
617 1640 m 1,0,-1
 778 1546 l 1,1,-1
 631 1291 l 1,2,-1
 911 1291 l 1,3,-1
 911 1134 l 1,4,-1
 634 1134 l 1,5,-1
 785 883 l 1,6,-1
 622 787 l 1,7,-1
 483 1033 l 1,8,-1
 344 788 l 1,9,-1
 182 883 l 1,10,-1
 333 1134 l 1,11,-1
 44 1134 l 1,12,-1
 44 1291 l 1,13,-1
 336 1291 l 1,14,-1
 188 1548 l 1,15,-1
 349 1639 l 1,16,-1
 481 1392 l 1,17,-1
 617 1640 l 1,0,-1
EndSplineSet
EndChar

StartChar: plus
Encoding: 43 43 16
Width: 1074
GlyphClass: 2
Flags: HW
HStem: 485 220<137 434 668 966>
VStem: 434 234<130 485 705 1059>
LayerCount: 2
Fore
SplineSet
668 485 m 1,0,-1
 668 130 l 1,1,-1
 434 130 l 1,2,-1
 434 485 l 1,3,-1
 137 485 l 1,4,-1
 137 705 l 1,5,-1
 434 705 l 1,6,-1
 434 1059 l 1,7,-1
 668 1059 l 1,8,-1
 668 705 l 1,9,-1
 966 705 l 1,10,-1
 966 485 l 1,11,-1
 668 485 l 1,0,-1
EndSplineSet
EndChar

StartChar: comma
Encoding: 44 44 17
Width: 661
GlyphClass: 2
Flags: HW
HStem: -291 664
VStem: 154 362<1.57874 373> 316 200<-119.748 0>
LayerCount: 2
Fore
SplineSet
154 373 m 1,0,-1
 516 373 l 1,1,-1
 516 51 l 2,2,3
 516 -155.169642857 516 -155.169642857 323 -246.5 c 0,4,5
 267 -273 267 -273 206 -291 c 1,6,-1
 155 -183 l 1,7,8
 245.13564431 -150.951770912 245.13564431 -150.951770912 272.067822155 -120.475885456 c 0,9,10
 316 -70.7631578947 316 -70.7631578947 316 0 c 1,11,-1
 154 0 l 1,12,-1
 154 373 l 1,0,-1
EndSplineSet
EndChar

StartChar: hyphen
Encoding: 45 45 18
Width: 1078
GlyphClass: 2
Flags: HW
HStem: 558 225<159 920>
LayerCount: 2
Fore
SplineSet
159 558 m 1,0,-1
 159 783 l 1,1,-1
 920 783 l 1,2,-1
 920 558 l 1,3,-1
 159 558 l 1,0,-1
EndSplineSet
EndChar

StartChar: period
Encoding: 46 46 19
Width: 714
GlyphClass: 2
Flags: HW
HStem: 0 373<176 539>
VStem: 176 363<0 373>
LayerCount: 2
Fore
SplineSet
176 373 m 1,0,-1
 539 373 l 1,1,-1
 539 0 l 1,2,-1
 176 0 l 1,3,-1
 176 373 l 1,0,-1
EndSplineSet
EndChar

StartChar: slash
Encoding: 47 47 20
Width: 982
GlyphClass: 2
Flags: HW
DStem2: 130 -84 368 -162 0.316543 0.948578<1.34806 1904.96>
LayerCount: 2
Fore
SplineSet
733 1723 m 1,0,-1
 974 1643 l 1,1,-1
 368 -162 l 1,2,-1
 130 -84 l 1,3,-1
 733 1723 l 1,0,-1
EndSplineSet
EndChar

StartChar: zero
Encoding: 48 48 21
Width: 1443
GlyphClass: 2
Flags: HW
HStem: -29 218<551.405 887.339> 1012 217<554.009 886.782>
VStem: 131 278<351.214 848.413> 1035 275<357.421 846.338>
LayerCount: 2
Fore
SplineSet
409 603 m 256,0,1
 409 189 409 189 719 189 c 0,2,3
 881.54954955 189 881.54954955 189 962 306.5 c 0,4,5
 1035 413.118421053 1035 413.118421053 1035 609 c 0,6,7
 1035 884.745901639 1035 884.745901639 871 977.5 c 0,8,9
 810 1012 810 1012 721 1012 c 128,-1,10
 632 1012 632 1012 573 979.5 c 128,-1,11
 514 947 514 947 477.5 891 c 0,12,13
 409 785.904109589 409 785.904109589 409 603 c 256,0,1
720.5 1229 m 0,14,15
 872 1229 872 1229 983.5 1179.5 c 128,-1,16
 1095 1130 1095 1130 1167.5 1044.5 c 0,17,18
 1310 876.448275862 1310 876.448275862 1310 602 c 0,19,20
 1310 321.108843537 1310 321.108843537 1165.5 154 c 0,21,22
 1007.25882353 -29 1007.25882353 -29 717 -29 c 0,23,24
 438.680722892 -29 438.680722892 -29 282.5 145 c 0,25,26
 131 313.785234899 131 313.785234899 131 602 c 0,27,28
 131 885.787671233 131 885.787671233 275 1050.5 c 0,29,30
 431.053892216 1229 431.053892216 1229 720.5 1229 c 0,14,15
EndSplineSet
EndChar

StartChar: one
Encoding: 49 49 22
Width: 861
GlyphClass: 2
Flags: HW
HStem: 0 21G<346 636> 1184 20G<321 636>
VStem: 346 290<0 974>
LayerCount: 2
Fore
SplineSet
346 974 m 1,0,-1
 167 893 l 1,1,-1
 87 1090 l 1,2,3
 253 1160.33898305 253 1160.33898305 321 1188 c 1,4,-1
 424 1204 l 1,5,-1
 636 1204 l 1,6,-1
 636 0 l 1,7,-1
 346 0 l 1,8,-1
 346 974 l 1,0,-1
EndSplineSet
EndChar

StartChar: two
Encoding: 50 50 23
Width: 1167
GlyphClass: 2
Flags: HW
HStem: 0 226<541 1009> 998 217<343.673 705.604>
VStem: 758 271<687.306 946.519>
DStem2: 220 1131.5 310 940.5 0.93271 0.360627<-63.9498 260.465> 578 548 541 226 0.767481 0.641072<-234.822 252.591>
LayerCount: 2
Fore
SplineSet
758 824 m 0,0,1
 758 998 758 998 552 998 c 0,2,3
 413.647058824 998 413.647058824 998 237 907 c 1,4,-1
 159 1101 l 1,5,6
 273.364217252 1167.21086262 273.364217252 1167.21086262 441 1201.5 c 0,7,8
 507 1215 507 1215 591.5 1215 c 128,-1,9
 676 1215 676 1215 759.5 1191 c 128,-1,10
 843 1167 843 1167 903 1121 c 0,11,12
 1029 1024.4 1029 1024.4 1029 853 c 0,13,14
 1029 733.71641791 1029 733.71641791 967.5 635.5 c 0,15,16
 902.928011753 532.377571009 902.928011753 532.377571009 742 395 c 1,17,-1
 541 226 l 1,18,-1
 1009 226 l 1,19,-1
 1009 0 l 1,20,-1
 153 0 l 1,21,-1
 153 193 l 1,22,-1
 578 548 l 1,23,24
 667 621 667 621 712.5 685.5 c 128,-1,25
 758 750 758 750 758 824 c 0,0,1
EndSplineSet
EndChar

StartChar: three
Encoding: 51 51 24
Width: 1183
GlyphClass: 2
Flags: HW
HStem: -188 215<276.309 691.844> 451 209<438 630.555> 1006 219<295.39 675.238>
VStem: 733 257<736.616 959.567> 756 272<88.1663 345.893>
DStem2: 233 87.5 166.5 -123 0.940036 -0.341075<-32.1495 284.961>
LayerCount: 2
Fore
SplineSet
132 1130 m 1,0,1
 322 1225 322 1225 502 1225 c 0,2,3
 839.097222222 1225 839.097222222 1225 949 1032 c 0,4,5
 990 960 990 960 990 873.5 c 128,-1,6
 990 787 990 787 968.5 735.5 c 128,-1,7
 947 684 947 684 912.5 646.5 c 0,8,9
 843.409448819 571.401574803 843.409448819 571.401574803 751 556 c 1,10,11
 931.985507246 510.753623188 931.985507246 510.753623188 1003 346 c 0,12,13
 1028 288 1028 288 1028 198.5 c 128,-1,14
 1028 109 1028 109 987 33 c 128,-1,15
 946 -43 946 -43 876.5 -92 c 0,16,17
 740.336734694 -188 740.336734694 -188 521 -188 c 0,18,19
 329 -188 329 -188 166.5 -123 c 0,20,21
 134 -110 134 -110 128 -107 c 1,22,-1
 201 101 l 1,23,24
 276.333333333 63.3333333333 276.333333333 63.3333333333 367.166666667 45.1666666667 c 128,-1,25
 458 27 458 27 516 27 c 0,26,27
 637 27 637 27 696.5 73.5 c 128,-1,28
 756 120 756 120 756 221 c 0,29,30
 756 326.186046512 756 326.186046512 665 386.5 c 0,31,32
 580.314835787 442.628539071 580.314835787 442.628539071 438 451 c 1,33,-1
 438 660 l 1,34,35
 637.98630137 660 637.98630137 660 707.5 759.5 c 0,36,37
 733 796 733 796 733 850 c 0,38,39
 733 1006 733 1006 515 1006 c 0,40,41
 409.217391304 1006 409.217391304 1006 254 946.5 c 0,42,43
 224 935 224 935 220 934 c 1,44,-1
 132 1130 l 1,0,1
EndSplineSet
EndChar

StartChar: four
Encoding: 52 52 25
Width: 1271
GlyphClass: 2
Flags: HW
HStem: 64 212<363 733 979 1164>
VStem: 733 246<-238 64 279 825>
DStem2: 83 243 363 276 0.562173 0.827019<184.7 846.738>
LayerCount: 2
Fore
SplineSet
733 276 m 1,0,-1
 733 825 l 1,1,-1
 363 276 l 1,2,-1
 733 276 l 1,0,-1
979 1179 m 1,3,-1
 979 279 l 1,4,-1
 1164 279 l 1,5,-1
 1164 64 l 1,6,-1
 979 64 l 1,7,-1
 979 -238 l 1,8,-1
 733 -238 l 1,9,-1
 733 64 l 1,10,-1
 120 64 l 1,11,-1
 83 243 l 1,12,-1
 758 1236 l 1,13,-1
 979 1179 l 1,3,-1
EndSplineSet
EndChar

StartChar: five
Encoding: 53 53 26
Width: 1168
GlyphClass: 2
Flags: HW
HStem: -196 227<273.768 714.394> 532 205<416.44 713.848> 978 212<401 966>
VStem: 169 232<681 978> 800 253<114.626 444.234>
LayerCount: 2
Fore
SplineSet
401 681 m 1,0,1
 478.777777778 737 478.777777778 737 585.388888889 737 c 128,-1,2
 692 737 692 737 778.5 705 c 128,-1,3
 865 673 865 673 926 612.5 c 0,4,5
 1053 486.540983607 1053 486.540983607 1053 269 c 0,6,7
 1053 56.9179104478 1053 56.9179104478 913 -69.5 c 128,-1,8
 772.909090909 -196 772.909090909 -196 547 -196 c 0,9,10
 337.428571429 -196 337.428571429 -196 136 -102 c 1,11,-1
 182 112 l 1,12,13
 349.4 31 349.4 31 534 31 c 0,14,15
 800 31 800 31 800 270 c 0,16,17
 800 532 800 532 557 532 c 0,18,19
 438.333333333 532 438.333333333 532 295 446 c 1,20,-1
 169 554 l 1,21,-1
 169 1190 l 1,22,-1
 966 1190 l 1,23,-1
 966 978 l 1,24,-1
 401 978 l 1,25,-1
 401 681 l 1,0,1
EndSplineSet
EndChar

StartChar: six
Encoding: 54 54 27
Width: 1258
GlyphClass: 2
Flags: HW
HStem: -124 217<500.265 800.346> 647 210<486.649 820.889> 1146 221<791.916 881.346>
VStem: 113 273<221.521 566.014> 901 265<201.931 564.71>
LayerCount: 2
Fore
SplineSet
457 804 m 1,0,1
 569.913043478 857 569.913043478 857 679.456521739 857 c 128,-1,2
 789 857 789 857 879 819 c 128,-1,3
 969 781 969 781 1033 715.5 c 0,4,5
 1166 579.3828125 1166 579.3828125 1166 373 c 0,6,7
 1166 154.038167939 1166 154.038167939 1032.5 18.5 c 0,8,9
 892.142857143 -124 892.142857143 -124 656 -124 c 0,10,11
 400.064935065 -124 400.064935065 -124 254 39 c 0,12,13
 113 196.347826087 113 196.347826087 113 452 c 0,14,15
 113 937.976470588 113 937.976470588 497 1200 c 0,16,17
 661.082568807 1311.96222342 661.082568807 1311.96222342 877 1367 c 1,18,-1
 944 1146 l 1,19,20
 680.609571788 1091.26952141 680.609571788 1091.26952141 539 933 c 0,21,22
 488 876 488 876 457 804 c 1,0,1
386 443 m 0,23,24
 391.072463768 93 391.072463768 93 655 93 c 0,25,26
 785.275862069 93 785.275862069 93 848.5 189.5 c 0,27,28
 901 269.631578947 901 269.631578947 901 402 c 0,29,30
 901 584.142857143 901 584.142857143 767 632 c 0,31,32
 725 647 725 647 677 647 c 128,-1,33
 629 647 629 647 587.5 637.5 c 128,-1,34
 546 628 546 628 508.5 612 c 0,35,36
 434.372093023 580.372093023 434.372093023 580.372093023 388 534 c 1,37,38
 386 498 386 498 386 443 c 0,23,24
EndSplineSet
EndChar

StartChar: seven
Encoding: 55 55 28
Width: 1149
GlyphClass: 2
Flags: HW
HStem: 992 222<138 758>
DStem2: 246 -104 497 -216 0.422495 0.906365<4.53325 1209.69>
LayerCount: 2
Fore
SplineSet
1089 1054 m 1,0,-1
 497 -216 l 1,1,-1
 246 -104 l 1,2,-1
 758 992 l 1,3,-1
 138 992 l 1,4,-1
 138 1214 l 1,5,-1
 1015 1214 l 1,6,-1
 1089 1054 l 1,0,-1
EndSplineSet
EndChar

StartChar: eight
Encoding: 56 56 29
Width: 1312
GlyphClass: 2
Flags: HW
HStem: -138 219<480.419 832.859> 545 198<514.866 799.293> 1140 211<490.914 822.991>
VStem: 149 270<142.611 446.859> 166 264<287.779 462.033 818.465 1080.18> 882 264<286.779 462.476 816.688 1081.77> 892 271<139.258 449.175>
LayerCount: 2
Fore
SplineSet
882 956 m 0,0,1
 882 1140 882 1140 659 1140 c 0,2,3
 496.5 1140 496.5 1140 447.5 1042 c 0,4,5
 430 1007 430 1007 430 956 c 256,6,7
 430 803.729411765 430 803.729411765 565.5 757.5 c 0,8,9
 608 743 608 743 658.5 743 c 128,-1,10
 709 743 709 743 750 757.5 c 128,-1,11
 791 772 791 772 820.5 799 c 0,12,13
 882 855.288135593 882 855.288135593 882 956 c 0,0,1
880 195 m 0,14,15
 892 233 892 233 892 287.5 c 128,-1,16
 892 342 892 342 876 390 c 128,-1,17
 860 438 860 438 829.5 472.5 c 0,18,19
 765.405797101 545 765.405797101 545 659 545 c 0,20,21
 549.647058824 545 549.647058824 545 484 473 c 0,22,23
 419 401.709677419 419 401.709677419 419 290.85483871 c 128,-1,24
 419 180 419 180 475 130.5 c 128,-1,25
 531 81 531 81 659 81 c 0,26,27
 844 81 844 81 880 195 c 0,14,15
1108.5 1131 m 128,-1,29
 1146 1059 1146 1059 1146 978.5 c 128,-1,30
 1146 898 1146 898 1125 843 c 128,-1,31
 1104 788 1104 788 1067.5 745.5 c 0,32,33
 993.206924316 658.994363929 993.206924316 658.994363929 879 632 c 1,34,35
 1003.83870968 604.951612903 1003.83870968 604.951612903 1081 508.5 c 0,36,37
 1163 406 1163 406 1163 282 c 128,-1,38
 1163 158 1163 158 1122.5 82.5 c 128,-1,39
 1082 7 1082 7 1013 -42 c 0,40,41
 877.816326531 -138 877.816326531 -138 659 -138 c 128,-1,42
 440.183673469 -138 440.183673469 -138 303.5 -43 c 0,43,44
 149 64.3829787234 149 64.3829787234 149 264 c 0,45,46
 149 409.285714286 149 409.285714286 231.5 510 c 0,47,48
 311.536895674 607.707379135 311.536895674 607.707379135 433 632 c 1,49,50
 320.077223306 659.185112908 320.077223306 659.185112908 245.5 745 c 0,51,52
 166 836.479452055 166 836.479452055 166 948.239726027 c 128,-1,53
 166 1060 166 1060 204 1131.5 c 128,-1,54
 242 1203 242 1203 308.5 1252 c 0,55,56
 442.857142857 1351 442.857142857 1351 659 1351 c 0,57,58
 873.163265306 1351 873.163265306 1351 1005.5 1252 c 0,59,28
 1071 1203 1071 1203 1108.5 1131 c 128,-1,29
EndSplineSet
EndChar

StartChar: nine
Encoding: 57 57 30
Width: 1285
GlyphClass: 2
Flags: HW
HStem: -231 222<401.803 489.779> 297 208<468.337 805.568> 1042 218<477.508 788.467>
VStem: 118 266<592.589 944.788> 902 270<562.829 916.278>
LayerCount: 2
Fore
SplineSet
829 355 m 1,0,1
 735.307692308 297 735.307692308 297 614.653846154 297 c 128,-1,2
 494 297 494 297 404 330 c 128,-1,3
 314 363 314 363 250 424 c 0,4,5
 118 549.8125 118 549.8125 118 765 c 0,6,7
 118 979.361538462 118 979.361538462 254 1118.5 c 0,8,9
 392.308270677 1260 392.308270677 1260 620 1260 c 0,10,11
 882.241610738 1260 882.241610738 1260 1027.5 1106.5 c 0,12,13
 1172 953.80141844 1172 953.80141844 1172 684 c 0,14,15
 1172 311.523489933 1172 311.523489933 922.5 57 c 0,16,17
 706.345468335 -163.506636329 706.345468335 -163.506636329 406 -231 c 1,18,-1
 341 -9 l 1,19,20
 602.990960744 44.7417355372 602.990960744 44.7417355372 750.5 220 c 0,21,22
 801 280 801 280 829 355 c 1,0,1
634 1042 m 0,23,24
 384 1042 384 1042 384 752 c 0,25,26
 384 636.237288136 384 636.237288136 446.5 569.5 c 0,27,28
 506.904761905 505 506.904761905 505 605 505 c 0,29,30
 709.333333333 505 709.333333333 505 848 550.5 c 0,31,32
 880 561 880 561 891 569 c 1,33,34
 899.035714286 646.678571429 899.035714286 646.678571429 902 703 c 1,35,36
 896.784615385 1042 896.784615385 1042 634 1042 c 0,23,24
EndSplineSet
EndChar

StartChar: colon
Encoding: 58 58 31
Width: 701
GlyphClass: 2
Flags: HW
HStem: 0 379<190 556> 688 379<190 556>
VStem: 190 366<0 379 688 1067>
LayerCount: 2
Fore
SplineSet
190 379 m 1,0,-1
 556 379 l 1,1,-1
 556 0 l 1,2,-1
 190 0 l 1,3,-1
 190 379 l 1,0,-1
190 1067 m 1,4,-1
 556 1067 l 1,5,-1
 556 688 l 1,6,-1
 190 688 l 1,7,-1
 190 1067 l 1,4,-1
EndSplineSet
EndChar

StartChar: semicolon
Encoding: 59 59 32
Width: 692
GlyphClass: 2
Flags: HW
HStem: 688 379<186 549>
VStem: 186 363<1.57874 373 688 1067> 350 200<-119.748 0>
LayerCount: 2
Fore
SplineSet
186 1067 m 1,0,-1
 549 1067 l 1,1,-1
 549 688 l 1,2,-1
 186 688 l 1,3,-1
 186 1067 l 1,0,-1
188 373 m 1,4,-1
 550 373 l 1,5,-1
 550 51 l 2,6,7
 550 -155.169642857 550 -155.169642857 357 -246.5 c 0,8,9
 301 -273 301 -273 240 -291 c 1,10,-1
 189 -183 l 1,11,12
 279.13564431 -150.951770912 279.13564431 -150.951770912 306.067822155 -120.475885456 c 0,13,14
 350 -70.7631578947 350 -70.7631578947 350 0 c 1,15,-1
 188 0 l 1,16,-1
 188 373 l 1,4,-1
EndSplineSet
EndChar

StartChar: less
Encoding: 60 60 33
Width: 1238
GlyphClass: 2
Flags: HW
HStem: 1 21G<932.007 963.293>
DStem2: 444 632 179 559 0.813663 -0.581337<0 675.281> 216 739 444 632 0.817059 0.576554<124.598 800.52>
LayerCount: 2
Fore
SplineSet
216 739 m 1,0,-1
 960 1264 l 1,1,-1
 1001 1015 l 1,2,-1
 444 632 l 1,3,-1
 1001 250 l 1,4,-1
 960 1 l 1,5,-1
 179 559 l 1,6,-1
 216 739 l 1,0,-1
EndSplineSet
EndChar

StartChar: equal
Encoding: 61 61 34
Width: 1112
GlyphClass: 2
Flags: HW
HStem: 278 197<162 951> 601 196<162 951>
LayerCount: 2
Fore
SplineSet
162 278 m 1,0,-1
 162 475 l 1,1,-1
 951 475 l 1,2,-1
 951 278 l 1,3,-1
 162 278 l 1,0,-1
162 601 m 1,4,-1
 162 797 l 1,5,-1
 951 797 l 1,6,-1
 951 601 l 1,7,-1
 162 601 l 1,4,-1
EndSplineSet
EndChar

StartChar: greater
Encoding: 62 62 35
Width: 1217
GlyphClass: 2
Flags: HW
HStem: 1 21G<285.784 316.993>
DStem2: 288 1264 247 1009 0.81798 -0.575246<113.151 782.362> 248 256 289 1 0.813663 0.581337<0 667.725>
LayerCount: 2
Fore
SplineSet
289 1 m 1,0,-1
 248 256 l 1,1,-1
 800 632 l 1,2,-1
 247 1009 l 1,3,-1
 288 1264 l 1,4,-1
 1026 745 l 1,5,-1
 1070 559 l 1,6,-1
 289 1 l 1,0,-1
EndSplineSet
EndChar

StartChar: question
Encoding: 63 63 36
Width: 1148
GlyphClass: 2
Flags: HW
HStem: -43 328<311.197 505.588> 1359 234<238.737 696.984>
VStem: 260.5 296.5<7.04272 235.046> 264 270<378 699.828> 758 285<1050.27 1300.15>
LayerCount: 2
Fore
SplineSet
252 165 m 1,0,1
 284.36101083 245.902527076 284.36101083 245.902527076 382.5 275.5 c 0,2,3
 414 285 414 285 449 285 c 1,4,5
 528.648760331 249.954545455 528.648760331 249.954545455 557 146 c 0,6,7
 566 113 566 113 566 77 c 1,8,9
 533.63898917 -3.90252707581 533.63898917 -3.90252707581 435.5 -33.5 c 0,10,11
 404 -43 404 -43 369 -43 c 1,12,13
 318.929499072 -21.8163265306 318.929499072 -21.8163265306 285 36.5 c 0,14,15
 252 93.21875 252 93.21875 252 165 c 1,0,1
65 1495 m 1,16,17
 261 1593 261 1593 505 1593 c 0,18,19
 883.086666667 1593 883.086666667 1593 1001.5 1379 c 0,20,21
 1043 1304 1043 1304 1043 1216 c 128,-1,22
 1043 1128 1043 1128 1017 1055 c 128,-1,23
 991 982 991 982 931 914.5 c 0,24,25
 799.299785867 766.337259101 799.299785867 766.337259101 534 686 c 1,26,-1
 534 378 l 1,27,-1
 264 378 l 1,28,-1
 264 823 l 1,29,30
 516.548586118 906.365552699 516.548586118 906.365552699 598.774293059 956.68277635 c 128,-1,31
 681 1007 681 1007 719.5 1058 c 128,-1,32
 758 1109 758 1109 758 1171 c 128,-1,33
 758 1233 758 1233 738 1268.5 c 128,-1,34
 718 1304 718 1304 682 1324 c 0,35,36
 619 1359 619 1359 486 1359 c 0,37,38
 352.16 1359 352.16 1359 174 1293.5 c 0,39,40
 140 1281 140 1281 140 1280 c 2,41,-1
 65 1495 l 1,16,17
EndSplineSet
EndChar

StartChar: at
Encoding: 64 64 37
Width: 1982
GlyphClass: 2
Flags: HW
HStem: -144 196<721.894 1243.12> 239 173<790.146 1053.11 1390.18 1517.83> 1013 158<901.51 1253.51> 1325 204<778.834 1317.68>
VStem: 134 237<376.955 902.57> 519 214<471.006 833.33> 1254 185.5<771.894 995.154> 1254 134<415.094 545> 1643 230<545.924 1018.78>
DStem2: 1197.5 79.5 1252.5 -111 0.946186 0.323623<-177.057 190.415>
LayerCount: 2
Fore
SplineSet
989 -144 m 0,0,1
 587.292682927 -144 587.292682927 -144 356 73.5 c 0,2,3
 134 282.26146789 134 282.26146789 134 628 c 0,4,5
 134 817 134 817 198.5 981 c 128,-1,6
 263 1145 263 1145 382 1267 c 128,-1,7
 501 1389 501 1389 670 1459 c 128,-1,8
 839 1529 839 1529 1049 1529 c 0,9,10
 1393.76612903 1529 1393.76612903 1529 1624.5 1342 c 0,11,12
 1780.62766096 1215.46516367 1780.62766096 1215.46516367 1842 1016.5 c 0,13,14
 1873 916 1873 916 1873 812 c 128,-1,15
 1873 708 1873 708 1854.5 630.5 c 128,-1,16
 1836 553 1836 553 1804 489 c 0,17,18
 1706.11111111 293.222222222 1706.11111111 293.222222222 1535 259 c 0,19,20
 1475 247 1475 247 1397.5 247 c 0,21,22
 1254 247 1254 247 1254 420 c 0,23,24
 1254 451 1254 451 1254 482 c 128,-1,25
 1254 513 1254 513 1256 545 c 1,26,27
 1163.27272727 239 1163.27272727 239 895 239 c 0,28,29
 643.4 239 643.4 239 549 475 c 1,30,31
 519 556.428571429 519 556.428571429 519 630.714285714 c 128,-1,32
 519 705 519 705 533.5 762.5 c 128,-1,33
 548 820 548 820 574.5 871.5 c 0,34,35
 626.974504249 973.478753541 626.974504249 973.478753541 705.987252125 1040.23937677 c 0,36,37
 860.745486177 1171 860.745486177 1171 1065 1171 c 0,38,39
 1165.2 1171 1165.2 1171 1256.6 1151 c 0,40,41
 1420.78914027 1115.07239819 1420.78914027 1115.07239819 1440 987 c 1,42,43
 1440 943 1440 943 1438 903 c 1,44,-1
 1388 415 l 1,45,46
 1519 429 1519 429 1581 514.5 c 128,-1,47
 1643 600 1643 600 1643 760 c 128,-1,48
 1643 920 1643 920 1596.5 1024.5 c 128,-1,49
 1550 1129 1550 1129 1468.5 1196 c 0,50,51
 1311.58208955 1325 1311.58208955 1325 1036 1325 c 0,52,53
 739.213114754 1325 739.213114754 1325 556 1134.5 c 0,54,55
 371 942.142045455 371 942.142045455 371 628 c 0,56,57
 371 349.981818182 371 349.981818182 540.5 200 c 0,58,59
 707.760273973 52 707.760273973 52 1018 52 c 0,60,61
 1147.68181818 52 1147.68181818 52 1254.5 102 c 0,62,63
 1278 113 1278 113 1292 119 c 1,64,65
 1334 128 1334 128 1376 146 c 1,66,-1
 1446 -19 l 1,67,68
 1290.82758621 -144 1290.82758621 -144 989 -144 c 0,0,1
1254 993 m 1,69,70
 1134 1013 1134 1013 1067.5 1013 c 128,-1,71
 1001 1013 1001 1013 938.5 987.5 c 128,-1,72
 876 962 876 962 830.5 912.5 c 0,73,74
 733 806.428571429 733 806.428571429 733 622 c 0,75,76
 733 474.476923077 733 474.476923077 831.5 427.5 c 0,77,78
 864 412 864 412 927 412 c 128,-1,79
 990 412 990 412 1051.5 455 c 128,-1,80
 1113 498 1113 498 1155 575.5 c 0,81,82
 1234.85571013 722.852798447 1234.85571013 722.852798447 1254 993 c 1,69,70
EndSplineSet
EndChar

StartChar: A
Encoding: 65 65 38
Width: 1513
GlyphClass: 2
Flags: HW
HStem: 0 21G<43 357.341 1155.6 1469> 369 147<509 1004> 1587 20G<564.429 943.621>
VStem: 43 308<0 308> 1162 307<0 307>
DStem2: 43 0 351 0 0.312146 0.950034<96.1409 483.225 635.678 1444.6> 937 1607 760 1285 0.314278 -0.949331<250.057 1056.78>
LayerCount: 2
Fore
SplineSet
937 1607 m 1,0,-1
 1469 0 l 1,1,-1
 1162 0 l 1,2,-1
 1044 369 l 1,3,-1
 468 369 l 1,4,-1
 351 0 l 1,5,-1
 43 0 l 1,6,-1
 571 1607 l 1,7,-1
 937 1607 l 1,0,-1
509 516 m 1,8,-1
 1004 516 l 1,9,-1
 760 1285 l 1,10,-1
 509 516 l 1,8,-1
EndSplineSet
EndChar

StartChar: B
Encoding: 66 66 39
Width: 1441
GlyphClass: 2
Flags: HW
HStem: 0 202<462 949.393> 749 191<462 912.041> 1405 202<462 918.917>
VStem: 156 306<202 749 940 1405> 1023 268<1036.27 1318.16> 1060 298<299.163 641.752>
LayerCount: 2
Fore
SplineSet
558 1607 m 2,0,1
 921.428571429 1607 921.428571429 1607 1103 1514 c 1,2,3
 1291 1415.62790698 1291 1415.62790698 1291 1205 c 0,4,5
 1291 900.04 1291 900.04 949 859 c 1,6,7
 1146.47902685 832.669463087 1146.47902685 832.669463087 1243.5 749 c 0,8,9
 1358 650.256880734 1358 650.256880734 1358 453 c 0,10,11
 1358 197.662983425 1358 197.662983425 1170.5 92 c 0,12,13
 1007.24509804 0 1007.24509804 0 656 0 c 2,14,-1
 156 0 l 1,15,-1
 156 1607 l 1,16,-1
 558 1607 l 2,0,1
625 202 m 2,17,18
 868.982758621 202 868.982758621 202 959.5 252 c 0,19,20
 1060 307.514285714 1060 307.514285714 1060 470 c 0,21,22
 1060 628.92 1060 628.92 963 691 c 0,23,24
 872.375 749 872.375 749 651 749 c 2,25,-1
 462 749 l 1,26,-1
 462 202 l 1,27,-1
 625 202 l 2,17,18
462 940 m 1,28,-1
 651 940 l 2,29,30
 942.76344086 940 942.76344086 940 1002.5 1075.5 c 0,31,32
 1023 1122 1023 1122 1023 1183 c 128,-1,33
 1023 1244 1023 1244 1002 1285.5 c 128,-1,34
 981 1327 981 1327 933 1353.5 c 0,35,36
 839.716981132 1405 839.716981132 1405 617 1405 c 2,37,-1
 462 1405 l 1,38,-1
 462 940 l 1,28,-1
EndSplineSet
EndChar

StartChar: C
Encoding: 67 67 40
Width: 1319
GlyphClass: 2
Flags: HW
HStem: -34 225<632.444 1056.96> 1411 225<632.853 1070.24>
VStem: 105 307<465.741 1133.85>
LayerCount: 2
Fore
SplineSet
823 1411 m 0,0,1
 412 1411 412 1411 412 801 c 128,-1,2
 412 191 412 191 823 191 c 0,3,4
 981.230769231 191 981.230769231 191 1124.5 265.5 c 0,5,6
 1162 285 1162 285 1186 302 c 1,7,-1
 1270 86 l 1,8,9
 1187.15826087 17.7773913043 1187.15826087 17.7773913043 966 -20.5 c 0,10,11
 888 -34 888 -34 801 -34 c 0,12,13
 464.544600939 -34 464.544600939 -34 284 184.5 c 0,14,15
 105 401.130681818 105 401.130681818 105 796 c 0,16,17
 105 1165.99130435 105 1165.99130435 274.5 1391.5 c 0,18,19
 458.274509804 1636 458.274509804 1636 804 1636 c 0,20,21
 1015.26315789 1636 1015.26315789 1636 1182 1570 c 0,22,23
 1230 1551 1230 1551 1259 1531 c 1,24,-1
 1179 1312 l 1,25,26
 1027.89473684 1411 1027.89473684 1411 823 1411 c 0,0,1
EndSplineSet
EndChar

StartChar: D
Encoding: 68 68 41
Width: 1557
GlyphClass: 2
Flags: HW
HStem: 0 202<462 892.902> 1405 202<462 909.243>
VStem: 157 305<202 1405> 1142 310<485.149 1140.35>
LayerCount: 2
Fore
SplineSet
1116.5 550 m 0,0,1
 1142 661 1142 661 1142 802.5 c 128,-1,2
 1142 944 1142 944 1120.5 1056 c 128,-1,3
 1099 1168 1099 1168 1045.5 1245.5 c 0,4,5
 935.393548387 1405 935.393548387 1405 671 1405 c 2,6,-1
 462 1405 l 1,7,-1
 462 202 l 1,8,-1
 661 202 l 2,9,10
 1036.55405405 202 1036.55405405 202 1116.5 550 c 0,0,1
1452 801 m 0,11,12
 1452 219.795221843 1452 219.795221843 1038.5 57.5 c 0,13,14
 892 0 892 0 683 0 c 2,15,-1
 157 0 l 1,16,-1
 157 1607 l 1,17,-1
 676 1607 l 2,18,19
 1063 1607 1063 1607 1257.5 1409.5 c 128,-1,20
 1452 1212 1452 1212 1452 801 c 0,11,12
EndSplineSet
EndChar

StartChar: E
Encoding: 69 69 42
Width: 1281
GlyphClass: 2
Flags: HW
HStem: 0 199<461 1216> 745 186<461 1110> 1405 202<461 1205>
VStem: 156 305<199 745 931 1405>
LayerCount: 2
Fore
SplineSet
156 0 m 1,0,-1
 156 1607 l 1,1,-1
 1205 1607 l 1,2,-1
 1205 1405 l 1,3,-1
 461 1405 l 1,4,-1
 461 931 l 1,5,-1
 1110 931 l 1,6,-1
 1110 745 l 1,7,-1
 461 745 l 1,8,-1
 461 199 l 1,9,-1
 1216 199 l 1,10,-1
 1216 0 l 1,11,-1
 156 0 l 1,0,-1
EndSplineSet
EndChar

StartChar: F
Encoding: 70 70 43
Width: 1219
GlyphClass: 2
Flags: HW
HStem: 0 21G<156 461> 739 186<461 1114> 1405 202<461 1192>
VStem: 156 305<0 739 925 1405>
LayerCount: 2
Fore
SplineSet
461 0 m 1,0,-1
 156 0 l 1,1,-1
 156 1607 l 1,2,-1
 1192 1607 l 1,3,-1
 1192 1405 l 1,4,-1
 461 1405 l 1,5,-1
 461 925 l 1,6,-1
 1114 925 l 1,7,-1
 1114 739 l 1,8,-1
 461 739 l 1,9,-1
 461 0 l 1,0,-1
EndSplineSet
EndChar

StartChar: G
Encoding: 71 71 44
Width: 1561
GlyphClass: 2
Flags: HW
HStem: -34 225<625.75 1026.27> 0 21G<1231.74 1420> 679 188<764 1150> 1411 225<654.11 1088.37>
VStem: 105 308<458.525 1117.22> 1150 270<281.141 679>
LayerCount: 2
Fore
SplineSet
804 191 m 0,0,1
 1083.14285714 191 1083.14285714 191 1150 347 c 1,2,-1
 1150 679 l 1,3,-1
 764 679 l 1,4,-1
 764 867 l 1,5,-1
 1420 867 l 1,6,-1
 1420 0 l 1,7,-1
 1238 0 l 1,8,-1
 1187 163 l 1,9,10
 1132.74074074 22.5642701525 1132.74074074 22.5642701525 926 -20 c 0,11,12
 858 -34 858 -34 777 -34 c 0,13,14
 457.867924528 -34 457.867924528 -34 281 184 c 0,15,16
 105 400.930232558 105 400.930232558 105 790 c 0,17,18
 105 1195.84210526 105 1195.84210526 300 1416.5 c 0,19,20
 493.976744186 1636 493.976744186 1636 850 1636 c 0,21,22
 1140.2 1636 1140.2 1636 1325 1504 c 1,23,-1
 1233 1298 l 1,24,25
 1037.81818182 1411 1037.81818182 1411 838.909090909 1411 c 128,-1,26
 640 1411 640 1411 526.5 1256 c 128,-1,27
 413 1101 413 1101 413 791 c 0,28,29
 413 357.993288591 413 357.993288591 624.5 234.5 c 0,30,31
 699 191 699 191 804 191 c 0,0,1
EndSplineSet
EndChar

StartChar: H
Encoding: 72 72 45
Width: 1601
GlyphClass: 2
Flags: HW
HStem: 0 21G<156 462 1139 1444> 741 185<462 1139> 1587 20G<156 462 1139 1444>
VStem: 156 306<0 741 926 1607> 1139 305<0 741 926 1607>
LayerCount: 2
Fore
SplineSet
1139 741 m 1,0,-1
 462 741 l 1,1,-1
 462 0 l 1,2,-1
 156 0 l 1,3,-1
 156 1607 l 1,4,-1
 462 1607 l 1,5,-1
 462 926 l 1,6,-1
 1139 926 l 1,7,-1
 1139 1607 l 1,8,-1
 1444 1607 l 1,9,-1
 1444 0 l 1,10,-1
 1139 0 l 1,11,-1
 1139 741 l 1,0,-1
EndSplineSet
EndChar

StartChar: I
Encoding: 73 73 46
Width: 846
GlyphClass: 2
Flags: HW
HStem: 0 150<87 273 574 763> 1454 153<87 273 574 763>
VStem: 273 301<150 1454>
LayerCount: 2
Fore
SplineSet
273 150 m 1,0,-1
 273 1454 l 1,1,-1
 87 1454 l 1,2,-1
 87 1607 l 1,3,-1
 763 1607 l 1,4,-1
 763 1454 l 1,5,-1
 574 1454 l 1,6,-1
 574 150 l 1,7,-1
 763 150 l 1,8,-1
 763 0 l 1,9,-1
 87 0 l 1,10,-1
 87 150 l 1,11,-1
 273 150 l 1,0,-1
EndSplineSet
EndChar

StartChar: J
Encoding: 74 74 47
Width: 826
GlyphClass: 2
Flags: HW
HStem: -89 198<111.352 205.724> 1587 20G<365 670>
VStem: 365 305<250.385 1607>
LayerCount: 2
Fore
SplineSet
39 109 m 1,0,1
 236.935779817 140.669724771 236.935779817 140.669724771 302 222 c 0,2,3
 365 300.75 365 300.75 365 504 c 2,4,-1
 365 1607 l 1,5,-1
 670 1607 l 1,6,-1
 670 519 l 2,7,8
 670 218.379844961 670 218.379844961 550.5 78.5 c 0,9,10
 420.621036384 -73.5288643881 420.621036384 -73.5288643881 117 -89 c 1,11,-1
 39 109 l 1,0,1
EndSplineSet
EndChar

StartChar: K
Encoding: 75 75 48
Width: 1469
GlyphClass: 2
Flags: HW
HStem: 0 21G<156 462 1092.58 1450> 713 182<462 593> 1587 20G<156 462 1053.91 1389>
VStem: 156 306<0 713 895 1607> 1067 322<1285 1607> 1107 343<0 343>
DStem2: 843 809 593 713 0.600158 -0.799881<0 805.546>
LayerCount: 2
Fore
SplineSet
462 0 m 1,0,-1
 156 0 l 1,1,-1
 156 1607 l 1,2,-1
 462 1607 l 1,3,-1
 462 895 l 1,4,-1
 601 895 l 1,5,-1
 1067 1607 l 1,6,-1
 1389 1607 l 1,7,-1
 843 809 l 1,8,-1
 1450 0 l 1,9,-1
 1107 0 l 1,10,-1
 593 713 l 1,11,-1
 462 713 l 1,12,-1
 462 0 l 1,0,-1
EndSplineSet
EndChar

StartChar: L
Encoding: 76 76 49
Width: 1216
GlyphClass: 2
Flags: HW
HStem: 0 202<461 1181> 1587 20G<156 461>
VStem: 156 305<202 1607>
LayerCount: 2
Fore
SplineSet
156 0 m 1,0,-1
 156 1607 l 1,1,-1
 461 1607 l 1,2,-1
 461 202 l 1,3,-1
 1181 202 l 1,4,-1
 1181 0 l 1,5,-1
 156 0 l 1,0,-1
EndSplineSet
EndChar

StartChar: M
Encoding: 77 77 50
Width: 1987
GlyphClass: 2
Flags: HW
HStem: 0 21G<156 423 842.206 1146.76 1564 1831> 1587 20G<156 563.792 1423.07 1831>
VStem: 156 267<0 1254> 1564 267<0 1254>
DStem2: 557 1607 423 1254 0.321582 -0.946882<291.157 1343.36> 989 335 1140 0 0.32757 0.944827<0 1056.65>
LayerCount: 2
Fore
SplineSet
423 1254 m 1,0,-1
 423 0 l 1,1,-1
 156 0 l 1,2,-1
 156 1607 l 1,3,-1
 557 1607 l 1,4,-1
 989 335 l 1,5,-1
 1430 1607 l 1,6,-1
 1831 1607 l 1,7,-1
 1831 0 l 1,8,-1
 1564 0 l 1,9,-1
 1564 1254 l 1,10,-1
 1140 0 l 1,11,-1
 849 0 l 1,12,-1
 423 1254 l 1,0,-1
EndSplineSet
EndChar

StartChar: N
Encoding: 78 78 51
Width: 1651
GlyphClass: 2
Flags: HW
HStem: 0 21G<156 436 1148.18 1495> 1587 20G<156 515.733 1215 1495>
VStem: 156 280<0 1225> 1215 280<395 1607>
DStem2: 504 1607 436 1225 0.5088 -0.860885<294.259 1405.15>
LayerCount: 2
Fore
SplineSet
1160 0 m 1,0,-1
 436 1225 l 1,1,-1
 436 0 l 1,2,-1
 156 0 l 1,3,-1
 156 1607 l 1,4,-1
 504 1607 l 1,5,-1
 1215 395 l 1,6,-1
 1215 1607 l 1,7,-1
 1495 1607 l 1,8,-1
 1495 0 l 1,9,-1
 1160 0 l 1,0,-1
EndSplineSet
EndChar

StartChar: O
Encoding: 79 79 52
Width: 1611
GlyphClass: 2
Flags: HW
HStem: -35 227<620.29 989.003> 1411 224<622.018 989.934>
VStem: 104 309<455.373 1146.58> 1199 308<458.447 1143.76>
LayerCount: 2
Fore
SplineSet
1507 816 m 0,0,1
 1507 628 1507 628 1469.5 473.5 c 128,-1,2
 1432 319 1432 319 1349 206 c 0,3,4
 1171.98230088 -35 1171.98230088 -35 805 -35 c 0,5,6
 324.263157895 -35 324.263157895 -35 171 381 c 0,7,8
 104 562.857142857 104 562.857142857 104 786.428571429 c 128,-1,9
 104 1010 104 1010 148.5 1161.5 c 128,-1,10
 193 1313 193 1313 280.5 1418 c 0,11,12
 461.333333333 1635 461.333333333 1635 805 1635 c 0,13,14
 1151.98122066 1635 1151.98122066 1635 1331.5 1416.5 c 0,15,16
 1507 1202.89142857 1507 1202.89142857 1507 816 c 0,0,1
413 798 m 0,17,18
 413 192 413 192 806 192 c 128,-1,19
 1199 192 1199 192 1199 801.5 c 128,-1,20
 1199 1411 1199 1411 808 1411 c 0,21,22
 501.451754386 1411 501.451754386 1411 434.5 1056 c 0,23,24
 413 942 413 942 413 798 c 0,17,18
EndSplineSet
EndChar

StartChar: P
Encoding: 80 80 53
Width: 1391
GlyphClass: 2
Flags: HW
HStem: 0 21G<156 462> 597 194<462 867.974> 1405 202<462 885.657>
VStem: 156 306<0 597 791 1405> 1030 307<923.464 1272.27>
LayerCount: 2
Fore
SplineSet
1309 1277 m 128,-1,1
 1336 1199 1336 1199 1336.5 1077 c 128,-1,2
 1337 955 1337 955 1287.5 860 c 128,-1,3
 1238 765 1238 765 1141 706.5 c 0,4,5
 959.435897436 597 959.435897436 597 568 597 c 2,6,-1
 462 597 l 1,7,-1
 462 0 l 1,8,-1
 156 0 l 1,9,-1
 156 1607 l 1,10,-1
 598 1607 l 2,11,12
 823.8 1607 823.8 1607 937.9 1575.5 c 128,-1,13
 1052 1544 1052 1544 1119 1506.5 c 128,-1,14
 1186 1469 1186 1469 1234 1412 c 128,-1,0
 1282 1355 1282 1355 1309 1277 c 128,-1,1
559 791 m 2,15,16
 915.625 791 915.625 791 999.5 945 c 0,17,18
 1030 1001 1030 1001 1030 1093 c 128,-1,19
 1030 1185 1030 1185 999 1248 c 128,-1,20
 968 1311 968 1311 911.5 1346 c 0,21,22
 816.257142857 1405 816.257142857 1405 596 1405 c 2,23,-1
 462 1405 l 1,24,-1
 462 791 l 1,25,-1
 559 791 l 2,15,16
EndSplineSet
EndChar

StartChar: Q
Encoding: 81 81 54
Width: 1618
GlyphClass: 2
Flags: HW
HStem: 1411 225<622.631 993.244>
VStem: 105 308<455.635 1143.92> 1205 308<459.269 1140.76>
LayerCount: 2
Fore
SplineSet
1468 1155.5 m 0,0,1
 1513 999 1513 999 1513 815.5 c 128,-1,2
 1513 632 1513 632 1481 493.5 c 128,-1,3
 1449 355 1449 355 1383.5 250 c 0,4,5
 1246.55518382 30.4701419957 1246.55518382 30.4701419957 979 -18 c 1,6,-1
 1309 -262 l 1,7,-1
 1154 -429 l 1,8,-1
 675 -24 l 1,9,10
 378.448254576 15.4151054045 378.448254576 15.4151054045 232.5 256.5 c 0,11,12
 105 467.111111111 105 467.111111111 105 805 c 0,13,14
 105 1185.02339181 105 1185.02339181 272.5 1401.5 c 0,15,16
 453.945701357 1636 453.945701357 1636 803 1636 c 0,17,18
 1329.8370607 1636 1329.8370607 1636 1468 1155.5 c 0,0,1
1205 801 m 256,19,20
 1205 1411 1205 1411 809 1411 c 0,21,22
 496.771300448 1411 496.771300448 1411 432.5 1043.5 c 0,23,24
 413 932 413 932 413 802 c 128,-1,25
 413 672 413 672 431.5 561 c 128,-1,26
 450 450 450 450 495.5 367.5 c 0,27,28
 592.842424242 191 592.842424242 191 809 191 c 0,29,30
 1205 191 1205 191 1205 801 c 256,19,20
EndSplineSet
EndChar

StartChar: R
Encoding: 82 82 55
Width: 1463
GlyphClass: 2
Flags: HW
HStem: 0 21G<156 462 1046 1349> 711 189<462 888.026> 1405 202<462 927.798>
VStem: 156 306<0 711 900 1405> 1046 303<0 593.844 1033.66 1297.42>
LayerCount: 2
Fore
SplineSet
608 900 m 2,0,1
 937.455445545 900 937.455445545 900 1009.5 1048.5 c 0,2,3
 1034 1099 1034 1099 1034 1174 c 128,-1,4
 1034 1249 1034 1249 1002 1296 c 128,-1,5
 970 1343 970 1343 912 1367.5 c 0,6,7
 823.224489796 1405 823.224489796 1405 598 1405 c 2,8,-1
 462 1405 l 1,9,-1
 462 900 l 1,10,-1
 608 900 l 2,0,1
889 805 m 1,11,12
 1116.78464563 779.922791307 1116.78464563 779.922791307 1228 688.5 c 0,13,14
 1349 589.033898305 1349 589.033898305 1349 395 c 2,15,-1
 1349 0 l 1,16,-1
 1046 0 l 1,17,-1
 1046 416 l 2,18,19
 1046 596.573913043 1046 596.573913043 926.5 661 c 0,20,21
 833.758064516 711 833.758064516 711 606 711 c 2,22,-1
 462 711 l 1,23,-1
 462 0 l 1,24,-1
 156 0 l 1,25,-1
 156 1607 l 1,26,-1
 601 1607 l 2,27,28
 1001.12871287 1607 1001.12871287 1607 1175.5 1507.5 c 0,29,30
 1343 1411.92090395 1343 1411.92090395 1343 1201 c 0,31,32
 1343 1002.38842975 1343 1002.38842975 1214.5 901.5 c 0,33,34
 1099.72262774 811.385534174 1099.72262774 811.385534174 889 805 c 1,11,12
EndSplineSet
EndChar

StartChar: S
Encoding: 83 83 56
Width: 1325
GlyphClass: 2
Flags: HW
HStem: -34 230.5<395.318 876.45> 1411 225<452.387 940.818>
VStem: 85 287<1108.89 1337.38> 955 291<268.193 541.429>
DStem2: 301 273 284 35 0.945433 -0.325815<-106.916 367.316> 524 1047 413 778 0.929019 -0.370033<-164.834 561.11>
LayerCount: 2
Fore
SplineSet
684.901234568 195.111111111 m 0,0,1
 955 195.111111111 955 195.111111111 955 402 c 0,2,3
 955 566.5 955 566.5 767 637 c 1,4,-1
 413 778 l 1,5,6
 85 905.555555556 85 905.555555556 85 1196 c 0,7,8
 85 1413.52564103 85 1413.52564103 257 1531.5 c 0,9,10
 409.355140187 1636 409.355140187 1636 650 1636 c 0,11,12
 948.9 1636 948.9 1636 1175 1503 c 1,13,-1
 1111 1295 l 1,14,15
 1007.3670412 1357.17977528 1007.3670412 1357.17977528 827.5 1396 c 0,16,17
 758 1411 758 1411 688.5 1411 c 128,-1,18
 619 1411 619 1411 561.5 1402.5 c 128,-1,19
 504 1394 504 1394 462 1372 c 0,20,21
 372 1324.85714286 372 1324.85714286 372 1218 c 0,22,23
 372 1163.93939394 372 1163.93939394 395 1133.96969697 c 0,24,25
 437.82260274 1078.17054795 437.82260274 1078.17054795 524 1047 c 1,26,-1
 869 915 l 1,27,28
 1246 769.65060241 1246 769.65060241 1246 443 c 0,29,30
 1246 225.867132867 1246 225.867132867 1106.5 101 c 0,31,32
 955.6796875 -34 955.6796875 -34 658 -34 c 0,33,34
 475.076923077 -34 475.076923077 -34 284 35 c 0,35,36
 199 65 199 65 127 104 c 1,37,-1
 182 323 l 1,38,39
 451.987654321 195.111111111 451.987654321 195.111111111 684.901234568 195.111111111 c 0,0,1
EndSplineSet
EndChar

StartChar: T
Encoding: 84 84 57
Width: 1214
GlyphClass: 2
Flags: HW
HStem: 0 21G<455 761> 1405 202<19 455 761 1191>
VStem: 455 306<0 1405>
LayerCount: 2
Fore
SplineSet
761 1405 m 1,0,-1
 761 0 l 1,1,-1
 455 0 l 1,2,-1
 455 1405 l 1,3,-1
 19 1405 l 1,4,-1
 19 1607 l 1,5,-1
 1191 1607 l 1,6,-1
 1191 1405 l 1,7,-1
 761 1405 l 1,0,-1
EndSplineSet
EndChar

StartChar: U
Encoding: 85 85 58
Width: 1589
GlyphClass: 2
Flags: HW
HStem: -34 225<598.186 991.717> 1587 20G<140 446 1140 1446>
VStem: 140 306<368.113 1607> 1140 306<371.666 1607>
LayerCount: 2
Fore
SplineSet
795 191 m 0,0,1
 908 191 908 191 976.5 226 c 128,-1,2
 1045 261 1045 261 1081.5 329.5 c 128,-1,3
 1118 398 1118 398 1129 498 c 128,-1,4
 1140 598 1140 598 1140 729 c 2,5,-1
 1140 1607 l 1,6,-1
 1446 1607 l 1,7,-1
 1446 733 l 2,8,9
 1446 348.538461538 1446 348.538461538 1296 162 c 0,10,11
 1138.39175258 -34 1138.39175258 -34 797 -34 c 0,12,13
 283.484320557 -34 283.484320557 -34 175.5 402.5 c 0,14,15
 140 546 140 546 140 733 c 2,16,-1
 140 1607 l 1,17,-1
 446 1607 l 1,18,-1
 446 729 l 2,19,20
 446 443.666666667 446 443.666666667 508.5 329.5 c 0,21,22
 584.321167883 191 584.321167883 191 795 191 c 0,0,1
EndSplineSet
EndChar

StartChar: V
Encoding: 86 86 59
Width: 1413
GlyphClass: 2
Flags: HW
HStem: 0 21G<538.752 874.248> 1587 20G<43 335.209 1075.91 1370>
VStem: 43 286<1321 1607> 1082 288<1319 1607>
DStem2: 329 1607 43 1607 0.298174 -0.954512<0 1281.63> 709 383 868 0 0.298174 0.954512<0 1279.54>
LayerCount: 2
Fore
SplineSet
709 383 m 1,0,-1
 1082 1607 l 1,1,-1
 1370 1607 l 1,2,-1
 868 0 l 1,3,-1
 545 0 l 1,4,-1
 43 1607 l 1,5,-1
 329 1607 l 1,6,-1
 709 383 l 1,0,-1
EndSplineSet
EndChar

StartChar: W
Encoding: 87 87 60
Width: 2028
GlyphClass: 2
Flags: HW
HStem: -2 21G<383.681 754.931 1257.31 1642.33> 1587 20G<41 339.997 833.144 1192.86 1686.99 1986>
VStem: 41 295<1312 1607> 1691 295<1312 1607>
DStem2: 336 1607 41 1607 0.211066 -0.977472<0 1301.08> 591 331 751 0 0.192871 0.981224<0 1069.68> 1189 1607 1014 1338 0.181275 -0.983433<232.82 1299.45> 1435 331 1638 -2 0.211396 0.977401<0 1301.28>
LayerCount: 2
Fore
SplineSet
1189 1607 m 1,0,-1
 1435 331 l 1,1,-1
 1691 1607 l 1,2,-1
 1986 1607 l 1,3,-1
 1638 -2 l 1,4,-1
 1261 -2 l 1,5,-1
 1014 1338 l 1,6,-1
 751 0 l 1,7,-1
 388 0 l 1,8,-1
 41 1607 l 1,9,-1
 336 1607 l 1,10,-1
 591 331 l 1,11,-1
 837 1607 l 1,12,-1
 1189 1607 l 1,0,-1
EndSplineSet
EndChar

StartChar: X
Encoding: 88 88 61
Width: 1374
GlyphClass: 2
Flags: HW
HStem: 0 21G<19 360.194 1013.81 1355> 1587 20G<20 347.18 1027.79 1354>
VStem: 19 329<0 329 1278 1607> 1026 329<0 329 1278 1607>
DStem2: 19 0 348 0 0.530615 0.847613<174.572 825.724 1226.64 1903.87> 335 1607 20 1607 0.535889 -0.844288<0 676.632 1075.98 1727.07>
LayerCount: 2
Fore
SplineSet
1040 1607 m 1,0,-1
 1354 1607 l 1,1,-1
 858 805 l 1,2,-1
 1355 0 l 1,3,-1
 1026 0 l 1,4,-1
 687 556 l 1,5,-1
 348 0 l 1,6,-1
 19 0 l 1,7,-1
 516 805 l 1,8,-1
 20 1607 l 1,9,-1
 335 1607 l 1,10,-1
 687 1029 l 1,11,-1
 1040 1607 l 1,0,-1
EndSplineSet
EndChar

StartChar: Y
Encoding: 89 89 62
Width: 1291
GlyphClass: 2
Flags: HW
HStem: 0 21G<498 789> 1587 20G<-19 296.215 992.811 1310>
VStem: 498 291<0 514>
DStem2: 287 1607 -19 1607 0.427589 -0.903973<0 855.464> 645 830 789 514 0.430286 0.902693<0 855.004>
LayerCount: 2
Fore
SplineSet
1002 1607 m 1,0,-1
 1310 1607 l 1,1,-1
 789 514 l 1,2,-1
 789 0 l 1,3,-1
 498 0 l 1,4,-1
 498 514 l 1,5,-1
 -19 1607 l 1,6,-1
 287 1607 l 1,7,-1
 645 830 l 1,8,-1
 1002 1607 l 1,0,-1
EndSplineSet
EndChar

StartChar: Z
Encoding: 90 90 63
Width: 1250
GlyphClass: 2
Flags: HW
HStem: 0 202<412 1176> 1405 202<78 843>
DStem2: 78 214 412 202 0.535102 0.844787<168.587 1415.49>
LayerCount: 2
Fore
SplineSet
1174 1405 m 1,0,-1
 412 202 l 1,1,-1
 1176 202 l 1,2,-1
 1176 0 l 1,3,-1
 78 0 l 1,4,-1
 78 214 l 1,5,-1
 843 1405 l 1,6,-1
 78 1405 l 1,7,-1
 78 1607 l 1,8,-1
 1174 1607 l 1,9,-1
 1174 1405 l 1,0,-1
EndSplineSet
EndChar

StartChar: bracketleft
Encoding: 91 91 64
Width: 1137
GlyphClass: 2
Flags: HW
HStem: 0 202<532 978> 1405 202<532 978>
VStem: 249 283<202 1405>
LayerCount: 2
Fore
SplineSet
978 1607 m 1,0,-1
 978 1405 l 1,1,-1
 532 1405 l 1,2,-1
 532 202 l 1,3,-1
 978 202 l 1,4,-1
 978 0 l 1,5,-1
 249 0 l 1,6,-1
 249 1607 l 1,7,-1
 978 1607 l 1,0,-1
EndSplineSet
EndChar

StartChar: backslash
Encoding: 92 92 65
Width: 1142
GlyphClass: 2
Flags: HW
DStem2: 411 1733 149 1647 0.316228 -0.948683<0 1900.85>
LayerCount: 2
Fore
SplineSet
1013 -70 m 1,0,-1
 751 -159 l 1,1,-1
 149 1647 l 1,2,-1
 411 1733 l 1,3,-1
 1013 -70 l 1,0,-1
EndSplineSet
EndChar

StartChar: bracketright
Encoding: 93 93 66
Width: 1161
GlyphClass: 2
Flags: HW
HStem: 0 202<206 651> 1405 202<206 651>
VStem: 651 284<202 1405>
LayerCount: 2
Fore
SplineSet
935 1607 m 1,0,-1
 935 0 l 1,1,-1
 206 0 l 1,2,-1
 206 202 l 1,3,-1
 651 202 l 1,4,-1
 651 1405 l 1,5,-1
 206 1405 l 1,6,-1
 206 1607 l 1,7,-1
 935 1607 l 1,0,-1
EndSplineSet
EndChar

StartChar: asciicircum
Encoding: 94 94 67
Width: 1331
GlyphClass: 2
Flags: HW
HStem: 521 614
LayerCount: 2
Fore
SplineSet
763 1135 m 1,0,-1
 1039 552 l 1,1,-1
 819 521 l 1,2,-1
 664 909 l 1,3,-1
 510 521 l 1,4,-1
 291 552 l 1,5,-1
 568 1135 l 1,6,-1
 763 1135 l 1,0,-1
EndSplineSet
EndChar

StartChar: underscore
Encoding: 95 95 68
Width: 1204
GlyphClass: 2
Flags: HW
HStem: -105 220<92 1084>
LayerCount: 2
Fore
SplineSet
92 -105 m 1,0,-1
 92 115 l 1,1,-1
 1084 115 l 1,2,-1
 1084 -105 l 1,3,-1
 92 -105 l 1,0,-1
EndSplineSet
EndChar

StartChar: grave
Encoding: 96 96 69
Width: 844
GlyphClass: 2
Flags: HW
VStem: 181 476
LayerCount: 2
Fore
SplineSet
181 776 m 1,0,-1
 470 901 l 1,1,-1
 657 275 l 1,2,-1
 533 218 l 1,3,-1
 181 776 l 1,0,-1
EndSplineSet
EndChar

StartChar: a
Encoding: 97 97 70
Width: 1244
GlyphClass: 2
Flags: HW
HStem: -24 201<433.81 696.315> 0 21G<881.122 1110> 561 148<427.592 664.754 667.502 819> 574 161<444.629 750.5> 1016 199<365.443 762.544>
VStem: 85 293<232.469 511.833> 819 291<258.469 561 709 960.249>
LayerCount: 2
Fore
SplineSet
160 1094 m 1,0,1
 365.7 1215 365.7 1215 624 1215 c 0,2,3
 898.5 1215 898.5 1215 1009.5 1079 c 0,4,5
 1110 955.864864865 1110 955.864864865 1110 666 c 2,6,-1
 1110 0 l 1,7,-1
 886 0 l 1,8,-1
 846 164 l 1,9,10
 781 65 781 65 696 20.5 c 128,-1,11
 611 -24 611 -24 505 -24 c 128,-1,12
 399 -24 399 -24 323.5 0.5 c 128,-1,13
 248 25 248 25 195 73.5 c 0,14,15
 85 174.160377358 85 174.160377358 85 360 c 0,16,17
 85 531.586206897 85 531.586206897 207 631.5 c 0,18,19
 323.278939716 726.728442009 323.278939716 726.728442009 528 735 c 0,20,21
 551 735 551 735 573.5 735.5 c 128,-1,22
 596 736 596 736 645 733.5 c 0,23,24
 706.975609756 730.337979094 706.975609756 730.337979094 819 709 c 1,25,26
 819 778 819 778 815.5 834.5 c 128,-1,27
 812 891 812 891 792.5 931.5 c 0,28,29
 751.814814815 1016 751.814814815 1016 617 1016 c 0,30,31
 415.8 1016 415.8 1016 239 912 c 1,32,-1
 160 1094 l 1,0,1
569 177 m 0,33,34
 704.06557377 177 704.06557377 177 819 300 c 1,35,-1
 819 561 l 1,36,37
 810 561 810 561 791.5 563.5 c 128,-1,38
 773 566 773 566 750.5 568 c 128,-1,39
 728 570 728 570 705.5 572 c 128,-1,40
 683 574 683 574 639 574 c 128,-1,41
 595 574 595 574 541 565 c 128,-1,42
 487 556 487 556 450.5 533.5 c 0,43,44
 378 488.808219178 378 488.808219178 378 381.404109589 c 128,-1,45
 378 274 378 274 429 225.5 c 128,-1,46
 480 177 480 177 569 177 c 0,33,34
EndSplineSet
EndChar

StartChar: b
Encoding: 98 98 71
Width: 1325
GlyphClass: 2
Flags: HW
HStem: -24 201<565.381 842.169> 0 21G<154 367.667> 1016 199<583.108 861.319> 1692 20G<313.273 446>
VStem: 154 292<252.022 926.015 1067 1668> 953 283<314.125 903.297>
LayerCount: 2
Fore
SplineSet
446 292 m 1,0,1
 561 177 561 177 713 177 c 0,2,3
 953 177 953 177 953 608 c 0,4,5
 953 930.975609756 953 930.975609756 828 995 c 0,6,7
 787 1016 787 1016 732 1016 c 0,8,9
 587.272727273 1016 587.272727273 1016 446 890 c 1,10,-1
 446 292 l 1,0,1
419 174 m 1,11,-1
 361 0 l 1,12,-1
 154 0 l 1,13,-1
 154 1668 l 1,14,-1
 446 1712 l 1,15,-1
 446 1067 l 1,16,17
 515 1142 515 1142 601.5 1178.5 c 128,-1,18
 688 1215 688 1215 783.5 1215 c 128,-1,19
 879 1215 879 1215 961.5 1180 c 128,-1,20
 1044 1145 1044 1145 1102 1077.5 c 0,21,22
 1237.6 919.689655172 1237.6 919.689655172 1237.6 598.52 c 0,23,24
 1237.6 271.429268293 1237.6 271.429268293 1095.5 112 c 0,25,26
 974.282608696 -24 974.282608696 -24 747.172554348 -24 c 128,-1,27
 520.0625 -24 520.0625 -24 419 174 c 1,11,-1
EndSplineSet
EndChar

StartChar: c
Encoding: 99 99 72
Width: 1104
GlyphClass: 2
Flags: HW
HStem: -24 201<523.848 885.85> 1016 199<523.726 883.025>
VStem: 85 294<342.081 849.154>
LayerCount: 2
Fore
SplineSet
1041 91 m 1,0,1
 882.19047619 -24 882.19047619 -24 653 -24 c 0,2,3
 362.304347826 -24 362.304347826 -24 214 165.5 c 0,4,5
 85 330.333333333 85 330.333333333 85 585 c 0,6,7
 85 855.815068493 85 855.815068493 235 1031.5 c 0,8,9
 391.67251462 1215 391.67251462 1215 656 1215 c 0,10,11
 891 1215 891 1215 1041 1105 c 1,12,-1
 978 912 l 1,13,14
 852.105263158 1016 852.105263158 1016 686 1016 c 1,15,16
 445.54283054 1004.5496586 445.54283054 1004.5496586 395.5 769.5 c 0,17,18
 379 692 379 692 379 591 c 0,19,20
 379 385 379 385 459.5 281 c 128,-1,21
 540 177 540 177 692.173913043 177 c 128,-1,22
 844.347826087 177 844.347826087 177 978 283 c 1,23,-1
 1041 91 l 1,0,1
EndSplineSet
EndChar

StartChar: d
Encoding: 100 100 73
Width: 1323
GlyphClass: 2
Flags: HW
HStem: -24 201<485.041 746.786> 0 21G<960.333 1176> 1016 199<470.735 747.075> 1692 20G<1043.27 1176>
VStem: 85 290<314.015 894.552> 884 292<248.647 923.906 1057 1668>
LayerCount: 2
Fore
SplineSet
884 890 m 1,0,1
 727.586206897 1016 727.586206897 1016 597 1016 c 0,2,3
 418.761290323 1016 418.761290323 1016 385.5 770.5 c 0,4,5
 375 693 375 693 375 596 c 0,6,7
 375 177 375 177 619 177 c 0,8,9
 789.627118644 177 789.627118644 177 884 293 c 1,10,-1
 884 890 l 1,0,1
884 1057 m 1,11,-1
 884 1668 l 1,12,-1
 1176 1712 l 1,13,-1
 1176 0 l 1,14,-1
 967 0 l 1,15,-1
 909 174 l 1,16,17
 840.175097276 39.4785992218 840.175097276 39.4785992218 670.5 -9 c 0,18,19
 618 -24 618 -24 547 -24 c 128,-1,20
 476 -24 476 -24 406 0.5 c 128,-1,21
 336 25 336 25 282.5 68.5 c 128,-1,22
 229 112 229 112 191.5 172.5 c 128,-1,23
 154 233 154 233 130.5 305.5 c 0,24,25
 85 445.872340426 85 445.872340426 85 596.936170213 c 128,-1,26
 85 748 85 748 116.5 854.5 c 128,-1,27
 148 961 148 961 207 1041 c 0,28,29
 335.325 1215 335.325 1215 547.242746914 1215 c 128,-1,30
 759.160493827 1215 759.160493827 1215 884 1057 c 1,11,-1
EndSplineSet
EndChar

StartChar: e
Encoding: 101 101 74
Width: 1203
GlyphClass: 2
Flags: HW
HStem: -24 201<521.18 901.777> 537 153<384 877> 1016 199<506.777 780.365>
VStem: 85 299<322.756 537 690 855.63> 877 243<690 911.579>
LayerCount: 2
Fore
SplineSet
384 537 m 1,0,1
 387.93442623 177 387.93442623 177 705.5 177 c 0,2,3
 861 177 861 177 997 281 c 1,4,-1
 1063 84 l 1,5,6
 933.826086957 6.49565217391 933.826086957 6.49565217391 766 -17 c 0,7,8
 716 -24 716 -24 670 -24 c 0,9,10
 396.383116883 -24 396.383116883 -24 239.5 136 c 0,11,12
 85 293.569536424 85 293.569536424 85 568 c 0,13,14
 85 861.057142857 85 861.057142857 227 1034.5 c 0,15,16
 374.777777778 1215 374.777777778 1215 638 1215 c 0,17,18
 868.294964029 1215 868.294964029 1215 996 1069.5 c 0,19,20
 1120 928.221311475 1120 928.221311475 1120 685 c 0,21,22
 1120 609 1120 609 1117 537 c 1,23,-1
 384 537 l 1,0,1
877 704 m 2,24,25
 877 859 877 859 816.5 936.5 c 128,-1,26
 756 1014 756 1014 645 1016 c 1,27,28
 521.668174417 1012.2051746 521.668174417 1012.2051746 452 917.5 c 0,29,30
 389.374720636 832.368760864 389.374720636 832.368760864 383 690 c 1,31,-1
 877 690 l 1,32,-1
 877 704 l 2,24,25
EndSplineSet
EndChar

StartChar: f
Encoding: 102 102 75
Width: 854
GlyphClass: 2
Flags: HW
HStem: 0 21G<219 512> 1053 132<24 219 512 824> 1494 217<558.643 824.247>
VStem: 219 293<0 1053 1185 1448.42>
LayerCount: 2
Fore
SplineSet
820 1453 m 1,0,1
 708.714285714 1494 708.714285714 1494 659.857142857 1494 c 128,-1,2
 611 1494 611 1494 583 1475.5 c 128,-1,3
 555 1457 555 1457 539.5 1419 c 0,4,5
 512 1351.58064516 512 1351.58064516 512 1185 c 1,6,-1
 824 1185 l 1,7,-1
 824 1053 l 1,8,-1
 512 1053 l 1,9,-1
 512 0 l 1,10,-1
 219 0 l 1,11,-1
 219 1053 l 1,12,-1
 24 1053 l 1,13,-1
 24 1185 l 1,14,-1
 219 1185 l 1,15,16
 219 1453 219 1453 310 1582 c 128,-1,17
 401 1711 401 1711 597 1711 c 0,18,19
 730.714285714 1711 730.714285714 1711 845 1661 c 1,20,-1
 820 1453 l 1,0,1
EndSplineSet
EndChar

StartChar: g
Encoding: 103 103 76
Width: 1280
GlyphClass: 2
Flags: HW
HStem: -516 217<379.108 894.361> 1018 197<462.007 796.864 1018.55 1266>
VStem: 98 236<-252.994 -23.5132> 133 234<304.893 407.879> 152 257<679.744 964.775> 845 245<694.39 969.692> 967 254<-234.039 -8.96826>
LayerCount: 2
Fore
SplineSet
488 -294 m 128,-1,1
 532 -299 532 -299 612.5 -299 c 128,-1,2
 693 -299 693 -299 767 -290 c 128,-1,3
 841 -281 841 -281 885.5 -259 c 0,4,5
 967 -218.707865169 967 -218.707865169 967 -110 c 0,6,7
 967 -49 967 -49 939 -16.5 c 128,-1,8
 911 16 911 16 852 32.5 c 128,-1,9
 793 49 793 49 700.5 55 c 128,-1,10
 608 61 608 61 478 69 c 1,11,12
 408.425844347 30.7342143906 408.425844347 30.7342143906 364.5 -45 c 0,13,14
 350 -70 350 -70 341 -100 c 128,-1,15
 332 -130 332 -130 334.5 -166.5 c 128,-1,16
 337 -203 337 -203 357 -231 c 128,-1,17
 377 -259 377 -259 410.5 -274 c 128,-1,0
 444 -289 444 -289 488 -294 c 128,-1,1
663 615 m 1,18,19
 787.162162162 635.693693694 787.162162162 635.693693694 830 748.5 c 0,20,21
 845 788 845 788 845 841 c 0,22,23
 845 937 845 937 792.5 977.5 c 128,-1,24
 740 1018 740 1018 631 1018 c 0,25,26
 465.904109589 1018 465.904109589 1018 424.5 920.5 c 0,27,28
 409 884 409 884 409 837 c 128,-1,29
 409 790 409 790 419 755.5 c 128,-1,30
 429 721 429 721 446.5 691.5 c 0,31,32
 481.26391231 632.897976391 481.26391231 632.897976391 541 602 c 1,33,-1
 663 615 l 1,18,19
910 1148 m 1,34,35
 1014.69206843 1197.59097978 1014.69206843 1197.59097978 1128 1204.5 c 0,36,37
 1169 1207 1169 1207 1222 1207 c 2,38,-1
 1266 1207 l 1,39,-1
 1266 1008 l 1,40,-1
 1018 1008 l 1,41,42
 1090 915.428571429 1090 915.428571429 1090 847.214285714 c 128,-1,43
 1090 779 1090 779 1071 713 c 128,-1,44
 1052 647 1052 647 1006 593 c 0,45,46
 905.337445573 474.830914369 905.337445573 474.830914369 695 449 c 1,47,-1
 367 406 l 1,48,-1
 386 272 l 1,49,-1
 667 260 l 1,50,51
 956.525759242 245.727603418 956.525759242 245.727603418 1085.5 161 c 0,52,53
 1221 71.9854014599 1221 71.9854014599 1221 -117 c 0,54,55
 1221 -426.151260504 1221 -426.151260504 854 -494 c 0,56,57
 735 -516 735 -516 597 -516 c 128,-1,58
 459 -516 459 -516 368 -496 c 128,-1,59
 277 -476 277 -476 217 -433.5 c 0,60,61
 98 -349.208333333 98 -349.208333333 98 -164 c 0,62,63
 98 8.38095238095 98 8.38095238095 303 106 c 1,64,65
 216.392030848 118.084832905 216.392030848 118.084832905 177.5 175 c 0,66,67
 139.034292972 231.291278577 139.034292972 231.291278577 133 356 c 1,68,69
 133 387 133 387 140 415 c 128,-1,70
 147 443 147 443 168 466.5 c 128,-1,71
 189 490 189 490 220.5 506.5 c 0,72,73
 267.88973384 531.323193916 267.88973384 531.323193916 374 556 c 1,74,75
 278.300699301 568.482517483 278.300699301 568.482517483 217 640 c 0,76,77
 152 715.833333333 152 715.833333333 152 817.916666667 c 128,-1,78
 152 920 152 920 184 991.5 c 128,-1,79
 216 1063 216 1063 276 1112.5 c 0,80,81
 400.242424242 1215 400.242424242 1215 606.306926407 1215 c 128,-1,82
 812.371428571 1215 812.371428571 1215 910 1148 c 1,34,35
EndSplineSet
EndChar

StartChar: h
Encoding: 104 104 77
Width: 1350
GlyphClass: 2
Flags: HW
HStem: 0 21G<154 446 922 1214> 1016 199<593.125 849.995> 1694 20G<333.692 446>
VStem: 154 292<0 941.624 1049 1662> 922 292<0 934.645>
LayerCount: 2
Fore
SplineSet
729 1016 m 0,0,1
 560 1016 560 1016 446 902 c 1,2,-1
 446 0 l 1,3,-1
 154 0 l 1,4,-1
 154 1662 l 1,5,-1
 446 1714 l 1,6,-1
 446 1049 l 1,7,8
 522 1138 522 1138 606.5 1176.5 c 128,-1,9
 691 1215 691 1215 802.5 1215 c 128,-1,10
 914 1215 914 1215 994 1177 c 128,-1,11
 1074 1139 1074 1139 1123 1071 c 0,12,13
 1214 944.714285714 1214 944.714285714 1214 696 c 2,14,-1
 1214 0 l 1,15,-1
 922 0 l 1,16,-1
 922 711 l 2,17,18
 922 863 922 863 875.5 939.5 c 128,-1,19
 829 1016 829 1016 729 1016 c 0,0,1
EndSplineSet
EndChar

StartChar: i
Encoding: 105 105 78
Width: 649
GlyphClass: 2
Flags: HW
HStem: 0 21G<179 468> 1165 20G<179 468> 1412 332<212.625 437.658>
VStem: 161 329<1464.78 1691.94> 179 289<0 1185 1445.81 1708.63>
LayerCount: 2
Fore
SplineSet
179 0 m 1,0,-1
 179 1185 l 1,1,-1
 468 1185 l 1,2,-1
 468 0 l 1,3,-1
 179 0 l 1,0,-1
173 1513 m 128,-1,5
 161 1543 161 1543 161 1577.5 c 128,-1,6
 161 1612 161 1612 174 1642.5 c 128,-1,7
 187 1673 187 1673 209 1695.5 c 0,8,9
 256.422222222 1744 256.422222222 1744 325 1744 c 256,10,11
 393 1744 393 1744 441.5 1695.5 c 128,-1,12
 490 1647 490 1647 490 1578 c 128,-1,13
 490 1509 490 1509 440.5 1459.5 c 0,14,15
 393 1412 393 1412 341 1412 c 128,-1,16
 289 1412 289 1412 259 1425 c 128,-1,17
 229 1438 229 1438 207 1460.5 c 128,-1,4
 185 1483 185 1483 173 1513 c 128,-1,5
EndSplineSet
EndChar

StartChar: j
Encoding: 106 106 79
Width: 656
GlyphClass: 2
Flags: HW
HStem: 1165 20G<206 500> 1410 332<240.391 462.781>
VStem: 191 322<1460.21 1691.37> 206 294<-6.23535 1185>
LayerCount: 2
Fore
SplineSet
202.5 1512.5 m 128,-1,1
 191 1543 191 1543 191 1577.5 c 128,-1,2
 191 1612 191 1612 203.5 1642 c 128,-1,3
 216 1672 216 1672 237.5 1694.5 c 0,4,5
 282.888888889 1742 282.888888889 1742 352 1742 c 256,6,7
 420.155555556 1742 420.155555556 1742 466.5 1693.5 c 128,-1,8
 513 1644.8372093 513 1644.8372093 513 1592.41860465 c 128,-1,9
 513 1540 513 1540 500 1509.5 c 128,-1,10
 487 1479 487 1479 465.5 1457 c 0,11,12
 419.568181818 1410 419.568181818 1410 367.784090909 1410 c 128,-1,13
 316 1410 316 1410 286 1423.5 c 128,-1,14
 256 1437 256 1437 235 1459.5 c 128,-1,0
 214 1482 214 1482 202.5 1512.5 c 128,-1,1
2 -173 m 1,15,16
 120.078338022 -100.185024886 120.078338022 -100.185024886 164.5 0 c 0,17,18
 206 93.5957446809 206 93.5957446809 206 274 c 2,19,-1
 206 1185 l 1,20,-1
 500 1185 l 1,21,-1
 500 187 l 2,22,23
 500 -22.1 500 -22.1 382 -175.5 c 0,24,25
 268.355932203 -323.237288136 268.355932203 -323.237288136 89 -364 c 1,26,-1
 2 -173 l 1,15,16
EndSplineSet
EndChar

StartChar: k
Encoding: 107 107 80
Width: 1322
GlyphClass: 2
Flags: HW
HStem: 0 21G<154 446 938.726 1287> 1165 20G<921.29 1267> 1693 20G<316.222 446>
VStem: 154 292<0 436 706 1668> 942 325<860 1185> 954 333<0 333>
DStem2: 446 706 729 660 0.715701 0.698407<170.417 689.525>
LayerCount: 2
Fore
SplineSet
446 0 m 1,0,-1
 154 0 l 1,1,-1
 154 1668 l 1,2,-1
 446 1713 l 1,3,-1
 446 706 l 1,4,-1
 942 1185 l 1,5,-1
 1267 1185 l 1,6,-1
 729 660 l 1,7,-1
 1287 0 l 1,8,-1
 954 0 l 1,9,-1
 550 529 l 1,10,-1
 446 436 l 1,11,-1
 446 0 l 1,0,-1
EndSplineSet
EndChar

StartChar: l
Encoding: 108 108 81
Width: 621
GlyphClass: 2
Flags: HW
HStem: 0 21G<163 457> 1692 20G<323.364 457>
VStem: 163 294<0 1668>
LayerCount: 2
Fore
SplineSet
457 0 m 1,0,-1
 163 0 l 1,1,-1
 163 1668 l 1,2,-1
 457 1712 l 1,3,-1
 457 0 l 1,0,-1
EndSplineSet
EndChar

StartChar: m
Encoding: 109 109 82
Width: 1985
GlyphClass: 2
Flags: HW
HStem: 0 21G<154 446 853 1145 1556 1849> 1009 206<583.864 811.799> 1165 20G<154 369.114>
VStem: 154 292<0 905.642> 853 292<0 917.536> 1556 293<0 944.878>
LayerCount: 2
Fore
SplineSet
697.666666667 1011 m 0,0,1
 573.918032787 1011 573.918032787 1011 446 858 c 1,2,-1
 446 0 l 1,3,-1
 154 0 l 1,4,-1
 154 1185 l 1,5,-1
 363 1185 l 1,6,-1
 422 992 l 1,7,8
 526.592920354 1215 526.592920354 1215 769.873779765 1215 c 128,-1,9
 1013.15463918 1215 1013.15463918 1215 1096 1019 c 1,10,11
 1232.16842105 1215 1232.16842105 1215 1484 1215 c 0,12,13
 1661.4 1215 1661.4 1215 1757 1095.5 c 0,14,15
 1849 980.5 1849 980.5 1849 773 c 2,16,-1
 1849 0 l 1,17,-1
 1556 0 l 1,18,-1
 1556 790 l 2,19,20
 1556 987.259259259 1556 987.259259259 1444 1008 c 1,21,22
 1424.07142857 1013.78571429 1424.07142857 1013.78571429 1406.96428571 1013.78571429 c 128,-1,23
 1389.85714286 1013.78571429 1389.85714286 1013.78571429 1377 1012 c 0,24,25
 1269.9098914 1002.92456707 1269.9098914 1002.92456707 1145 876 c 1,26,-1
 1145 0 l 1,27,-1
 853 0 l 1,28,-1
 853 797 l 2,29,30
 853 891 853 891 829.5 940.5 c 128,-1,31
 806 990 806 990 751 1003 c 1,32,33
 727 1011 727 1011 697.666666667 1011 c 0,0,1
EndSplineSet
EndChar

StartChar: n
Encoding: 110 110 83
Width: 1332
GlyphClass: 2
Flags: HW
HStem: 0 21G<154 446 903 1196> 1016 199<596.306 843.553> 1165 20G<154 380.071>
VStem: 154 292<0 926.495> 903 293<0 951.827>
LayerCount: 2
Fore
SplineSet
425 1017 m 1,0,1
 508.614395887 1155.28534704 508.614395887 1155.28534704 677 1200.5 c 0,2,3
 731 1215 731 1215 813.5 1215 c 128,-1,4
 896 1215 896 1215 973.5 1184.5 c 128,-1,5
 1051 1154 1051 1154 1100.5 1093.5 c 0,6,7
 1196 976.777777778 1196 976.777777778 1196 737 c 2,8,-1
 1196 0 l 1,9,-1
 903 0 l 1,10,-1
 903 752 l 2,11,12
 903 890 903 890 859 953 c 128,-1,13
 815 1016 815 1016 715 1016 c 0,14,15
 599.042553191 1016 599.042553191 1016 490.5 926.5 c 0,16,17
 462 903 462 903 446 881 c 1,18,-1
 446 0 l 1,19,-1
 154 0 l 1,20,-1
 154 1185 l 1,21,-1
 374 1185 l 1,22,-1
 425 1017 l 1,0,1
EndSplineSet
EndChar

StartChar: o
Encoding: 111 111 84
Width: 1299
GlyphClass: 2
Flags: HW
HStem: -31 199<499.505 796.04> 1010 200<500.151 795.568>
VStem: 82 290<318.639 857.805> 922 287<318.436 857.94>
LayerCount: 2
Fore
SplineSet
647 1010 m 256,0,1
 372 1010 372 1010 372 588 c 0,2,3
 372 262.344827586 372 262.344827586 544.5 187 c 0,4,5
 588 168 588 168 647 168 c 0,6,7
 922 168 922 168 922 589 c 128,-1,8
 922 1010 922 1010 647 1010 c 256,0,1
1209 588 m 0,9,10
 1209 456 1209 456 1176.5 343 c 128,-1,11
 1144 230 1144 230 1076 147 c 0,12,13
 930.168674699 -31 930.168674699 -31 646 -31 c 256,14,15
 363.975903614 -31 363.975903614 -31 216 147 c 0,16,17
 82 308.188405797 82 308.188405797 82 587 c 0,18,19
 82 868.130434783 82 868.130434783 217 1031.5 c 0,20,21
 364.502994012 1210 364.502994012 1210 646 1210 c 256,22,23
 928.065868263 1210 928.065868263 1210 1074.5 1031.5 c 0,24,25
 1209 867.547445255 1209 867.547445255 1209 588 c 0,9,10
EndSplineSet
EndChar

StartChar: p
Encoding: 112 112 85
Width: 1332
GlyphClass: 2
Flags: HW
HStem: -446 21G<154 446> -24 201<582.228 851.293> 1016 199<579.415 854.964> 1165 20G<154 381.243>
VStem: 154 292<-437 140 275.456 925.896> 956 291<309.577 884.647>
LayerCount: 2
Fore
SplineSet
838 986.5 m 128,-1,1
 796 1016 796 1016 727 1016 c 128,-1,2
 658 1016 658 1016 581 981 c 128,-1,3
 504 946 504 946 446 886 c 1,4,-1
 446 314 l 1,5,6
 513 251 513 251 588.5 214 c 128,-1,7
 664 177 664 177 720 177 c 128,-1,8
 776 177 776 177 811 194.5 c 128,-1,9
 846 212 846 212 871 242 c 128,-1,10
 896 272 896 272 912.5 311.5 c 128,-1,11
 929 351 929 351 938.5 395.5 c 0,12,13
 956 477.473684211 956 477.473684211 956 579.236842105 c 128,-1,14
 956 681 956 681 944 762.5 c 128,-1,15
 932 844 932 844 906 900.5 c 128,-1,0
 880 957 880 957 838 986.5 c 128,-1,1
965.5 21.5 m 128,-1,17
 874 -24 874 -24 768.5 -24 c 0,18,19
 569 -24 569 -24 446 140 c 1,20,-1
 446 -437 l 1,21,-1
 154 -446 l 1,22,-1
 154 1185 l 1,23,-1
 375 1185 l 1,24,-1
 429 1012 l 1,25,26
 475 1104 475 1104 561 1159.5 c 128,-1,27
 647 1215 647 1215 768 1215 c 0,28,29
 1006 1215 1006 1215 1126.5 1054 c 128,-1,30
 1247 893 1247 893 1247 586 c 0,31,32
 1247 313.24 1247 313.24 1119.5 148 c 0,33,16
 1057 67 1057 67 965.5 21.5 c 128,-1,17
EndSplineSet
EndChar

StartChar: q
Encoding: 113 113 86
Width: 1323
GlyphClass: 2
Flags: HW
HStem: -452 21G<884 1176> -24 201<476.567 741.521> 1016 199<483.091 742.228> 1165 20G<930.114 1176>
VStem: 85 289<302.011 881.42> 884 292<-442 141 270.125 918.805>
LayerCount: 2
Fore
SplineSet
884 870 m 1,0,1
 769.146666667 1016 769.146666667 1016 614 1016 c 0,2,3
 418.258064516 1016 418.258064516 1016 384 750.5 c 0,4,5
 374 673 374 673 374 590 c 128,-1,6
 374 507 374 507 383.5 433 c 128,-1,7
 393 359 393 359 418.5 302 c 0,8,9
 474.421052632 177 474.421052632 177 605 177 c 0,10,11
 708.25 177 708.25 177 823 258 c 0,12,13
 857 282 857 282 884 308 c 1,14,-1
 884 870 l 1,0,1
884 141 m 1,15,16
 745.4 -24 745.4 -24 566 -24 c 0,17,18
 325.663716814 -24 325.663716814 -24 199 159.5 c 0,19,20
 85 324.653846154 85 324.653846154 85 586 c 0,21,22
 85 1042.77297297 85 1042.77297297 350.5 1170.5 c 0,23,24
 443 1215 443 1215 572 1215 c 0,25,26
 782.133333333 1215 782.133333333 1215 892 1009 c 1,27,-1
 935 1185 l 1,28,-1
 1176 1185 l 1,29,-1
 1176 -442 l 1,30,-1
 884 -452 l 1,31,-1
 884 141 l 1,15,16
EndSplineSet
EndChar

StartChar: r
Encoding: 114 114 87
Width: 852
GlyphClass: 2
Flags: HW
HStem: 0 21G<154 446> 956 234<572.286 819>
VStem: 154 292<0 874.267>
LayerCount: 2
Fore
SplineSet
708 956 m 0,0,1
 582.470588235 956 582.470588235 956 446 840 c 1,2,-1
 446 0 l 1,3,-1
 154 0 l 1,4,-1
 154 1185 l 1,5,-1
 397 1185 l 1,6,-1
 433 994 l 1,7,8
 535.447793326 1163.26157158 535.447793326 1163.26157158 679 1183 c 1,9,10
 714 1190 714 1190 748.5 1190 c 128,-1,11
 783 1190 783 1190 819 1188 c 1,12,-1
 819 944 l 1,13,14
 789.857142857 956 789.857142857 956 708 956 c 0,0,1
EndSplineSet
EndChar

StartChar: s
Encoding: 115 115 88
Width: 1070
GlyphClass: 2
Flags: HW
HStem: -24 201<300.005 677.632> 1016 199<396.421 776.073>
VStem: 91 259<805.406 978.76> 721 271<220.781 417.166>
DStem2: 471 769 345 560 0.932829 -0.36032<-143.314 369.68>
LayerCount: 2
Fore
SplineSet
522 177 m 0,0,1
 721 177 721 177 721 332 c 0,2,3
 721 380 721 380 683 412.5 c 128,-1,4
 645 445 645 445 578 470 c 2,5,-1
 345 560 l 1,6,7
 226.478563152 603.305909618 226.478563152 603.305909618 166.5 668.5 c 0,8,9
 91 750.565217391 91 750.565217391 91 886 c 0,10,11
 91 1040.01694915 91 1040.01694915 216 1129 c 0,12,13
 336.80952381 1215 336.80952381 1215 534 1215 c 0,14,15
 726.142857143 1215 726.142857143 1215 910 1132.5 c 0,16,17
 949 1115 949 1115 957 1109 c 1,18,-1
 891 921 l 1,19,20
 828.593360996 967.804979253 828.593360996 967.804979253 651.5 1004.5 c 0,21,22
 596 1016 596 1016 518 1016 c 128,-1,23
 440 1016 440 1016 395 979.5 c 128,-1,24
 350 943 350 943 350 886 c 0,25,26
 350 843.6 350 843.6 372 823.8 c 0,27,28
 404.125786164 794.886792453 404.125786164 794.886792453 471 769 c 1,29,-1
 663 698 l 2,30,31
 829.184303559 636.213528164 829.184303559 636.213528164 905.5 559 c 0,32,33
 992 471.482352941 992 471.482352941 992 345 c 0,34,35
 992 168.495867769 992 168.495867769 864.5 70.5 c 0,36,37
 741.548387097 -24 741.548387097 -24 536 -24 c 0,38,39
 386.675 -24 386.675 -24 237.5 27 c 0,40,41
 133.670157068 62.497382199 133.670157068 62.497382199 97 90 c 1,42,-1
 163 281 l 1,43,44
 191.051094891 259.182481752 191.051094891 259.182481752 271.525547445 231.591240876 c 0,45,46
 430.75 177 430.75 177 522 177 c 0,0,1
EndSplineSet
EndChar

StartChar: t
Encoding: 116 116 89
Width: 919
GlyphClass: 2
Flags: HW
HStem: -24 201<539.049 759.746> 1054 131<16 219 510 845> 1647 20G<431.714 510>
VStem: 219 291<228.575 1054 1185 1532.44> 236 274<1185 1597>
LayerCount: 2
Fore
SplineSet
889 72 m 1,0,1
 738.142857143 -24 738.142857143 -24 553 -24 c 0,2,3
 376.127118644 -24 376.127118644 -24 296.5 92 c 0,4,5
 219 204.901234568 219 204.901234568 219 455 c 2,6,-1
 219 1054 l 1,7,-1
 16 1054 l 1,8,-1
 16 1185 l 1,9,-1
 226 1185 l 1,10,-1
 236 1597 l 1,11,-1
 510 1667 l 1,12,-1
 510 1185 l 1,13,-1
 845 1185 l 1,14,-1
 845 1054 l 1,15,-1
 510 1054 l 1,16,-1
 510 377 l 2,17,18
 510 277 510 277 535.5 227 c 128,-1,19
 561 177 561 177 624.0625 177 c 128,-1,20
 687.125 177 687.125 177 812 251 c 1,21,-1
 889 72 l 1,0,1
EndSplineSet
EndChar

StartChar: u
Encoding: 117 117 90
Width: 1311
GlyphClass: 2
Flags: HW
HStem: 0 21G<459.5 596 942.556 1159> 1165 20G<134 424 866 1159>
VStem: 134 290<270.526 1185> 866 293<257.727 1185>
LayerCount: 2
Fore
SplineSet
567 -24 m 0,0,1
 134 -24 134 -24 134 454 c 2,2,-1
 134 1185 l 1,3,-1
 424 1185 l 1,4,-1
 424 438 l 2,5,6
 424 333 424 333 454 268.5 c 128,-1,7
 484 204 484 204 559 190 c 1,8,9
 583.607142857 183.964285714 583.607142857 183.964285714 611.5 183.964285714 c 128,-1,10
 639.392857143 183.964285714 639.392857143 183.964285714 681.696428571 191.982142857 c 0,11,12
 777.335455138 210.108746035 777.335455138 210.108746035 866 297 c 1,13,-1
 866 1185 l 1,14,-1
 1159 1185 l 1,15,-1
 1159 0 l 1,16,-1
 949 0 l 1,17,-1
 891 180 l 1,18,19
 827 36 827 36 675.5 -9 c 0,20,21
 625 -24 625 -24 567 -24 c 0,0,1
EndSplineSet
EndChar

StartChar: v
Encoding: 118 118 91
Width: 1178
GlyphClass: 2
Flags: HW
HStem: 0 21G<414.232 763.802> 1165 20G<20 328.832 848.276 1160>
VStem: 20 303<882 1185> 854 306<879 1185>
LayerCount: 2
Fore
SplineSet
421 0 m 1,0,-1
 20 1185 l 1,1,-1
 323 1185 l 1,2,-1
 591 266 l 1,3,-1
 854 1185 l 1,4,-1
 1160 1185 l 1,5,-1
 757 0 l 1,6,-1
 421 0 l 1,0,-1
EndSplineSet
EndChar

StartChar: w
Encoding: 119 119 92
Width: 1634
GlyphClass: 2
Flags: HW
HStem: 0 21G<327.717 623.702 1010.25 1308.28> 1165 20G<20 299.105 678.587 958.325 1340.74 1616>
VStem: 1345 271<914 1185>
DStem2: 482 274 619 0 0.215455 0.976514<0 622.716> 954 1185 816 838 0.21136 -0.977408<309.993 932.057>
LayerCount: 2
Fore
SplineSet
816 838 m 1,0,-1
 619 0 l 1,1,-1
 333 0 l 1,2,-1
 20 1185 l 1,3,-1
 295 1185 l 1,4,-1
 482 274 l 1,5,-1
 683 1185 l 1,6,-1
 954 1185 l 1,7,-1
 1151 274 l 1,8,-1
 1345 1185 l 1,9,-1
 1616 1185 l 1,10,-1
 1303 0 l 1,11,-1
 1015 0 l 1,12,-1
 816 838 l 1,0,-1
EndSplineSet
EndChar

StartChar: x
Encoding: 120 120 93
Width: 1179
GlyphClass: 2
Flags: HW
HStem: 0 21G<39 373.436 811.614 1141> 1165 20G<32 373.877 812.123 1148>
LayerCount: 2
Fore
SplineSet
362 0 m 1,0,-1
 39 0 l 1,1,-1
 446 595 l 1,2,-1
 32 1185 l 1,3,-1
 362 1185 l 1,4,-1
 593 796 l 1,5,-1
 824 1185 l 1,6,-1
 1148 1185 l 1,7,-1
 741 595 l 1,8,-1
 1141 0 l 1,9,-1
 823 0 l 1,10,-1
 593 404 l 1,11,-1
 362 0 l 1,0,-1
EndSplineSet
EndChar

StartChar: y
Encoding: 121 121 94
Width: 1181
GlyphClass: 2
Flags: HW
HStem: -473 197<226 318.07> 1165 20G<20 322.307 860.403 1163>
LayerCount: 2
Fore
SplineSet
20 1185 m 1,0,-1
 315 1185 l 1,1,-1
 627 331 l 1,2,-1
 866 1185 l 1,3,-1
 1163 1185 l 1,4,-1
 744 -35 l 2,5,6
 661.682515912 -272.806065144 661.682515912 -272.806065144 508.5 -383.5 c 0,7,8
 384.646464646 -473 384.646464646 -473 226 -473 c 1,9,-1
 145 -276 l 1,10,11
 307.825396825 -255.898099157 307.825396825 -255.898099157 381.5 -189.5 c 0,12,13
 454.531817233 -123.681201753 454.531817233 -123.681201753 499 36 c 1,14,-1
 20 1185 l 1,0,-1
EndSplineSet
EndChar

StartChar: z
Encoding: 122 122 95
Width: 1061
GlyphClass: 2
Flags: HW
HStem: 0 199<407 962> 986 199<120 664>
DStem2: 101 210 407 199 0.587241 0.809412<170.792 958.721>
LayerCount: 2
Fore
SplineSet
120 986 m 1,0,-1
 120 1185 l 1,1,-1
 955 1185 l 1,2,-1
 955 977 l 1,3,-1
 407 199 l 1,4,-1
 962 199 l 1,5,-1
 962 0 l 1,6,-1
 101 0 l 1,7,-1
 101 210 l 1,8,-1
 664 986 l 1,9,-1
 120 986 l 1,0,-1
EndSplineSet
EndChar

StartChar: braceleft
Encoding: 123 123 96
Width: 856
GlyphClass: 2
Flags: HW
HStem: -213 184<610.191 725> 568 192<127 228.223> 1357 185<610.191 725>
VStem: 127 598
DStem2: 549.5 428 283 324 0.10537 -0.994433<-143.497 447.867>
LayerCount: 2
Fore
SplineSet
573.5 1215 m 128,-1,1
 562 1153 562 1153 561.5 1050 c 128,-1,2
 561 947 561 947 545 880.5 c 128,-1,3
 529 814 529 814 501 770.5 c 0,4,5
 451.105806452 692.985806452 451.105806452 692.985806452 353 664 c 1,6,7
 513.06867284 611.613888889 513.06867284 611.613888889 549.5 428 c 0,8,9
 562 365 562 365 562.5 271 c 128,-1,10
 563 177 563 177 574 115 c 128,-1,11
 585 53 585 53 605.5 21 c 128,-1,12
 626 -11 626 -11 656 -20 c 128,-1,13
 686 -29 686 -29 725 -29 c 1,14,-1
 725 -213 l 1,15,16
 447.135135135 -213 447.135135135 -213 347.5 -11 c 0,17,18
 311 63 311 63 302.5 137 c 128,-1,19
 294 211 294 211 290.5 248.5 c 128,-1,20
 287 286 287 286 282.5 340 c 128,-1,21
 278 394 278 394 266 440.5 c 128,-1,22
 254 487 254 487 234.5 515.5 c 0,23,24
 198.578947368 568 198.578947368 568 127 568 c 1,25,-1
 127 760 l 1,26,27
 233.063829787 760 233.063829787 760 266 889 c 0,28,29
 278 936 278 936 282 989.5 c 128,-1,30
 286 1043 286 1043 290 1080 c 128,-1,31
 294 1117 294 1117 302 1190.5 c 128,-1,32
 310 1264 310 1264 347 1338 c 128,-1,33
 384 1412 384 1412 440 1457.5 c 0,34,35
 544 1542 544 1542 725 1542 c 1,36,-1
 725 1357 l 1,37,38
 687 1357 687 1357 657 1348.5 c 128,-1,39
 627 1340 627 1340 606 1308.5 c 128,-1,0
 585 1277 585 1277 573.5 1215 c 128,-1,1
EndSplineSet
EndChar

StartChar: bar
Encoding: 124 124 97
Width: 752
GlyphClass: 2
Flags: HW
HStem: 1689 20G<246 507>
VStem: 246 261<-135 1709>
LayerCount: 2
Fore
SplineSet
246 1709 m 1,0,-1
 507 1709 l 1,1,-1
 507 -135 l 1,2,-1
 246 -135 l 1,3,-1
 246 1709 l 1,0,-1
EndSplineSet
EndChar

StartChar: braceright
Encoding: 125 125 98
Width: 858
GlyphClass: 2
Flags: HW
HStem: -213 184<149 264.067> 569 192<645.41 746> 1358 185<149 263.809>
VStem: 149 597
LayerCount: 2
Fore
SplineSet
311.5 1034.5 m 0,0,1
 311 1119 311 1119 305.5 1170.5 c 128,-1,2
 300 1222 300 1222 290 1256.5 c 128,-1,3
 280 1291 280 1291 266 1311.5 c 128,-1,4
 252 1332 252 1332 234 1342 c 0,5,6
 205.2 1358 205.2 1358 149 1358 c 1,7,-1
 149 1543 l 1,8,9
 532.394495413 1543 532.394495413 1543 575 1156 c 0,10,11
 580 1119 580 1119 583.5 1081.5 c 128,-1,12
 587 1044 587 1044 591.5 990.5 c 128,-1,13
 596 937 596 937 607.5 890 c 128,-1,14
 619 843 619 843 638.5 814.5 c 0,15,16
 675.105263158 761 675.105263158 761 746 761 c 1,17,-1
 746 569 l 1,18,19
 675.421052632 569 675.421052632 569 639.5 516.5 c 0,20,21
 599.657107232 458.2680798 599.657107232 458.2680798 590 325 c 0,22,23
 587 287 587 287 583 250 c 128,-1,24
 579 213 579 213 571 139.5 c 128,-1,25
 563 66 563 66 526.5 -8 c 128,-1,26
 490 -82 490 -82 434.5 -127.5 c 0,27,28
 330.208791209 -213 330.208791209 -213 149 -213 c 1,29,-1
 149 -29 l 1,30,31
 207 -29 207 -29 229.5 -15.5 c 128,-1,32
 252 -2 252 -2 266 18 c 128,-1,33
 280 38 280 38 290 73 c 0,34,35
 309.021582734 139.575539568 309.021582734 139.575539568 310.510791367 293.287769784 c 128,-1,36
 312 447 312 447 361.5 538.5 c 128,-1,37
 411 630 411 630 521 665 c 1,38,39
 419.013071895 695.379084967 419.013071895 695.379084967 370.5 773 c 0,40,41
 312.498207885 865.802867384 312.498207885 865.802867384 311.5 1034.5 c 0,0,1
EndSplineSet
EndChar

StartChar: asciitilde
Encoding: 126 126 99
Width: 1106
GlyphClass: 2
Flags: HW
HStem: 286 193<611.181 790.123> 427 190<350.563 510.121>
VStem: 146 192<304 399.146> 798 199<508.396 587>
DStem2: 568.5 548 484 396.5 0.880349 -0.474326<-89.6228 182.523>
LayerCount: 2
Fore
SplineSet
146 304 m 1,0,1
 146 617 146 617 371 617 c 0,2,3
 450.403846154 617 450.403846154 617 568.5 548 c 0,4,5
 613 522 613 522 655 500.5 c 128,-1,6
 697 479 697 479 737.5 479 c 128,-1,7
 778 479 778 479 788 507.5 c 128,-1,8
 798 536 798 536 798 587 c 1,9,-1
 997 587 l 1,10,11
 997 376.120481928 997 376.120481928 868.5 308 c 0,12,13
 827 286 827 286 778 286 c 0,14,15
 691.428571429 286 691.428571429 286 600 334 c 0,16,17
 568 350 568 350 538.5 366.5 c 128,-1,18
 509 383 509 383 484 396.5 c 0,19,20
 427.518518519 427 427.518518519 427 397.259259259 427 c 128,-1,21
 367 427 367 427 352.5 400 c 128,-1,22
 338 373 338 373 338 304 c 1,23,-1
 146 304 l 1,0,1
EndSplineSet
EndChar

StartChar: exclamdown
Encoding: 161 161 101
Width: 806
GlyphClass: 2
Flags: HW
HStem: -1 21G<249 578> 1264 320<302.292 538.288>
VStem: 260 318<1301.65 1544.28> 318 194<895.014 1130>
LayerCount: 2
Fore
SplineSet
578 -1 m 1,0,-1
 249 -1 l 1,1,-1
 318 1130 l 1,2,-1
 512 1130 l 1,3,-1
 578 -1 l 1,0,-1
578 1415 m 0,4,5
 578 1264 578 1264 427 1264 c 0,6,7
 352.5 1264 352.5 1264 293 1298 c 1,8,9
 260 1349.5625 260 1349.5625 260 1428.28125 c 0,10,11
 260 1584 260 1584 427 1584 c 0,12,13
 578 1584 578 1584 578 1415 c 0,4,5
EndSplineSet
EndChar

StartChar: cent
Encoding: 162 162 102
Width: 1133
GlyphClass: 2
Flags: HW
HStem: -17 215<527.375 630 771 938.713> 997 211<523.625 630 771 926.491>
VStem: 105 294<345.402 852.759> 630 141<-154 -13.4316 198 996 1204.02 1382>
LayerCount: 2
Fore
SplineSet
630 997 m 1,0,1
 399 956.826086957 399 956.826086957 399 594 c 0,2,3
 399 244.983050847 399 244.983050847 630 198 c 1,4,-1
 630 997 l 1,0,1
1056 81 m 1,5,6
 887.333333333 -11 887.333333333 -11 771 -11 c 1,7,-1
 771 -154 l 1,8,-1
 630 -154 l 1,9,-1
 630 -17 l 1,10,11
 393.426571795 -4.76344336872 393.426571795 -4.76344336872 251.5 153.5 c 0,12,13
 105 316.863309353 105 316.863309353 105 594 c 256,14,15
 105 867.338028169 105 867.338028169 258 1036.5 c 0,16,17
 401.859544402 1195.55597515 401.859544402 1195.55597515 630 1208 c 1,18,-1
 630 1382 l 1,19,-1
 771 1382 l 1,20,-1
 771 1202 l 1,21,22
 920.613992762 1184.95536791 920.613992762 1184.95536791 1061 1102 c 1,23,-1
 998 910 l 1,24,25
 911.45709282 979.715119673 911.45709282 979.715119673 771 996 c 1,26,-1
 771 192 l 1,27,28
 851.227488152 194.507109005 851.227488152 194.507109005 997 273 c 1,29,-1
 1056 81 l 1,5,6
EndSplineSet
EndChar

StartChar: sterling
Encoding: 163 163 103
Width: 1195
GlyphClass: 2
Flags: HW
HStem: 0 199<447 1058> 595 133<188 320 584 994> 1128 218<531.499 899.75>
VStem: 205 272<817.097 1076.11> 345 239<375.288 595>
LayerCount: 2
Fore
SplineSet
697 1128 m 0,0,1
 477 1128 477 1128 477 953 c 0,2,3
 477 846.153846154 477 846.153846154 573 728 c 1,4,-1
 994 728 l 1,5,-1
 994 595 l 1,6,-1
 584 595 l 1,7,8
 584 405.911111111 584 405.911111111 479.5 248 c 0,9,10
 457 214 457 214 447 199 c 1,11,-1
 1058 199 l 1,12,-1
 1058 0 l 1,13,-1
 201 0 l 1,14,-1
 201 193 l 1,15,16
 285.069108092 290.343177791 285.069108092 290.343177791 329.5 469.5 c 0,17,18
 345 532 345 532 345 595 c 1,19,-1
 188 595 l 1,20,-1
 188 724 l 1,21,-1
 320 724 l 1,22,23
 251.662650602 786.642570281 251.662650602 786.642570281 218.5 893.5 c 0,24,25
 205 937 205 937 205 1005.5 c 128,-1,26
 205 1074 205 1074 237.5 1140.5 c 128,-1,27
 270 1207 270 1207 331.5 1253 c 0,28,29
 455.836956522 1346 455.836956522 1346 678 1346 c 0,30,31
 902.0625 1346 902.0625 1346 1088 1227 c 1,32,-1
 991 1035 l 1,33,34
 839.875 1128 839.875 1128 697 1128 c 0,0,1
EndSplineSet
EndChar

StartChar: currency
Encoding: 164 164 104
Width: 1409
GlyphClass: 2
Flags: HW
HStem: 557 165<556.868 847.595> 1278 167<571.786 863.382>
VStem: 266 166<847.446 1138.6> 988 166<862.241 1153.64>
DStem2: 271 1567 142 1438 0.707107 -0.707107<0 295.912 1125.34 1433.31> 142 554 271 424 0.707107 0.707107<0 286.888 1149.25 1433.31>
LayerCount: 2
Fore
SplineSet
944 636 m 1,0,1
 827 557 827 557 699 557 c 128,-1,2
 571 557 571 557 469 621 c 1,3,-1
 271 424 l 1,4,-1
 142 554 l 1,5,-1
 337 749 l 1,6,7
 266 858 266 858 266 988.5 c 128,-1,8
 266 1119 266 1119 344 1236 c 1,9,-1
 142 1438 l 1,10,-1
 271 1567 l 1,11,-1
 474 1365 l 1,12,13
 590 1445 590 1445 722 1445 c 128,-1,14
 854 1445 854 1445 962 1375 c 1,15,-1
 1156 1567 l 1,16,-1
 1285 1438 l 1,17,-1
 1090 1243 l 1,18,19
 1154 1142 1154 1142 1154 1011.5 c 128,-1,20
 1154 881 1154 881 1074 765 c 1,21,-1
 1285 554 l 1,22,-1
 1156 424 l 1,23,-1
 944 636 l 1,0,1
717.5 1278 m 0,24,25
 662 1278 662 1278 610.5 1254.5 c 128,-1,26
 559 1231 559 1231 519 1191.5 c 0,27,28
 432 1105.5875 432 1105.5875 432 992 c 256,29,30
 432 880.8 432 880.8 514.5 800.5 c 0,31,32
 595.150684932 722 595.150684932 722 706 722 c 0,33,34
 815.607594937 722 815.607594937 722 902 809.5 c 0,35,36
 988 896.602564103 988 896.602564103 988 1008 c 0,37,38
 988 1117 988 1117 907 1198 c 0,39,40
 827 1278 827 1278 717.5 1278 c 0,24,25
EndSplineSet
EndChar

StartChar: yen
Encoding: 165 165 105
Width: 1300
GlyphClass: 2
Flags: HW
HStem: 0 816<104 1210> 404 114<190 510 804 1121> 636 116<190 421 891 1121> 1586 20G<-9 310.937 999.063 1324>
VStem: 512 290<0 404>
LayerCount: 2
Fore
SplineSet
1008 1606 m 1,0,-1
 1324 1606 l 1,1,-1
 891 752 l 1,2,-1
 1121 752 l 1,3,-1
 1121 636 l 1,4,-1
 842 636 l 1,5,-1
 804 518 l 1,6,-1
 1121 518 l 1,7,-1
 1121 404 l 1,8,-1
 802 404 l 1,9,-1
 802 0 l 1,10,-1
 512 0 l 1,11,-1
 512 404 l 1,12,-1
 190 404 l 1,13,-1
 190 518 l 1,14,-1
 510 518 l 1,15,-1
 473 636 l 1,16,-1
 190 636 l 1,17,-1
 190 752 l 1,18,-1
 421 752 l 1,19,-1
 -9 1606 l 1,20,-1
 302 1606 l 1,21,-1
 655 816 l 1,22,-1
 1008 1606 l 1,0,-1
EndSplineSet
EndChar

StartChar: brokenbar
Encoding: 166 166 106
Width: 722
GlyphClass: 2
Flags: HW
VStem: 239 266<-91 646 925 1662>
LayerCount: 2
Fore
SplineSet
239 1662 m 1,0,-1
 505 1662 l 1,1,-1
 505 925 l 1,2,-1
 239 925 l 1,3,-1
 239 1662 l 1,0,-1
239 646 m 1,4,-1
 505 646 l 1,5,-1
 505 -91 l 1,6,-1
 239 -91 l 1,7,-1
 239 646 l 1,4,-1
EndSplineSet
EndChar

StartChar: section
Encoding: 167 167 107
Width: 1171
GlyphClass: 2
Flags: HW
HStem: -107 206<379.792 736.319> 1397 206<401.897 769.465>
VStem: 157 219<673.848 855.115 1213.72 1367.2> 789 234<143.696 344.158 670.93 858.403>
LayerCount: 2
Fore
SplineSet
796 762 m 0,0,1
 796 829 796 829 745 859 c 128,-1,2
 694 889 694 889 609 889 c 128,-1,3
 524 889 524 889 484 880 c 128,-1,4
 444 871 444 871 420 855 c 0,5,6
 376 825.666666667 376 825.666666667 376 763.333333333 c 0,7,8
 376 640 376 640 586 640 c 128,-1,9
 796 640 796 640 796 762 c 0,0,1
554 99 m 0,10,11
 789 99 789 99 789 243 c 0,12,13
 789 307.414634146 789 307.414634146 748.5 341 c 0,14,15
 718.1 366.209756098 718.1 366.209756098 625 398 c 2,16,-1
 463 454 l 1,17,18
 294.605969401 510.807624781 294.605969401 510.807624781 227 577.5 c 0,19,20
 157 646.554054054 157 646.554054054 157 775 c 0,21,22
 157 909.80952381 157 909.80952381 272 981 c 0,23,24
 314 1007 314 1007 376 1019 c 1,25,26
 201.97873671 1079.90744215 201.97873671 1079.90744215 168.5 1208 c 0,27,28
 157 1252 157 1252 157 1309.5 c 128,-1,29
 157 1367 157 1367 185 1421 c 128,-1,30
 213 1475 213 1475 266 1515.5 c 0,31,32
 380.50617284 1603 380.50617284 1603 574 1603 c 0,33,34
 757.72 1603 757.72 1603 953.5 1477.5 c 0,35,36
 973 1465 973 1465 978 1460 c 1,37,-1
 898 1281 l 1,38,39
 815.214849921 1344.68088468 815.214849921 1344.68088468 683.5 1382.5 c 0,40,41
 633 1397 633 1397 574.5 1397 c 128,-1,42
 516 1397 516 1397 476 1388 c 128,-1,43
 436 1379 436 1379 414.5 1363 c 0,44,45
 378 1335.8372093 378 1335.8372093 378 1282 c 0,46,47
 378 1222.29411765 378 1222.29411765 486 1181 c 1,48,49
 526 1164 526 1164 573 1148 c 128,-1,50
 620 1132 620 1132 698 1104 c 128,-1,51
 776 1076 776 1076 842.5 1039 c 128,-1,52
 909 1002 909 1002 949 960 c 0,53,54
 1021 884.4 1021 884.4 1021 761 c 0,55,56
 1021 617.666666667 1021 617.666666667 891 551 c 0,57,58
 852 531 852 531 808 521 c 1,59,60
 1023 437.774193548 1023 437.774193548 1023 216 c 0,61,62
 1023 50.816 1023 50.816 884.5 -34.5 c 0,63,64
 766.805194805 -107 766.805194805 -107 578 -107 c 0,65,66
 449.8 -107 449.8 -107 299 -42 c 0,67,68
 197.914285714 1.57142857143 197.914285714 1.57142857143 159 34 c 1,69,-1
 243 223 l 1,70,71
 274.408163265 191.591836735 274.408163265 191.591836735 344.204081633 159.795918367 c 0,72,73
 477.658536585 99 477.658536585 99 554 99 c 0,10,11
EndSplineSet
EndChar

StartChar: dieresis
Encoding: 168 168 108
Width: 1151
GlyphClass: 2
Flags: HW
HStem: 261 306<147.733 400.228 757.454 1009.25>
VStem: 109 330<299.344 528.656> 719 330<300.064 527.936>
LayerCount: 2
Fore
SplineSet
109 414 m 256,0,1
 109 483.431818182 109 483.431818182 156 531.5 c 0,2,3
 203.422222222 580 203.422222222 580 273 580 c 256,4,5
 343 580 343 580 391.5 531.5 c 0,6,7
 439 484 439 484 439 414 c 128,-1,8
 439 344 439 344 391.5 296.5 c 0,9,10
 343 248 343 248 273 248 c 0,11,12
 202.422222222 248 202.422222222 248 155 296.5 c 0,13,14
 109 343.545454545 109 343.545454545 109 414 c 256,0,1
719 414 m 256,15,16
 719 483.431818182 719 483.431818182 766 531.5 c 0,17,18
 813.422222222 580 813.422222222 580 883 580 c 256,19,20
 952 580 952 580 1000.5 531.5 c 128,-1,21
 1049 483 1049 483 1049 414 c 128,-1,22
 1049 345 1049 345 1000.5 296.5 c 128,-1,23
 952 248 952 248 883 248 c 0,24,25
 810.844444444 248 810.844444444 248 764.5 296.5 c 0,26,27
 719 344.11627907 719 344.11627907 719 414 c 256,15,16
EndSplineSet
EndChar

StartChar: copyright
Encoding: 169 169 109
Width: 2126
GlyphClass: 2
Flags: HW
HStem: -91 194<796.929 1319.02> 301 180<913.229 1295.73> 1152 181<917.343 1307.2> 1532 195<828.207 1307.48>
VStem: 149 218<545.328 1070.95> 597 211<592.913 1036.05> 1769 217<555.97 1070.71>
LayerCount: 2
Fore
SplineSet
1056 103 m 256,0,1
 1369.87564767 103 1369.87564767 103 1572 310.5 c 0,2,3
 1769 512.739361702 1769 512.739361702 1769 815 c 0,4,5
 1769 1133.79259259 1769 1133.79259259 1544.5 1340 c 0,6,7
 1335.46774194 1532 1335.46774194 1532 1068 1532 c 0,8,9
 797.483870968 1532 797.483870968 1532 590 1340 c 0,10,11
 451.386932 1211.73119081 451.386932 1211.73119081 395.5 1022.5 c 0,12,13
 367 926 367 926 367 796.5 c 128,-1,14
 367 667 367 667 414.5 537 c 128,-1,15
 462 407 462 407 551.5 310.5 c 0,16,17
 743.948186528 103 743.948186528 103 1056 103 c 256,0,1
1388 1071 m 1,18,19
 1227.92857143 1152 1227.92857143 1152 1087 1152 c 0,20,21
 868.10483871 1152 868.10483871 1152 822.5 957 c 0,22,23
 808 895 808 895 808 807.5 c 128,-1,24
 808 720 808 720 827 655.5 c 128,-1,25
 846 591 846 591 882.5 552 c 0,26,27
 948.948717949 481 948.948717949 481 1081.97435897 481 c 128,-1,28
 1215 481 1215 481 1393 570 c 1,29,-1
 1393 385 l 1,30,31
 1226.90909091 301 1226.90909091 301 1115.95454545 301 c 128,-1,32
 1005 301 1005 301 928.5 322 c 128,-1,33
 852 343 852 343 795.5 380 c 128,-1,34
 739 417 739 417 701 467 c 128,-1,35
 663 517 663 517 640 575 c 0,36,37
 597 683.434782609 597 683.434782609 597 807.217391304 c 128,-1,38
 597 931 597 931 626 1024 c 128,-1,39
 655 1117 655 1117 716 1185.5 c 0,40,41
 847.350364964 1333 847.350364964 1333 1095 1333 c 0,42,43
 1235.52941176 1333 1235.52941176 1333 1388 1252 c 1,44,-1
 1388 1071 l 1,18,19
1061.5 -91 m 0,45,46
 940 -91 940 -91 825.5 -61.5 c 128,-1,47
 711 -32 711 -32 609.5 23 c 128,-1,48
 508 78 508 78 423.5 158 c 128,-1,49
 339 238 339 238 278 339 c 0,50,51
 149 552.590163934 149 552.590163934 149 818 c 256,52,53
 149 1082.264 149 1082.264 282.5 1298 c 0,54,55
 405.517506311 1496.7962902 405.517506311 1496.7962902 620 1613.5 c 0,56,57
 828.594594595 1727 828.594594595 1727 1068 1727 c 0,58,59
 1300.58181818 1727 1300.58181818 1727 1512 1613 c 128,-1,60
 1723.54196343 1498.93325501 1723.54196343 1498.93325501 1850.5 1297 c 0,61,62
 1986 1081.48031496 1986 1081.48031496 1986 818 c 0,63,64
 1986 553.504 1986 553.504 1854.5 341 c 0,65,66
 1728.57389047 137.503407001 1728.57389047 137.503407001 1517 23.5 c 0,67,68
 1304.5045045 -91 1304.5045045 -91 1061.5 -91 c 0,45,46
EndSplineSet
EndChar

StartChar: ordfeminine
Encoding: 170 170 110
Width: 1246
GlyphClass: 2
Flags: HW
HStem: 446 129<270 954> 668 113<407.339 701.412> 1158 100<435.062 797.408> 1513 125<375.453 752.234>
VStem: 206 161<821.783 1093.22> 799 161<855.555 1147.53 1218 1465.58> 844 116<686 761.397>
LayerCount: 2
Fore
SplineSet
817 828 m 2,0,1
 816 828 816 828 801 803 c 128,-1,2
 786 778 786 778 752 748 c 0,3,4
 661.333333333 668 661.333333333 668 523 668 c 0,5,6
 295.614678899 668 295.614678899 668 228 835.5 c 0,7,8
 206 890 206 890 206 961 c 128,-1,9
 206 1032 206 1032 232 1087.5 c 128,-1,10
 258 1143 258 1143 305.5 1181 c 0,11,12
 401.75 1258 401.75 1258 565 1258 c 0,13,14
 680.307692308 1258 680.307692308 1258 776.5 1227.5 c 0,15,16
 797 1221 797 1221 799 1218 c 1,17,-1
 799 1276 l 2,18,19
 799 1403.97560976 799 1403.97560976 772 1443.48780488 c 128,-1,20
 745 1483 745 1483 707.5 1498 c 128,-1,21
 670 1513 670 1513 609 1513 c 128,-1,22
 548 1513 548 1513 495.5 1502 c 128,-1,23
 443 1491 443 1491 403.5 1478 c 128,-1,24
 364 1465 364 1465 340.5 1454 c 128,-1,25
 317 1443 317 1443 316 1443 c 2,26,-1
 263 1552 l 2,27,28
 264 1552 264 1552 290 1565.5 c 128,-1,29
 316 1579 316 1579 361 1595 c 0,30,31
 481.9375 1638 481.9375 1638 591.46875 1638 c 128,-1,32
 701 1638 701 1638 770 1616 c 128,-1,33
 839 1594 839 1594 881.5 1545.5 c 0,34,35
 960 1455.91764706 960 1455.91764706 960 1235 c 2,36,-1
 960 686 l 1,37,-1
 844 686 l 1,38,-1
 817 828 l 2,0,1
799 1141 m 1,39,40
 690.625 1158 690.625 1158 623 1158 c 0,41,42
 367 1158 367 1158 367 971 c 0,43,44
 367 866 367 866 409.5 823.5 c 128,-1,45
 452 781 452 781 561 781 c 256,46,47
 653.022222222 781 653.022222222 781 735 840.5 c 0,48,49
 766 863 766 863 782.5 882 c 128,-1,50
 799 901 799 901 799 903 c 2,51,-1
 799 1141 l 1,39,40
270 575 m 1,52,-1
 954 575 l 1,53,-1
 954 446 l 1,54,-1
 270 446 l 1,55,-1
 270 575 l 1,52,-1
EndSplineSet
EndChar

StartChar: guillemotleft
Encoding: 171 171 111
Width: 1754
GlyphClass: 2
Flags: HW
HStem: 8 291<571 862 1311 1602> 870 291<571 862 1311 1602>
DStem2: 121 697 396 588 0.847548 0.530718<175.227 719.848> 396 588 121 473 0.847034 -0.531539<0 548.333> 861 697 1135 588 0.847548 0.530718<174.38 719.848> 1135 588 861 473 0.847034 -0.531539<0 549.18>
LayerCount: 2
Fore
SplineSet
1135 588 m 1,0,-1
 1602 299 l 1,1,-1
 1602 8 l 1,2,-1
 861 473 l 1,3,-1
 861 697 l 1,4,-1
 1602 1161 l 1,5,-1
 1602 870 l 1,6,-1
 1135 588 l 1,0,-1
396 588 m 1,7,-1
 862 299 l 1,8,-1
 862 8 l 1,9,-1
 121 473 l 1,10,-1
 121 697 l 1,11,-1
 862 1161 l 1,12,-1
 862 870 l 1,13,-1
 396 588 l 1,7,-1
EndSplineSet
EndChar

StartChar: logicalnot
Encoding: 172 172 112
Width: 1388
GlyphClass: 2
Flags: HW
HStem: 768 222<77 1045>
VStem: 1045 189<277 768>
LayerCount: 2
Fore
SplineSet
77 768 m 1,0,-1
 77 990 l 1,1,-1
 1234 990 l 1,2,-1
 1234 277 l 1,3,-1
 1045 277 l 1,4,-1
 1045 768 l 1,5,-1
 77 768 l 1,0,-1
EndSplineSet
EndChar

StartChar: uni00AD
Encoding: 173 173 113
Width: 1038
GlyphClass: 2
Flags: HW
HStem: 558 214<158 836>
VStem: 158 678<558 772>
LayerCount: 2
Fore
SplineSet
158 558 m 1,0,-1
 158 772 l 1,1,-1
 836 772 l 1,2,-1
 836 558 l 1,3,-1
 158 558 l 1,0,-1
EndSplineSet
EndChar

StartChar: registered
Encoding: 174 174 114
Width: 1378
GlyphClass: 2
Flags: HW
HStem: 573 123<480.644 918.671> 1145 102<627 662> 1426 101<627 813.911> 1696 126<482.435 918.899>
VStem: 50 145<980.087 1408.48> 500 124<873 1145 1247 1426> 1209 146<983.623 1407.57>
LayerCount: 2
Fore
SplineSet
50 1216 m 0,0,1
 50 1323 50 1323 98.5 1436.5 c 128,-1,2
 147 1550 147 1550 234 1635.5 c 0,3,4
 423.771929825 1822 423.771929825 1822 702 1822 c 0,5,6
 973.857142857 1822 973.857142857 1822 1163.5 1642 c 0,7,8
 1355 1460.23728814 1355 1460.23728814 1355 1197 c 0,9,10
 1355 1069 1355 1069 1305.5 955.5 c 128,-1,11
 1256 842 1256 842 1168.5 757 c 0,12,13
 979.088235294 573 979.088235294 573 702 573 c 0,14,15
 426.486725664 573 426.486725664 573 238 753.5 c 0,16,17
 50 933.533898305 50 933.533898305 50 1216 c 0,0,1
701 696 m 256,18,19
 921 696 921 696 1066.5 841.5 c 0,20,21
 1209 984 1209 984 1209 1195 c 0,22,23
 1209 1409.56296296 1209 1409.56296296 1065.5 1552 c 0,24,25
 920.425373134 1696 920.425373134 1696 701 1696 c 256,26,27
 480.42962963 1696 480.42962963 1696 337 1551.5 c 0,28,29
 195 1408.44029851 195 1408.44029851 195 1194 c 256,30,31
 195 980 195 980 336 839 c 0,32,33
 479 696 479 696 701 696 c 256,18,19
737 1285 m 1,34,35
 782 1290 782 1290 802.5 1307 c 128,-1,36
 823 1324 823 1324 820.5 1351.5 c 128,-1,37
 818 1379 818 1379 807.5 1391.5 c 128,-1,38
 797 1404 797 1404 775 1411.5 c 0,39,40
 732.466666667 1426 732.466666667 1426 627 1426 c 1,41,-1
 627 1247 l 1,42,-1
 691 1247 l 2,43,44
 714 1247 714 1247 725.5 1254.5 c 128,-1,45
 737 1262 737 1262 737 1285 c 1,34,35
841 853 m 1,46,-1
 662 1145 l 1,47,-1
 624 1145 l 1,48,-1
 624 873 l 1,49,-1
 500 873 l 1,50,-1
 500 1527 l 1,51,-1
 639 1527 l 2,52,53
 782.4 1527 782.4 1527 841.2 1499 c 128,-1,54
 900 1471 900 1471 924.5 1436 c 128,-1,55
 949 1401 949 1401 949 1355 c 128,-1,56
 949 1309 949 1309 940.5 1279.5 c 128,-1,57
 932 1250 932 1250 912.5 1228 c 0,58,59
 875.127768313 1185.83645656 875.127768313 1185.83645656 780 1168 c 1,60,-1
 958 912 l 1,61,-1
 841 853 l 1,46,-1
EndSplineSet
EndChar

StartChar: macron
Encoding: 175 175 115
Width: 1003
GlyphClass: 2
Flags: HW
HStem: 98 117<98 780>
LayerCount: 2
Fore
SplineSet
98 215 m 1,0,-1
 780 215 l 1,1,-1
 780 98 l 1,2,-1
 98 98 l 1,3,-1
 98 215 l 1,0,-1
EndSplineSet
EndChar

StartChar: degree
Encoding: 176 176 116
Width: 819
GlyphClass: 2
Flags: HW
HStem: 720 65<293.063 520.883> 1195 64<293.388 518.835>
VStem: 123 76<870.78 1109.62> 613 76<868.915 1110.15>
LayerCount: 2
Fore
SplineSet
199 989.5 m 0,0,1
 199 946 199 946 215 909 c 128,-1,2
 231 872 231 872 259 844 c 0,3,4
 318 785 318 785 407 785 c 256,5,6
 494.436363636 785 494.436363636 785 554 843.5 c 0,7,8
 613 901.446428571 613 901.446428571 613 990 c 256,9,10
 613 1077.57142857 613 1077.57142857 553 1136.5 c 0,11,12
 493.436363636 1195 493.436363636 1195 407 1195 c 0,13,14
 318 1195 318 1195 259 1136 c 0,15,16
 199 1076 199 1076 199 989.5 c 0,0,1
408 1259 m 0,17,18
 465 1259 465 1259 516 1238.5 c 128,-1,19
 567 1218 567 1218 605.5 1182 c 0,20,21
 689 1103.92207792 689 1103.92207792 689 987 c 256,22,23
 689 870.125 689 870.125 602 794 c 0,24,25
 517.428571429 720 517.428571429 720 401 720 c 256,26,27
 287.162162162 720 287.162162162 720 205 800 c 128,-1,28
 123 879.842105263 123 879.842105263 123 993 c 256,29,30
 123 1105.21794872 123 1105.21794872 209 1183.5 c 0,31,32
 291.943661972 1259 291.943661972 1259 408 1259 c 0,17,18
EndSplineSet
EndChar

StartChar: plusminus
Encoding: 177 177 117
Width: 1158
GlyphClass: 2
Flags: HW
HStem: -22 197<222 993> 707 219<193 490 724 1022>
VStem: 490 234<351 707 926 1280>
LayerCount: 2
Fore
SplineSet
222 -22 m 1,0,-1
 222 175 l 1,1,-1
 993 175 l 1,2,-1
 993 -22 l 1,3,-1
 222 -22 l 1,0,-1
724 707 m 1,4,-1
 724 351 l 1,5,-1
 490 351 l 1,6,-1
 490 707 l 1,7,-1
 193 707 l 1,8,-1
 193 926 l 1,9,-1
 490 926 l 1,10,-1
 490 1280 l 1,11,-1
 724 1280 l 1,12,-1
 724 926 l 1,13,-1
 1022 926 l 1,14,-1
 1022 707 l 1,15,-1
 724 707 l 1,4,-1
EndSplineSet
EndChar

StartChar: uni00B2
Encoding: 178 178 118
Width: 1126
GlyphClass: 2
Flags: HW
HStem: 668 152<485 891> 1500 138<295.062 697.491>
VStem: 747 172<1222.41 1459.24>
DStem2: 354 1612 371 1474 0.978716 0.205218<-86.3479 183.034> 524 1045 485 820 0.744987 0.667079<-179.147 329.923>
LayerCount: 2
Fore
SplineSet
270 1586 m 1,0,1
 394.8 1638 394.8 1638 576 1638 c 0,2,3
 755.333333333 1638 755.333333333 1638 847.5 1540 c 0,4,5
 919 1463.97468354 919 1463.97468354 919 1357 c 0,6,7
 919 1261.28571429 919 1261.28571429 867 1180.5 c 0,8,9
 814.216080402 1098.49641062 814.216080402 1098.49641062 676 982 c 2,10,-1
 485 820 l 1,11,-1
 891 820 l 1,12,-1
 891 668 l 1,13,-1
 253 668 l 1,14,-1
 253 805 l 1,15,-1
 524 1045 l 2,16,17
 663.337899543 1167.94520548 663.337899543 1167.94520548 695.668949772 1213.47260274 c 0,18,19
 747 1285.75510204 747 1285.75510204 747 1354.87755102 c 128,-1,20
 747 1424 747 1424 699 1462 c 128,-1,21
 651 1500 651 1500 547.166666667 1500 c 128,-1,22
 443.333333333 1500 443.333333333 1500 270 1448 c 1,23,-1
 270 1586 l 1,0,1
EndSplineSet
EndChar

StartChar: uni00B3
Encoding: 179 179 119
Width: 1208
GlyphClass: 2
Flags: HW
HStem: 540 132<414.711 782.79> 1142 65<679 811> 1541 136<402.424 775.782>
VStem: 832 154<1274.25 1491.54> 851 166<737.132 983.917>
DStem2: 352.5 1622.5 426.5 1505.5 0.945934 0.324359<-23.7642 214.393>
LayerCount: 2
Fore
SplineSet
608 1541 m 0,0,1
 498.363636364 1541 498.363636364 1541 374 1484 c 1,2,-1
 327 1611 l 1,3,4
 459 1677 459 1677 613 1677 c 0,5,6
 751.857142857 1677 751.857142857 1677 855 1620 c 0,7,8
 986 1547.60526316 986 1547.60526316 986 1394 c 0,9,10
 986 1270.30769231 986 1270.30769231 892 1198 c 0,11,12
 819.2 1142 819.2 1142 741 1142 c 1,13,14
 950.246231156 1100.15075377 950.246231156 1100.15075377 1003.5 932.5 c 0,15,16
 1017 890 1017 890 1017 824 c 128,-1,17
 1017 758 1017 758 982 702 c 128,-1,18
 947 646 947 646 891 610 c 0,19,20
 782.111111111 540 782.111111111 540 628 540 c 0,21,22
 444.3 540 444.3 540 300 618 c 1,23,-1
 351 745 l 1,24,25
 503.083333333 672 503.083333333 672 631 672 c 0,26,27
 727.361702128 672 727.361702128 672 789.5 721.5 c 0,28,29
 851 770.491525424 851 770.491525424 851 853 c 0,30,31
 851 1043.10294118 851 1043.10294118 589 1072 c 1,32,-1
 589 1207 l 1,33,34
 751.835820896 1207 751.835820896 1207 811.5 1304.5 c 0,35,36
 832 1338 832 1338 832 1383 c 0,37,38
 832 1541 832 1541 608 1541 c 0,0,1
EndSplineSet
EndChar

StartChar: acute
Encoding: 180 180 120
Width: 1117
GlyphClass: 2
Flags: HW
HStem: 213 679
VStem: 449 475
LayerCount: 2
Fore
SplineSet
449 269 m 1,0,-1
 638 892 l 1,1,-1
 924 766 l 1,2,-1
 569 213 l 1,3,-1
 449 269 l 1,0,-1
EndSplineSet
EndChar

StartChar: uni00B5
Encoding: 181 181 121
Width: 1320
GlyphClass: 2
Flags: HW
HStem: -20 143<457.493 805.168>
VStem: 185 174<-291 113 229.619 1169> 958 208<232.308 1169> 1020 146<16 107.989>
LayerCount: 2
Fore
SplineSet
599 -20 m 0,0,1
 457 -20 457 -20 359 113 c 1,2,-1
 359 -291 l 1,3,-1
 185 -291 l 1,4,-1
 185 1169 l 1,5,-1
 359 1169 l 1,6,-1
 359 442 l 2,7,8
 359 123 359 123 611 123 c 0,9,10
 731.196078431 123 731.196078431 123 844.5 186.5 c 0,11,12
 920.64604811 229.175257732 920.64604811 229.175257732 958 274 c 1,13,-1
 958 1169 l 1,14,-1
 1166 1169 l 1,15,-1
 1166 16 l 1,16,-1
 1020 16 l 1,17,-1
 996 170 l 1,18,19
 825 -20 825 -20 599 -20 c 0,0,1
EndSplineSet
EndChar

StartChar: paragraph
Encoding: 182 182 122
Width: 1417
GlyphClass: 2
Flags: HW
HStem: 0 21G<641 877 1015 1247> 1457 149<877 1015>
VStem: 100 777<1013.88 1405.7> 641 236<0 801> 1015 232<0 1457>
LayerCount: 2
Fore
SplineSet
1247 0 m 1,0,-1
 1015 0 l 1,1,-1
 1015 1457 l 1,2,-1
 877 1457 l 1,3,-1
 877 0 l 1,4,-1
 641 0 l 1,5,-1
 641 801 l 1,6,7
 484.230769231 801 484.230769231 801 399.615384615 828.5 c 128,-1,8
 315 856 315 856 264.5 887 c 128,-1,9
 214 918 214 918 177.5 964 c 0,10,11
 100 1061.67123288 100 1061.67123288 100 1214 c 0,12,13
 100 1448.47368421 100 1448.47368421 289 1538 c 0,14,15
 396.188679245 1588.77358491 396.188679245 1588.77358491 506.594339623 1597.38679245 c 128,-1,16
 617 1606 617 1606 686 1606 c 2,17,-1
 1247 1606 l 1,18,-1
 1247 0 l 1,0,-1
EndSplineSet
EndChar

StartChar: periodcentered
Encoding: 183 183 123
Width: 591
GlyphClass: 2
Flags: HW
HStem: 519 353<173.172 406.499>
VStem: 115 351<578.539 813.092>
LayerCount: 2
Fore
SplineSet
115 696 m 256,0,1
 115 768.425531915 115 768.425531915 165.5 820 c 0,2,3
 216.416666667 872 216.416666667 872 289 872 c 256,4,5
 363 872 363 872 415 820 c 0,6,7
 466 769 466 769 466 696 c 256,8,9
 466 623.5625 466 623.5625 415 571.5 c 0,10,11
 363.571428571 519 363.571428571 519 289 519 c 256,12,13
 214.833333333 519 214.833333333 519 165 571 c 128,-1,14
 115 623.173913043 115 623.173913043 115 696 c 256,0,1
EndSplineSet
EndChar

StartChar: cedilla
Encoding: 184 184 124
Width: 637
GlyphClass: 2
Flags: HW
HStem: -642 137<112.096 398.42> -482 20G<102 121.5> -241 105<281 369.554>
VStem: 154 127<-136 45> 416 172<-487.52 -287.034>
LayerCount: 2
Fore
SplineSet
102 -462 m 1,0,1
 121.5 -468.5 l 2,2,3
 231 -505 231 -505 271.5 -505 c 128,-1,4
 312 -505 312 -505 336.5 -500.5 c 128,-1,5
 361 -496 361 -496 378.5 -483.5 c 0,6,7
 416 -456.714285714 416 -456.714285714 416 -382.357142857 c 128,-1,8
 416 -308 416 -308 352 -274.5 c 128,-1,9
 288 -241 288 -241 154 -241 c 1,10,-1
 166 45 l 1,11,-1
 288 45 l 1,12,-1
 281 -136 l 1,13,14
 479.25 -136 479.25 -136 559 -268 c 0,15,16
 588 -316 588 -316 588 -385 c 0,17,18
 588 -506 588 -506 516.5 -574 c 128,-1,19
 445 -642 445 -642 309 -642 c 0,20,21
 213.5 -642 213.5 -642 128 -604 c 0,22,23
 110 -596 110 -596 102 -593 c 1,24,-1
 102 -462 l 1,0,1
EndSplineSet
EndChar

StartChar: uni00B9
Encoding: 185 185 125
Width: 740
GlyphClass: 2
Flags: HW
VStem: 327 169<478 1304>
DStem2: 119 1345 156 1232 0.928206 0.372066<0 177.812>
LayerCount: 2
Fore
SplineSet
327 1304 m 1,0,-1
 156 1232 l 1,1,-1
 119 1345 l 1,2,-1
 356 1440 l 1,3,-1
 496 1414 l 1,4,-1
 496 478 l 1,5,-1
 327 478 l 1,6,-1
 327 1304 l 1,0,-1
EndSplineSet
EndChar

StartChar: ordmasculine
Encoding: 186 186 126
Width: 1265
GlyphClass: 2
Flags: HW
HStem: 446 129<300 984> 670 127<488.239 788.38> 1512 126<487.766 787.675>
VStem: 214 157<928.244 1379.51> 905 158<927.281 1379.01>
LayerCount: 2
Fore
SplineSet
638.5 670 m 0,0,1
 530 670 530 670 450.5 707.5 c 128,-1,2
 371 745 371 745 318.5 810 c 0,3,4
 214 939.380952381 214 939.380952381 214 1152 c 0,5,6
 214 1362.4 214 1362.4 317.5 1493.5 c 0,7,8
 431.578947368 1638 431.578947368 1638 638 1638 c 256,9,10
 845.421052632 1638 845.421052632 1638 959.5 1493.5 c 0,11,12
 1063 1362.4 1063 1362.4 1063 1152 c 0,13,14
 1063 940.628571429 1063 940.628571429 959.5 811.5 c 0,15,16
 846.083969466 670 846.083969466 670 638.5 670 c 0,0,1
638 797 m 256,17,18
 841.106870229 797 841.106870229 797 890 1010.5 c 0,19,20
 905 1076 905 1076 905 1153 c 128,-1,21
 905 1230 905 1230 890 1295.5 c 128,-1,22
 875 1361 875 1361 843 1409 c 0,23,24
 774.333333333 1512 774.333333333 1512 638 1512 c 256,25,26
 435.351145038 1512 435.351145038 1512 386 1296.5 c 0,27,28
 371 1231 371 1231 371 1154 c 256,29,30
 371 901.257425743 371 901.257425743 515.5 824 c 0,31,32
 566 797 566 797 638 797 c 256,17,18
300 575 m 1,33,-1
 984 575 l 1,34,-1
 984 446 l 1,35,-1
 300 446 l 1,36,-1
 300 575 l 1,33,-1
EndSplineSet
EndChar

StartChar: guillemotright
Encoding: 187 187 127
Width: 1780
GlyphClass: 2
Flags: HW
HStem: 8 291<172 463 911 1202> 870 291<172 463 911 1202>
DStem2: 172 299 172 8 0.847034 0.531539<0 556.803> 911 299 911 8 0.847356 0.531025<0 557.655>
LayerCount: 2
Fore
SplineSet
172 1161 m 1,0,-1
 913 697 l 1,1,-1
 913 473 l 1,2,-1
 172 8 l 1,3,-1
 172 299 l 1,4,-1
 648 588 l 1,5,-1
 172 870 l 1,6,-1
 172 1161 l 1,0,-1
911 1161 m 1,7,-1
 1653 697 l 1,8,-1
 1653 473 l 1,9,-1
 911 8 l 1,10,-1
 911 299 l 1,11,-1
 1388 588 l 1,12,-1
 911 870 l 1,13,-1
 911 1161 l 1,7,-1
EndSplineSet
EndChar

StartChar: onequarter
Encoding: 188 188 128
Width: 1947
GlyphClass: 2
Flags: HW
HStem: 73 171<1210 1474 1683 1829> 1198 21G<144.129 198.349>
VStem: 298 227<481 1261> 1478 205<-168 73 245 648>
DStem2: 369 -30 553 -115 0.487437 0.873158<15.47 1749.97> 957 217 1210 244 0.567321 0.823497<165.767 650.501>
LayerCount: 2
Fore
SplineSet
1478 244 m 1,0,-1
 1478 648 l 1,1,-1
 1210 244 l 1,2,-1
 1478 244 l 1,0,-1
1683 965 m 1,3,-1
 1683 245 l 1,4,-1
 1829 245 l 1,5,-1
 1829 73 l 1,6,-1
 1683 73 l 1,7,-1
 1683 -168 l 1,8,-1
 1474 -177 l 1,9,-1
 1474 73 l 1,10,-1
 987 73 l 1,11,-1
 957 217 l 1,12,-1
 1504 1011 l 1,13,-1
 1683 965 l 1,3,-1
1222 1498 m 1,14,-1
 1410 1410 l 1,15,-1
 553 -115 l 1,16,-1
 369 -30 l 1,17,-1
 1222 1498 l 1,14,-1
298 1261 m 1,18,-1
 152 1198 l 1,19,-1
 91 1353 l 1,20,-1
 362 1460 l 1,21,-1
 525 1425 l 1,22,-1
 525 481 l 1,23,-1
 298 481 l 1,24,-1
 298 1261 l 1,18,-1
EndSplineSet
EndChar

StartChar: onehalf
Encoding: 189 189 129
Width: 2119
GlyphClass: 2
Flags: HW
HStem: -9 192<1607 1954> 781 186<1384.28 1706.77> 1198 21G<167 221.032>
VStem: 320 227<481 1261> 1747 233<538.622 750.801>
DStem2: 381 -30 565 -115 0.487437 0.873158<15.47 1749.97> 1267 884 1312 709 0.932235 0.361854<0 266.722> 1412 272.5 1607 183 0.754767 0.655993<88.4683 476.658>
LayerCount: 2
Fore
SplineSet
1267 884 m 1,0,1
 1471.73333333 967 1471.73333333 967 1613 967 c 0,2,3
 1779.21052632 967 1779.21052632 967 1879 888 c 0,4,5
 1980 808.041666667 1980 808.041666667 1980 678 c 0,6,7
 1980 539.23255814 1980 539.23255814 1862 413 c 0,8,9
 1819 367 1819 367 1755 312 c 2,10,-1
 1607 183 l 1,11,-1
 1954 183 l 1,12,-1
 1954 -9 l 1,13,-1
 1274 -9 l 1,14,-1
 1274 153 l 1,15,16
 1343 213 1343 213 1412 272.5 c 128,-1,17
 1481 332 1481 332 1535.5 379.5 c 128,-1,18
 1590 427 1590 427 1625.5 458.5 c 128,-1,19
 1661 490 1661 490 1688 521 c 0,20,21
 1747 588.740740741 1747 588.740740741 1747 654 c 0,22,23
 1747 781 1747 781 1594 781 c 0,24,25
 1516.6 781 1516.6 781 1427.8 751 c 128,-1,26
 1339 721 1339 721 1312 709 c 1,27,-1
 1267 884 l 1,0,1
320 1261 m 1,28,-1
 175 1198 l 1,29,-1
 113 1353 l 1,30,-1
 385 1460 l 1,31,-1
 547 1425 l 1,32,-1
 547 481 l 1,33,-1
 320 481 l 1,34,-1
 320 1261 l 1,28,-1
1234 1498 m 1,35,-1
 1422 1410 l 1,36,-1
 565 -115 l 1,37,-1
 381 -30 l 1,38,-1
 1234 1498 l 1,35,-1
EndSplineSet
EndChar

StartChar: threequarters
Encoding: 190 190 130
Width: 2178
GlyphClass: 2
Flags: HW
HStem: 73 171<1428 1710 1907 2053> 469 180<231.981 586.428> 978 176<386 556.257> 1363 21G<203.909 227> 1421 183<246.268 573.615>
VStem: 619 215<1207.68 1389.87> 638 226<690.169 904.585> 1714 193<-168 73 244 654>
DStem2: 593 -30 777 -115 0.489474 0.872018<15.9416 1747.52> 1181 217 1428 244 0.567321 0.823497<162.363 662.25>
LayerCount: 2
Fore
SplineSet
1714 244 m 1,0,-1
 1714 654 l 1,1,-1
 1428 244 l 1,2,-1
 1714 244 l 1,0,-1
1907 965 m 1,3,-1
 1907 244 l 1,4,-1
 2053 244 l 1,5,-1
 2053 73 l 1,6,-1
 1907 73 l 1,7,-1
 1907 -168 l 1,8,-1
 1710 -177 l 1,9,-1
 1710 73 l 1,10,-1
 1210 73 l 1,11,-1
 1181 217 l 1,12,-1
 1728 1011 l 1,13,-1
 1907 965 l 1,3,-1
1441 1498 m 1,14,-1
 1633 1410 l 1,15,-1
 777 -115 l 1,16,-1
 593 -30 l 1,17,-1
 1441 1498 l 1,14,-1
449 649 m 0,18,19
 638 649 638 649 638 797 c 0,20,21
 638 877.212121212 638 877.212121212 568 926 c 0,22,23
 502.333052986 971.767872161 502.333052986 971.767872161 386 978 c 1,24,-1
 386 1154 l 1,25,26
 543.421052632 1154 543.421052632 1154 598.5 1234.5 c 0,27,28
 618 1263 618 1263 619 1303 c 1,29,30
 619 1421 619 1421 447 1421 c 0,31,32
 348.333333333 1421 348.333333333 1421 213 1363 c 1,33,-1
 138 1528 l 1,34,35
 208.612546125 1571.45387454 208.612546125 1571.45387454 296.306273063 1587.72693727 c 128,-1,36
 384 1604 384 1604 448.5 1604 c 128,-1,37
 513 1604 513 1604 585 1589.5 c 128,-1,38
 657 1575 657 1575 712 1540.5 c 0,39,40
 834 1463.97272727 834 1463.97272727 834 1304 c 0,41,42
 834 1209.52631579 834 1209.52631579 769.5 1140.5 c 0,43,44
 713.618937644 1080.69745958 713.618937644 1080.69745958 636 1067 c 1,45,46
 724.36565097 1047.11772853 724.36565097 1047.11772853 790 978.5 c 0,47,48
 864 901.136363636 864 901.136363636 864 802.568181818 c 128,-1,49
 864 704 864 704 829 642.5 c 128,-1,50
 794 581 794 581 735 542.5 c 0,51,52
 622.363636364 469 622.363636364 469 437 469 c 0,53,54
 272.533333333 469 272.533333333 469 136 533 c 1,55,-1
 198 709 l 1,56,57
 257.626168224 676.476635514 257.626168224 676.476635514 331.813084112 662.738317757 c 128,-1,58
 406 649 406 649 449 649 c 0,18,19
EndSplineSet
EndChar

StartChar: questiondown
Encoding: 191 191 131
Width: 1209
GlyphClass: 2
Flags: HW
HStem: -65 233<468.498 933.255> 1243 328<658.043 853.534>
VStem: 122 285<225.958 475.847> 599 314<1303.04 1508.85> 631 270<827.172 1150>
LayerCount: 2
Fore
SplineSet
913 1363 m 1,0,1
 880.786764706 1282.46691176 880.786764706 1282.46691176 783 1252.5 c 0,2,3
 752 1243 752 1243 716 1243 c 1,4,5
 665 1266 665 1266 632 1321 c 128,-1,6
 599 1376 599 1376 599 1451 c 1,7,8
 631.36101083 1531.90252708 631.36101083 1531.90252708 729.5 1561.5 c 0,9,10
 761 1571 761 1571 796 1571 c 1,11,12
 845.498997996 1549.22044088 845.498997996 1549.22044088 880 1491 c 0,13,14
 913 1435.3125 913 1435.3125 913 1363 c 1,0,1
1100 33 m 1,15,16
 904 -65 904 -65 660 -65 c 0,17,18
 283.84 -65 283.84 -65 164 149 c 0,19,20
 122 224 122 224 122 311.5 c 128,-1,21
 122 399 122 399 148 472 c 128,-1,22
 174 545 174 545 234 612.5 c 0,23,24
 366.381760339 761.429480382 366.381760339 761.429480382 631 841 c 1,25,-1
 631 1150 l 1,26,-1
 901 1150 l 1,27,-1
 901 705 l 1,28,29
 809 673 809 673 720 640.5 c 128,-1,30
 631 608 631 608 561.5 567 c 0,31,32
 407 475.856115108 407 475.856115108 407 350 c 0,33,34
 407 199.8 407 199.8 569 175.5 c 0,35,36
 619 168 619 168 679 168 c 256,37,38
 829.44 168 829.44 168 994.5 233.5 c 0,39,40
 1026 246 1026 246 1026 247 c 2,41,-1
 1100 33 l 1,15,16
EndSplineSet
EndChar

StartChar: AE
Encoding: 198 198 138
Width: 1989
GlyphClass: 2
Flags: HW
HStem: 0 199<1221 1911> 364 155<554 932> 764 173<1221 1821> 1408 199<1220 1893>
VStem: 932 289<199 364 519 764 937 1408>
DStem2: 43 0 349 0 0.405558 0.914069<124.101 518.467 681.642 1115.25>
LayerCount: 2
Fore
SplineSet
932 1413 m 1,0,-1
 554 519 l 1,1,-1
 932 519 l 1,2,-1
 932 1413 l 1,0,-1
1893 1408 m 1,3,-1
 1220 1408 l 1,4,-1
 1220 937 l 1,5,-1
 1821 937 l 1,6,-1
 1821 764 l 1,7,-1
 1221 764 l 1,8,-1
 1221 199 l 1,9,-1
 1911 199 l 1,10,-1
 1911 0 l 1,11,-1
 933 0 l 1,12,-1
 933 364 l 1,13,-1
 501 364 l 1,14,-1
 349 0 l 1,15,-1
 43 0 l 1,16,-1
 756 1607 l 1,17,-1
 1893 1607 l 1,18,-1
 1893 1408 l 1,3,-1
EndSplineSet
EndChar

StartChar: Eth
Encoding: 208 208 148
Width: 1559
GlyphClass: 2
Flags: HW
HStem: 0 199<466 912.344> 729 195<-2 161 466 723> 1414 193<466 905.242>
VStem: 161 305<199 729 924 1414> 1145 309<469.203 1139.45>
LayerCount: 2
Fore
SplineSet
1130 575 m 128,-1,1
 1145 679 1145 679 1145 801.5 c 128,-1,2
 1145 924 1145 924 1130 1029.5 c 128,-1,3
 1115 1135 1115 1135 1072.5 1215 c 0,4,5
 982.381621622 1384.63459459 982.381621622 1384.63459459 755 1407 c 0,6,7
 680.333333333 1414 680.333333333 1414 619 1414 c 2,8,-1
 466 1414 l 1,9,-1
 466 924 l 1,10,-1
 723 924 l 1,11,-1
 723 729 l 1,12,-1
 466 729 l 1,13,-1
 466 199 l 1,14,-1
 619 199 l 2,15,16
 691 199 691 199 784 207.5 c 128,-1,17
 877 216 877 216 953.5 265 c 128,-1,18
 1030 314 1030 314 1072.5 392.5 c 128,-1,0
 1115 471 1115 471 1130 575 c 128,-1,1
1408 1143.5 m 0,19,20
 1454 993 1454 993 1454 805 c 128,-1,21
 1454 617 1454 617 1409.5 469.5 c 128,-1,22
 1365 322 1365 322 1272 218 c 0,23,24
 1077.05769231 -1.70530256582e-13 1077.05769231 -1.70530256582e-13 691 0 c 2,25,-1
 161 0 l 1,26,-1
 161 729 l 1,27,-1
 -2 729 l 1,28,-1
 -2 924 l 1,29,-1
 161 924 l 1,30,-1
 161 1607 l 1,31,-1
 691 1607 l 2,32,33
 1266.33222591 1607 1266.33222591 1607 1408 1143.5 c 0,19,20
EndSplineSet
EndChar

StartChar: multiply
Encoding: 215 215 155
Width: 1361
GlyphClass: 2
Flags: HW
HStem: 404 311<543.5 854.5>
DStem2: 393 1011 240 847 0.719677 -0.694309<3.75622 416.767 649.942 1064.37> 240 272 393 108 0.719677 0.694309<0 413.705 646.88 1060.61>
LayerCount: 2
Fore
SplineSet
393 1011 m 1,0,-1
 699 715 l 1,1,-1
 1005 1011 l 1,2,-1
 1159 847 l 1,3,-1
 861 560 l 1,4,-1
 1159 272 l 1,5,-1
 1005 108 l 1,6,-1
 699 404 l 1,7,-1
 393 108 l 1,8,-1
 240 272 l 1,9,-1
 537 560 l 1,10,-1
 240 847 l 1,11,-1
 393 1011 l 1,0,-1
EndSplineSet
EndChar

StartChar: Oslash
Encoding: 216 216 156
Width: 1612
GlyphClass: 2
Flags: HW
HStem: -34 225<667.181 992.587> 1411 225<620.464 993.316>
VStem: 105 308<556.53 1152.59> 1199 308<454.661 1149.63>
DStem2: 382 -121 506 -167 0.389304 0.921109<5.90274 184.315 442.773 1547.32 1847.31 2041.96>
LayerCount: 2
Fore
SplineSet
1124 26.5 m 0,0,1
 991 -34 991 -34 830.647058824 -34 c 128,-1,2
 670.294117647 -34 670.294117647 -34 575 -4 c 1,3,-1
 506 -167 l 1,4,-1
 382 -121 l 1,5,-1
 452 44 l 1,6,7
 105 223.771084337 105 223.771084337 105 801 c 0,8,9
 105 1231.68085106 105 1231.68085106 307 1445.5 c 0,10,11
 486.969849246 1636 486.969849246 1636 800 1636 c 0,12,13
 969 1636 969 1636 1104 1582 c 1,14,-1
 1179 1759 l 1,15,-1
 1301 1714 l 1,16,-1
 1219 1521 l 1,17,18
 1507 1322.51351351 1507 1322.51351351 1507 801 c 0,19,20
 1507 200.721804511 1507 200.721804511 1124 26.5 c 0,0,1
666 215 m 1,21,22
 747.6 191 747.6 191 816.3 191 c 128,-1,23
 885 191 885 191 945 213.5 c 128,-1,24
 1005 236 1005 236 1048.5 276.5 c 128,-1,25
 1092 317 1092 317 1121 373.5 c 128,-1,26
 1150 430 1150 430 1167.5 498 c 0,27,28
 1199 620.4 1199 620.4 1199 784.7 c 0,29,30
 1199 1097.85714286 1199 1097.85714286 1108 1252 c 1,31,-1
 666 215 l 1,21,22
1010 1356 m 1,32,33
 926.551724138 1411 926.551724138 1411 808.775862069 1411 c 128,-1,34
 691 1411 691 1411 614.5 1364 c 128,-1,35
 538 1317 538 1317 493 1234.5 c 0,36,37
 413 1087.83333333 413 1087.83333333 413 801 c 0,38,39
 413 609.027027027 413 609.027027027 477 526 c 1,40,41
 481.847003155 409.67192429 481.847003155 409.67192429 504.923501577 360.335962145 c 128,-1,42
 528 311 528 311 554 287 c 1,43,-1
 1010 1356 l 1,32,33
EndSplineSet
EndChar

StartChar: Thorn
Encoding: 222 222 162
Width: 1410
GlyphClass: 2
Flags: HW
HStem: 1210 202<536.376 882.869> 1587 20G<156 439>
VStem: 156 294<-136 382 554.555 1166 1320 1607> 987 285<614.739 1097.48>
LayerCount: 2
Fore
SplineSet
450 566 m 1,0,1
 620.52173913 517.739130435 620.52173913 517.739130435 728.403591682 517.739130435 c 0,2,3
 767.173913043 517.739130435 767.173913043 517.739130435 817.086956522 524.369565217 c 128,-1,4
 867 531 867 531 903.5 565.5 c 128,-1,5
 940 600 940 600 958.5 648.5 c 0,6,7
 987 723.216216216 987 723.216216216 987 833.608108108 c 128,-1,8
 987 944 987 944 974 1007.5 c 128,-1,9
 961 1071 961 1071 932.5 1114.5 c 0,10,11
 869.494252874 1210.66666667 869.494252874 1210.66666667 715.388888889 1210.66666667 c 0,12,13
 617.5 1210.66666667 617.5 1210.66666667 450 1166 c 1,14,-1
 450 566 l 1,0,1
929.5 337 m 0,15,16
 823 304 823 304 680.5 304 c 128,-1,17
 538 304 538 304 450 382 c 1,18,-1
 450 -136 l 1,19,-1
 156 -136 l 1,20,-1
 156 1607 l 1,21,-1
 439 1607 l 1,22,-1
 439 1320 l 1,23,24
 587.857971014 1412.53333333 587.857971014 1412.53333333 780.253333333 1412.53333333 c 0,25,26
 792.733333333 1412.53333333 792.733333333 1412.53333333 805 1412 c 0,27,28
 1128.55511582 1389.29437784 1128.55511582 1389.29437784 1224.5 1145.5 c 0,29,30
 1274.11764706 1019.42237223 1274.11764706 1019.42237223 1274.11764706 859.698961938 c 0,31,32
 1274.11764706 443.782932891 1274.11764706 443.782932891 929.5 337 c 0,15,16
EndSplineSet
EndChar

StartChar: germandbls
Encoding: 223 223 163
Width: 1535
GlyphClass: 2
Flags: HW
HStem: -173 236<607 909.544> 0 21G<156 463> 736 186<613 919.648> 1401 206<562.616 937.983>
VStem: 156 307<0 1292.33> 1017 268<1010.63 1326.82> 1158 299<235.11 567.126>
LayerCount: 2
Fore
SplineSet
613 736 m 1,0,1
 612 789 l 1,2,3
 612 922 l 1,4,5
 840.145454545 922 840.145454545 922 923 968.5 c 0,6,7
 1017 1021.25510204 1017 1021.25510204 1017 1181 c 0,8,9
 1017 1293.37313433 1017 1293.37313433 953.5 1345.5 c 0,10,11
 885.890909091 1401 885.890909091 1401 729 1401 c 256,12,13
 573.775510204 1401 573.775510204 1401 515 1305 c 0,14,15
 463 1220.06666667 463 1220.06666667 463 999 c 2,16,-1
 463 0 l 1,17,-1
 156 0 l 1,18,-1
 156 1002 l 2,19,20
 156 1300.8540146 156 1300.8540146 286.5 1448.5 c 0,21,22
 426.593548387 1607 426.593548387 1607 729 1607 c 0,23,24
 1118.13829787 1607 1118.13829787 1607 1237.5 1387 c 0,25,26
 1285 1299.45098039 1285 1299.45098039 1285 1210.2254902 c 128,-1,27
 1285 1121 1285 1121 1267 1062.5 c 128,-1,28
 1249 1004 1249 1004 1211.5 958.5 c 0,29,30
 1130.35080645 860.038978495 1130.35080645 860.038978495 977 843 c 1,31,32
 1329.56845626 805.55910199 1329.56845626 805.55910199 1424.5 567.5 c 0,33,34
 1457 486 1457 486 1457 381.5 c 128,-1,35
 1457 277 1457 277 1423 196 c 128,-1,36
 1389 115 1389 115 1330 53.5 c 128,-1,37
 1271 -8 1271 -8 1189.5 -51 c 128,-1,38
 1108 -94 1108 -94 1014 -121 c 0,39,40
 832.962962963 -173 832.962962963 -173 607 -173 c 1,41,-1
 607 63 l 1,42,43
 719.940298507 70.2089552239 719.940298507 70.2089552239 782 84 c 1,44,45
 1059.68559634 115.917884637 1059.68559634 115.917884637 1132 267.5 c 0,46,47
 1158 322 1158 322 1158 400.5 c 128,-1,48
 1158 479 1158 479 1127.5 542 c 128,-1,49
 1097 605 1097 605 1031 648 c 0,50,51
 895.930232558 736 895.930232558 736 613 736 c 1,0,1
EndSplineSet
EndChar

StartChar: ae
Encoding: 230 230 170
Width: 1899
GlyphClass: 2
Flags: HW
HStem: -19 207<419.625 726.054 1215.48 1600.18> 537 153<1092 1573> 561 148<420.16 573.001 575 814> 573.5 161.5<436.578 812.935> 997 212<352.003 762.604 1189.67 1494.9>
VStem: 91 279<237.956 510.938> 814 278<322.76 537 709 883.322> 1573 243<690 907.717>
LayerCount: 2
Fore
SplineSet
1573 690 m 1,0,1
 1573 937.084337349 1573 937.084337349 1436.5 993 c 0,2,3
 1395 1010 1395 1010 1345.5 1010 c 128,-1,4
 1296 1010 1296 1010 1251 991.5 c 128,-1,5
 1206 973 1206 973 1171.5 934 c 0,6,7
 1095.7712766 848.393617021 1095.7712766 848.393617021 1092 690 c 1,8,-1
 1573 690 l 1,0,1
1092 537 m 1,9,10
 1096.47435897 188 1096.47435897 188 1384 188 c 0,11,12
 1523.72727273 188 1523.72727273 188 1648.5 255.5 c 0,13,14
 1679 272 1679 272 1693 284 c 1,15,-1
 1758 89 l 1,16,17
 1678.875 30.975 1678.875 30.975 1491.5 -6.5 c 0,18,19
 1429 -19 1429 -19 1361.5 -19 c 128,-1,20
 1294 -19 1294 -19 1231 -7 c 128,-1,21
 1168 5 1168 5 1115.5 31 c 0,22,23
 1010.944 82.7801142857 1010.944 82.7801142857 942 199 c 1,24,25
 837.487000634 36.4242232086 837.487000634 36.4242232086 626 -7.5 c 0,26,27
 561 -21 561 -21 494 -21 c 0,28,29
 298 -21 298 -21 194.5 76.5 c 128,-1,30
 91 174 91 174 91 366 c 0,31,32
 91 542.142857143 91 542.142857143 211 637.5 c 0,33,34
 333.696629213 735 333.696629213 735 574 735 c 0,35,36
 715.777777778 735 715.777777778 735 814 709 c 1,37,38
 814 869.538461538 814 869.538461538 789.5 914.769230769 c 128,-1,39
 765 960 765 960 724.5 978.5 c 128,-1,40
 684 997 684 997 617.5 997 c 128,-1,41
 551 997 551 997 485 984.5 c 128,-1,42
 419 972 419 972 363 955.5 c 0,43,44
 246.607843137 921.205882353 246.607843137 921.205882353 221 902 c 1,45,-1
 165 1091 l 1,46,47
 218.290322581 1137.62903226 218.290322581 1137.62903226 425 1185 c 0,48,49
 529.727272727 1209 529.727272727 1209 645.363636364 1209 c 0,50,51
 900.526315789 1209 900.526315789 1209 982 1029 c 1,52,53
 1057.45098039 1162.49019608 1057.45098039 1162.49019608 1235 1198 c 0,54,55
 1290 1209 1290 1209 1375.5 1209 c 128,-1,56
 1461 1209 1461 1209 1548 1170.5 c 128,-1,57
 1635 1132 1635 1132 1694.5 1062.5 c 0,58,59
 1816 920.579831933 1816 920.579831933 1816 682 c 0,60,61
 1816 612 1816 612 1813 537 c 1,62,-1
 1092 537 l 1,9,10
814 561 m 1,63,64
 720.266666667 573.666666667 720.266666667 573.666666667 683.3 573.666666667 c 0,65,66
 627 573.666666667 627 573.666666667 582 570.833333333 c 128,-1,67
 537 568 537 568 492.5 554.5 c 128,-1,68
 448 541 448 541 421 517 c 0,69,70
 370 471.666666667 370 471.666666667 370 381 c 0,71,72
 370 182 370 182 566 182 c 0,73,74
 683.578947368 182 683.578947368 182 814 300 c 1,75,-1
 814 561 l 1,63,64
EndSplineSet
EndChar

StartChar: igrave
Encoding: 236 236 176
Width: 667
GlyphClass: 2
Flags: HW
HStem: 0 21G<203 493> 1165 20G<203 493> 1355 21G<300.325 357.286>
VStem: 203 290<0 1185>
LayerCount: 2
Fore
SplineSet
-40 1912 m 1,0,-1
 250 2038 l 1,1,-1
 437 1411 l 1,2,-1
 313 1355 l 1,3,-1
 -40 1912 l 1,0,-1
203 0 m 1,4,-1
 203 1185 l 1,5,-1
 493 1185 l 1,6,-1
 493 0 l 1,7,-1
 203 0 l 1,4,-1
EndSplineSet
EndChar

StartChar: iacute
Encoding: 237 237 177
Width: 667
GlyphClass: 2
Flags: HW
HStem: 0 21G<203 493> 1165 20G<203 493>
VStem: 203 290<0 1185>
LayerCount: 2
Fore
SplineSet
155 1387 m 1,0,-1
 344 2010 l 1,1,-1
 630 1885 l 1,2,-1
 275 1331 l 1,3,-1
 155 1387 l 1,0,-1
203 0 m 1,4,-1
 203 1185 l 1,5,-1
 493 1185 l 1,6,-1
 493 0 l 1,7,-1
 203 0 l 1,4,-1
EndSplineSet
EndChar

StartChar: icircumflex
Encoding: 238 238 178
Width: 667
GlyphClass: 2
Flags: HW
HStem: 0 21G<203 493> 1165 20G<203 493> 1728 226<124 546>
VStem: 203 290<0 1185>
LayerCount: 2
Fore
SplineSet
433 1954 m 1,0,-1
 708 1372 l 1,1,-1
 488 1341 l 1,2,-1
 334 1728 l 1,3,-1
 180 1341 l 1,4,-1
 -39 1372 l 1,5,-1
 237 1954 l 1,6,-1
 433 1954 l 1,0,-1
203 0 m 1,7,-1
 203 1185 l 1,8,-1
 493 1185 l 1,9,-1
 493 0 l 1,10,-1
 203 0 l 1,7,-1
EndSplineSet
EndChar

StartChar: idieresis
Encoding: 239 239 179
Width: 667
GlyphClass: 2
Flags: HW
HStem: 0 21G<203 493> 1165 20G<203 493> 1338 306<-111.267 141.228 498.733 750.249>
VStem: -150 330<1376.34 1605.66> 203 290<0 1185> 460 330<1377.06 1604.94>
LayerCount: 2
Fore
SplineSet
-150 1491 m 256,0,1
 -150 1560.43181818 -150 1560.43181818 -103 1608.5 c 0,2,3
 -55.5777777778 1657 -55.5777777778 1657 14 1657 c 256,4,5
 84 1657 84 1657 132.5 1608.5 c 0,6,7
 180 1561 180 1561 180 1491 c 128,-1,8
 180 1421 180 1421 132.5 1373.5 c 0,9,10
 84 1325 84 1325 14 1325 c 0,11,12
 -56.5777777778 1325 -56.5777777778 1325 -104 1373.5 c 0,13,14
 -150 1420.54545455 -150 1420.54545455 -150 1491 c 256,0,1
460 1491 m 256,15,16
 460 1560.43181818 460 1560.43181818 507 1608.5 c 0,17,18
 554.422222222 1657 554.422222222 1657 624 1657 c 256,19,20
 693 1657 693 1657 741.5 1608.5 c 128,-1,21
 790 1560 790 1560 790 1491 c 128,-1,22
 790 1422 790 1422 741.5 1373.5 c 128,-1,23
 693 1325 693 1325 624 1325 c 0,24,25
 553.422222222 1325 553.422222222 1325 506 1373.5 c 0,26,27
 460 1420.54545455 460 1420.54545455 460 1491 c 256,15,16
203 0 m 1,28,-1
 203 1185 l 1,29,-1
 493 1185 l 1,30,-1
 493 0 l 1,31,-1
 203 0 l 1,28,-1
EndSplineSet
EndChar

StartChar: eth
Encoding: 240 240 180
Width: 1272
GlyphClass: 2
Flags: HW
HStem: -18 203<489.611 757.204> 1007 202<480.005 749.133>
VStem: 85 290<322.643 876.218> 886 290<342.282 895.854>
DStem2: 410 1433 453 1305 0.954359 0.298661<2.80878 184.394 491.145 736.62> 1022.5 1294 815.5 1211 0.580587 -0.814198<-187.92 110.464>
LayerCount: 2
Fore
SplineSet
528 1780 m 1,0,1
 690.970394737 1683.09868421 690.970394737 1683.09868421 817 1560 c 1,2,-1
 1113 1653 l 1,3,-1
 1156 1525 l 1,4,-1
 919 1451 l 1,5,6
 1176 1111.39285714 1176 1111.39285714 1176 654 c 0,7,8
 1176 143.132075472 1176 143.132075472 855 22 c 0,9,10
 749 -18 749 -18 611.5 -18 c 128,-1,11
 474 -18 474 -18 375 31.5 c 128,-1,12
 276 81 276 81 211.5 166 c 0,13,14
 85 332.705426357 85 332.705426357 85 603 c 0,15,16
 85 868.355932203 85 868.355932203 206 1035.5 c 0,17,18
 331.601226994 1209 331.601226994 1209 547 1209 c 0,19,20
 658 1209 658 1209 745.5 1166.5 c 128,-1,21
 833 1124 833 1124 884 1057 c 1,22,23
 845.541066892 1204.42591025 845.541066892 1204.42591025 692 1379 c 1,24,-1
 453 1305 l 1,25,-1
 410 1433 l 1,26,-1
 586 1488 l 1,27,28
 496.8 1571.50638298 496.8 1571.50638298 402 1630 c 1,29,-1
 528 1780 l 1,0,1
610 1007 m 0,30,31
 375 1007 375 1007 375 597 c 0,32,33
 375 303.666666667 375 303.666666667 506.5 216 c 0,34,35
 553 185 553 185 617.5 185 c 128,-1,36
 682 185 682 185 729 210.5 c 128,-1,37
 776 236 776 236 808.5 282.5 c 0,38,39
 871.607066381 372.791648822 871.607066381 372.791648822 882 537 c 1,40,41
 886 663 886 663 886 796 c 1,42,43
 858.388235294 906.447058824 858.388235294 906.447058824 773 961.5 c 0,44,45
 702.428571429 1007 702.428571429 1007 610 1007 c 0,30,31
EndSplineSet
EndChar

StartChar: divide
Encoding: 247 247 187
Width: 1163
GlyphClass: 2
Flags: HW
HStem: 143 332<483.017 707.667> 570 214<148 1041> 875 332<482.017 706.667>
VStem: 434 322<191.505 425.795 924.914 1157.09>
LayerCount: 2
Fore
SplineSet
433 1041 m 256,0,1
 433 1110.88372093 433 1110.88372093 478.5 1158.5 c 0,2,3
 524.844444444 1207 524.844444444 1207 595 1207 c 256,4,5
 664.733333333 1207 664.733333333 1207 710 1158.5 c 0,6,7
 755 1110.28571429 755 1110.28571429 755 1041 c 256,8,9
 755 971.714285714 755 971.714285714 710 923.5 c 0,10,11
 664.733333333 875 664.733333333 875 595 875 c 0,12,13
 484.93442623 875 484.93442623 875 445 976.5 c 0,14,15
 433 1007 433 1007 433 1041 c 256,0,1
434 309 m 256,16,17
 434 378.88372093 434 378.88372093 479.5 426.5 c 0,18,19
 525.844444444 475 525.844444444 475 596 475 c 256,20,21
 665.733333333 475 665.733333333 475 711 426.5 c 0,22,23
 756 378.285714286 756 378.285714286 756 326.142857143 c 128,-1,24
 756 274 756 274 744 244 c 128,-1,25
 732 214 732 214 711 191.5 c 0,26,27
 665.733333333 143 665.733333333 143 596 143 c 0,28,29
 485.93442623 143 485.93442623 143 446 244.5 c 0,30,31
 434 275 434 275 434 309 c 256,16,17
148 570 m 1,32,-1
 148 784 l 1,33,-1
 1041 784 l 1,34,-1
 1041 570 l 1,35,-1
 148 570 l 1,32,-1
EndSplineSet
EndChar

StartChar: oslash
Encoding: 248 248 188
Width: 1299
GlyphClass: 2
Flags: HW
HStem: -18 181<563.433 807.627> 1023.5 181.5<650.187 736> 1026 183<488.223 735.407>
VStem: 85 259<344.592 858.175> 960 253<341.569 844.034>
DStem2: 340 -154 440 -188 0.319358 0.947634<0 196.054 403.822 1210.87 1419.59 1627.02>
LayerCount: 2
Fore
SplineSet
736 1015 m 1,0,1
 704.833333333 1026 704.833333333 1026 644.416666667 1026 c 128,-1,2
 584 1026 584 1026 528 1002.5 c 128,-1,3
 472 979 472 979 431 928.5 c 0,4,5
 344 821.341463415 344 821.341463415 344 607 c 0,6,7
 344 381.511627907 344 381.511627907 428.5 269.5 c 0,8,9
 450 241 450 241 468 229 c 1,10,-1
 736 1015 l 1,0,1
404.5 1163.5 m 128,-1,12
 510 1209 510 1209 614.5 1209 c 128,-1,13
 719 1209 719 1209 794 1194 c 1,14,-1
 860 1389 l 1,15,-1
 957 1355 l 1,16,-1
 892 1164 l 1,17,18
 1130.32704163 1063.9614887 1130.32704163 1063.9614887 1193 783.5 c 0,19,20
 1213 694 1213 694 1213 575.5 c 128,-1,21
 1213 457 1213 457 1177.5 345 c 128,-1,22
 1142 233 1142 233 1071 152.5 c 0,23,24
 920.621118012 -18 920.621118012 -18 649 -18 c 0,25,26
 570 -18 570 -18 503 -3 c 1,27,-1
 440 -188 l 1,28,-1
 340 -154 l 1,29,-1
 402 27 l 1,30,31
 85 160.578616352 85 160.578616352 85 592 c 0,32,33
 85 870.845070423 85 870.845070423 228 1036 c 0,34,11
 299 1118 299 1118 404.5 1163.5 c 128,-1,12
562 173 m 1,35,36
 592 163 592 163 659.5 163 c 128,-1,37
 727 163 727 163 785.5 194 c 128,-1,38
 844 225 844 225 882.5 281.5 c 0,39,40
 960 395.233766234 960 395.233766234 960 594 c 0,41,42
 960 861.263157895 960 861.263157895 826 960 c 1,43,-1
 562 173 l 1,35,36
EndSplineSet
EndChar

StartChar: thorn
Encoding: 254 254 194
Width: 1331
GlyphClass: 2
Flags: HW
HStem: -446 21G<154 445> -18 202<550.165 857.67> 1001 203<571.642 844.093>
VStem: 154 292<-437 115 255.984 891 1045 1601> 954 292<303.248 862.724>
LayerCount: 2
Fore
SplineSet
737 184 m 0,0,1
 954 184 954 184 954 592.5 c 128,-1,2
 954 1001 954 1001 715 1001 c 0,3,4
 581.973684211 1001 581.973684211 1001 485.5 923 c 0,5,6
 462 904 462 904 446 891 c 1,7,-1
 446 291 l 1,8,9
 563.490196078 184 563.490196078 184 737 184 c 0,0,1
445 115 m 1,10,-1
 445 -437 l 1,11,-1
 154 -446 l 1,12,-1
 154 1601 l 1,13,-1
 441 1601 l 1,14,-1
 441 1045 l 1,15,16
 491 1120 491 1120 577 1162 c 128,-1,17
 663 1204 663 1204 777 1204 c 128,-1,18
 891 1204 891 1204 982 1155 c 128,-1,19
 1073 1106 1073 1106 1131.5 1021.5 c 0,20,21
 1246 856.111111111 1246 856.111111111 1246 583 c 0,22,23
 1246 312.68 1246 312.68 1118.5 150.5 c 0,24,25
 986.031446541 -18 986.031446541 -18 766.01572327 -18 c 128,-1,26
 546 -18 546 -18 445 115 c 1,10,-1
EndSplineSet
EndChar

StartChar: OE
Encoding: 338 338 196
Width: 2325
GlyphClass: 2
Flags: HW
HStem: -35 227<620.29 989.003> 0 199<1505 2260> 745 186<1505 2154> 1405 202<1505 2249> 1411 224<622.018 989.934>
VStem: 104 309<455.373 1146.58> 1200 305<473.5 931>
LayerCount: 2
Fore
SplineSet
1200 0 m 1,0,-1
 1200 1607 l 1,1,-1
 2249 1607 l 1,2,-1
 2249 1405 l 1,3,-1
 1505 1405 l 1,4,-1
 1505 931 l 1,5,-1
 2154 931 l 1,6,-1
 2154 745 l 1,7,-1
 1505 745 l 1,8,-1
 1505 199 l 1,9,-1
 2260 199 l 1,10,-1
 2260 0 l 1,11,-1
 1200 0 l 1,0,-1
1507 816 m 0,12,13
 1507 628 1507 628 1469.5 473.5 c 128,-1,14
 1432 319 1432 319 1349 206 c 0,15,16
 1171.98230088 -35 1171.98230088 -35 805 -35 c 0,17,18
 324.263157895 -35 324.263157895 -35 171 381 c 0,19,20
 104 562.857142857 104 562.857142857 104 786.428571429 c 128,-1,21
 104 1010 104 1010 148.5 1161.5 c 128,-1,22
 193 1313 193 1313 280.5 1418 c 0,23,24
 461.333333333 1635 461.333333333 1635 805 1635 c 0,25,26
 1151.98122066 1635 1151.98122066 1635 1331.5 1416.5 c 0,27,28
 1507 1202.89142857 1507 1202.89142857 1507 816 c 0,12,13
413 798 m 0,29,30
 413 192 413 192 806 192 c 128,-1,31
 1199 192 1199 192 1199 801.5 c 128,-1,32
 1199 1411 1199 1411 808 1411 c 0,33,34
 501.451754386 1411 501.451754386 1411 434.5 1056 c 0,35,36
 413 942 413 942 413 798 c 0,29,30
EndSplineSet
EndChar

StartChar: oe
Encoding: 339 339 197
Width: 2045
GlyphClass: 2
Flags: HW
HStem: -32 201<501.268 799.93 1377.5 1726.05> 537 153<1226 1719> 1016 199<510.568 790.365 1347.33 1623.96>
VStem: 86 290<320.235 858.111> 926 300<326.197 537 690 857.77> 1719 243<690 910.097>
LayerCount: 2
Fore
SplineSet
1719 690 m 1,0,1
 1719 1013 1719 1013 1487 1016 c 1,2,3
 1368.43927399 1014.05638154 1368.43927399 1014.05638154 1297.5 923 c 0,4,5
 1231.25205601 837.965325628 1231.25205601 837.965325628 1225 690 c 1,6,-1
 1719 690 l 1,0,1
650 1010 m 256,7,8
 376 1010 376 1010 376 589.5 c 128,-1,9
 376 169 376 169 651 169 c 128,-1,10
 926 169 926 169 926 588 c 256,11,12
 926 1010 926 1010 650 1010 c 256,7,8
1535 177 m 0,13,14
 1703 177 1703 177 1839 281 c 1,15,-1
 1905 84 l 1,16,17
 1718.07692308 -24 1718.07692308 -24 1512 -24 c 0,18,19
 1201.69369369 -24 1201.69369369 -24 1076 194 c 1,20,21
 1029.79516129 86.1887096774 1029.79516129 86.1887096774 907.5 24.5 c 0,22,23
 795.49122807 -32 795.49122807 -32 653.745614035 -32 c 128,-1,24
 512 -32 512 -32 406.5 11.5 c 128,-1,25
 301 55 301 55 230 136 c 0,26,27
 86 300.281690141 86 300.281690141 86 587 c 0,28,29
 86 1019.52112676 86 1019.52112676 393.5 1161 c 0,30,31
 500 1210 500 1210 650 1210 c 0,32,33
 966.545454545 1210 966.545454545 1210 1072 970 c 1,34,35
 1179.28484108 1160.72860636 1179.28484108 1160.72860636 1349 1201 c 0,36,37
 1408 1215 1408 1215 1502 1215 c 128,-1,38
 1596 1215 1596 1215 1686 1177.5 c 128,-1,39
 1776 1140 1776 1140 1837.5 1071 c 0,40,41
 1962 931.317073171 1962 931.317073171 1962 685 c 0,42,43
 1962 609 1962 609 1959 537 c 1,44,-1
 1226 537 l 1,45,46
 1228.95914811 267.717521781 1228.95914811 267.717521781 1407 199 c 0,47,48
 1464 177 1464 177 1535 177 c 0,13,14
EndSplineSet
EndChar

StartChar: Scaron
Encoding: 352 352 198
Width: 1325
GlyphClass: 2
Flags: HW
HStem: -34 230.5<395.318 876.45> 1411 225<452.387 940.818>
VStem: 85 287<1108.89 1337.38> 955 291<268.193 541.429>
DStem2: 301 273 284 35 0.945433 -0.325815<-106.916 367.316> 524 1047 413 778 0.929019 -0.370033<-164.834 561.11>
LayerCount: 2
Fore
SplineSet
578 1821 m 1,0,-1
 302 2404 l 1,1,-1
 522 2435 l 1,2,-1
 677 2047 l 1,3,-1
 830 2435 l 1,4,-1
 1050 2404 l 1,5,-1
 773 1821 l 1,6,-1
 578 1821 l 1,0,-1
684.901234568 195.111111111 m 0,7,8
 955 195.111111111 955 195.111111111 955 402 c 0,9,10
 955 566.5 955 566.5 767 637 c 1,11,-1
 413 778 l 1,12,13
 85 905.555555556 85 905.555555556 85 1196 c 0,14,15
 85 1413.52564103 85 1413.52564103 257 1531.5 c 0,16,17
 409.355140187 1636 409.355140187 1636 650 1636 c 0,18,19
 948.9 1636 948.9 1636 1175 1503 c 1,20,-1
 1111 1295 l 1,21,22
 1007.3670412 1357.17977528 1007.3670412 1357.17977528 827.5 1396 c 0,23,24
 758 1411 758 1411 688.5 1411 c 128,-1,25
 619 1411 619 1411 561.5 1402.5 c 128,-1,26
 504 1394 504 1394 462 1372 c 0,27,28
 372 1324.85714286 372 1324.85714286 372 1218 c 0,29,30
 372 1163.93939394 372 1163.93939394 395 1133.96969697 c 0,31,32
 437.82260274 1078.17054795 437.82260274 1078.17054795 524 1047 c 1,33,-1
 869 915 l 1,34,35
 1246 769.65060241 1246 769.65060241 1246 443 c 0,36,37
 1246 225.867132867 1246 225.867132867 1106.5 101 c 0,38,39
 955.6796875 -34 955.6796875 -34 658 -34 c 0,40,41
 475.076923077 -34 475.076923077 -34 284 35 c 0,42,43
 199 65 199 65 127 104 c 1,44,-1
 182 323 l 1,45,46
 451.987654321 195.111111111 451.987654321 195.111111111 684.901234568 195.111111111 c 0,7,8
EndSplineSet
EndChar

StartChar: scaron
Encoding: 353 353 199
Width: 1092
GlyphClass: 2
Flags: HW
HStem: -24 201<312.005 689.632> 1016 199<408.421 788.073>
VStem: 103 259<805.406 978.76> 733 271<220.781 417.166>
DStem2: 483 769 357 560 0.932829 -0.36032<-143.314 369.68>
LayerCount: 2
Fore
SplineSet
450 1393 m 1,0,-1
 174 1976 l 1,1,-1
 394 2007 l 1,2,-1
 549 1619 l 1,3,-1
 702 2007 l 1,4,-1
 922 1976 l 1,5,-1
 645 1393 l 1,6,-1
 450 1393 l 1,0,-1
534 177 m 0,7,8
 733 177 733 177 733 332 c 0,9,10
 733 380 733 380 695 412.5 c 128,-1,11
 657 445 657 445 590 470 c 2,12,-1
 357 560 l 1,13,14
 238.478563152 603.305909618 238.478563152 603.305909618 178.5 668.5 c 0,15,16
 103 750.565217391 103 750.565217391 103 886 c 0,17,18
 103 1040.01694915 103 1040.01694915 228 1129 c 0,19,20
 348.80952381 1215 348.80952381 1215 546 1215 c 0,21,22
 738.142857143 1215 738.142857143 1215 922 1132.5 c 0,23,24
 961 1115 961 1115 969 1109 c 1,25,-1
 903 921 l 1,26,27
 840.593360996 967.804979253 840.593360996 967.804979253 663.5 1004.5 c 0,28,29
 608 1016 608 1016 530 1016 c 128,-1,30
 452 1016 452 1016 407 979.5 c 128,-1,31
 362 943 362 943 362 886 c 0,32,33
 362 843.6 362 843.6 384 823.8 c 0,34,35
 416.125786164 794.886792453 416.125786164 794.886792453 483 769 c 1,36,-1
 675 698 l 2,37,38
 841.184303559 636.213528164 841.184303559 636.213528164 917.5 559 c 0,39,40
 1004 471.482352941 1004 471.482352941 1004 345 c 0,41,42
 1004 168.495867769 1004 168.495867769 876.5 70.5 c 0,43,44
 753.548387097 -24 753.548387097 -24 548 -24 c 0,45,46
 398.675 -24 398.675 -24 249.5 27 c 0,47,48
 145.670157068 62.497382199 145.670157068 62.497382199 109 90 c 1,49,-1
 175 281 l 1,50,51
 203.051094891 259.182481752 203.051094891 259.182481752 283.525547445 231.591240876 c 0,52,53
 442.75 177 442.75 177 534 177 c 0,7,8
EndSplineSet
EndChar

StartChar: florin
Encoding: 402 402 201
Width: 835
GlyphClass: 2
Flags: HW
HStem: 1010 132<50 256 554 845> 1494 217<610.812 877.57>
VStem: 226 297<131.468 648.684> 256 293<778.395 1010 1142 1419.54>
LayerCount: 2
Fore
SplineSet
878 1455 m 1,0,1
 780.5 1494 780.5 1494 724.25 1494 c 128,-1,2
 668 1494 668 1494 639 1476 c 128,-1,3
 610 1458 610 1458 592.5 1417 c 0,4,5
 562.247370099 1346.12240995 562.247370099 1346.12240995 554 1142 c 1,6,-1
 849 1142 l 1,7,-1
 845 1010 l 1,8,-1
 549 1010 l 1,9,-1
 523 365 l 1,10,11
 505.957214934 43.0807265388 505.957214934 43.0807265388 381 -98 c 1,12,13
 308.333333333 -98 308.333333333 -98 233.166666667 -87 c 0,14,15
 89.6666666667 -66 89.6666666667 -66 61 -66 c 1,16,-1
 91 54 l 1,17,18
 91 66.4285714286 91 66.4285714286 108 73.7142857143 c 128,-1,19
 125 81 125 81 137 85.5 c 128,-1,20
 149 90 149 90 160 99 c 1,21,22
 218.815789474 172.519736842 218.815789474 172.519736842 226 318 c 2,23,-1
 256 1010 l 1,24,-1
 46 1010 l 1,25,-1
 50 1142 l 1,26,-1
 260 1142 l 1,27,28
 272.078994614 1439.94853381 272.078994614 1439.94853381 364 1574 c 0,29,30
 457.942857143 1711 457.942857143 1711 660 1711 c 0,31,32
 748 1711 748 1711 860.5 1673.5 c 0,33,34
 886 1665 886 1665 904 1661 c 1,35,-1
 878 1455 l 1,0,1
EndSplineSet
EndChar

StartChar: circumflex
Encoding: 710 710 202
Width: 1331
GlyphClass: 2
Flags: HW
HStem: 611 226<479 900>
LayerCount: 2
Fore
SplineSet
787 837 m 1,0,-1
 1064 254 l 1,1,-1
 843 223 l 1,2,-1
 689 611 l 1,3,-1
 535 223 l 1,4,-1
 316 254 l 1,5,-1
 592 837 l 1,6,-1
 787 837 l 1,0,-1
EndSplineSet
EndChar

StartChar: ring
Encoding: 730 730 203
Width: 1256
GlyphClass: 2
Flags: HW
HStem: 213 138<511.905 744.068> 688 137<512.608 742.749>
VStem: 306 153<404.414 634.194> 797 154<403.898 632.765>
LayerCount: 2
Fore
SplineSet
459 518.5 m 0,0,1
 459 483 459 483 472 452.5 c 128,-1,2
 485 422 485 422 508 399.5 c 0,3,4
 557.577777778 351 557.577777778 351 628 351 c 128,-1,5
 698.422222222 351 698.422222222 351 748 399.5 c 0,6,7
 797 447.434782609 797 447.434782609 797 519 c 256,8,9
 797 589 797 589 747 639 c 0,10,11
 698 688 698 688 628 688 c 0,12,13
 557 688 557 688 508 639 c 128,-1,14
 459 590 459 590 459 518.5 c 0,0,1
629.5 825 m 0,15,16
 695 825 695 825 754 801.5 c 128,-1,17
 813 778 813 778 856.5 737 c 0,18,19
 951 647.931034483 951 647.931034483 951 516 c 256,20,21
 951 386 951 386 852 298 c 0,22,23
 756.375 213 756.375 213 622 213 c 0,24,25
 491.142857143 213 491.142857143 213 399 303 c 0,26,27
 306 393.837209302 306 393.837209302 306 522 c 0,28,29
 306 649.215909091 306 649.215909091 403 738.5 c 0,30,31
 496.975308642 825 496.975308642 825 629.5 825 c 0,15,16
EndSplineSet
EndChar

StartChar: tilde
Encoding: 732 732 204
Width: 1438
GlyphClass: 2
Flags: HW
HStem: 228 198<789.901 948.815> 364 195<510.816 674.507>
VStem: 305 191<246 338.724> 957 198<447.666 529>
DStem2: 743 494 630 342 0.890685 -0.454621<-104.863 181.912>
LayerCount: 2
Fore
SplineSet
558 364 m 0,0,1
 496 364 496 364 496 246 c 1,2,-1
 305 246 l 1,3,4
 305 559 305 559 528 559 c 0,5,6
 592 559 592 559 642.5 539.5 c 128,-1,7
 693 520 693 520 730 501 c 128,-1,8
 767 482 767 482 791 470 c 128,-1,9
 815 458 815 458 837 448 c 0,10,11
 885.4 426 885.4 426 910.7 426 c 128,-1,12
 936 426 936 426 946.5 447 c 128,-1,13
 957 468 957 468 957 529 c 1,14,-1
 1155 529 l 1,15,16
 1155 385 1155 385 1099.5 306.5 c 128,-1,17
 1044 228 1044 228 942 228 c 0,18,19
 851.357142857 228 851.357142857 228 726 293 c 0,20,21
 673 320 673 320 630 342 c 128,-1,22
 587 364 587 364 558 364 c 0,0,1
EndSplineSet
EndChar

StartChar: uni0306
Encoding: 774 774 205
Width: 1103
GlyphClass: 2
Flags: HW
HStem: 1367 138<442.017 655.671> 1648 20G<233 410 687 863>
VStem: 233 177<1545.23 1668> 687 176<1545.23 1668>
LayerCount: 2
Fore
SplineSet
863 1668 m 1,0,1
 863 1367 863 1367 549 1367 c 256,2,3
 233 1367 233 1367 233 1668 c 1,4,-1
 410 1668 l 1,5,6
 410 1583 410 1583 443 1544 c 128,-1,7
 476 1505 476 1505 549 1505 c 256,8,9
 622 1505 622 1505 654.5 1544 c 128,-1,10
 687 1583 687 1583 687 1668 c 1,11,-1
 863 1668 l 1,0,1
EndSplineSet
EndChar

StartChar: uni0E81
Encoding: 3713 3713 206
Width: 1429
GlyphClass: 2
Flags: HW
HStem: 0 139<241.628 353.522> 284 124<255.566 358.172> 698 128<243.654 359> 936 168<742.844 1025.7> 968 136<245.806 347.998>
VStem: 70 167<140.679 273.381 831.48 957.689> 359 267<142.564 284 385 702> 1077 268<0 883.504>
LayerCount: 2
Fore
SplineSet
581 970 m 1,0,1
 782 1104 782 1104 923 1104 c 0,2,3
 1345 1104 1345 1104 1345 658 c 2,4,-1
 1345 0 l 1,5,-1
 1077 0 l 1,6,-1
 1077 705 l 2,7,8
 1077 842.06122449 1077 842.06122449 1029.5 891.5 c 0,9,10
 986.745098039 936 986.745098039 936 889.87254902 935 c 128,-1,11
 793 934 793 934 624 822 c 1,12,13
 626 786 626 786 626 782 c 2,14,-1
 626 333 l 2,15,16
 626 95.7090909091 626 95.7090909091 457 23.5 c 0,17,18
 402 0 402 0 332 0 c 0,19,20
 70 0 70 0 70 213 c 0,21,22
 70 292.423076923 70 292.423076923 126 349.5 c 0,23,24
 183.396226415 408 183.396226415 408 258 408 c 1,25,26
 269 407 269 407 281.5 406.5 c 128,-1,27
 294 406 294 406 306 402 c 2,28,-1
 359 385 l 1,29,-1
 359 702 l 1,30,31
 329 698 329 698 292 698 c 128,-1,32
 255 698 255 698 211 712 c 128,-1,33
 167 726 167 726 134.5 752.5 c 0,34,35
 66 808.353846154 66 808.353846154 66 902.176923077 c 128,-1,36
 66 996 66 996 131 1050 c 128,-1,37
 196 1104 196 1104 331 1104 c 0,38,39
 500 1104 500 1104 581 970 c 1,0,1
235 903 m 1,40,41
 244 831 244 831 306 826 c 1,42,43
 335 826 335 826 359 835 c 1,44,-1
 359 878 l 1,45,46
 352 960 352 960 298 968 c 1,47,48
 235 968 235 968 235 903 c 1,40,41
306 284 m 2,49,50
 237 284 237 284 237 212 c 128,-1,51
 237 140 237 140 297 139 c 1,52,53
 359 141 359 141 359 227 c 2,54,-1
 359 284 l 1,55,-1
 306 284 l 2,49,50
EndSplineSet
EndChar

StartChar: uni0E82
Encoding: 3714 3714 207
Width: 1244
GlyphClass: 2
Flags: HW
HStem: 0 211<271 611.644> 120 211<697.008 1009.96> 550 136<320.504 413.012> 950 154<403.261 866.186>
VStem: 127 176<702.986 832.91> 430 167<698.437 830> 916 264<682.636 900.333>
DStem2: 513 534 506 323 0.951252 0.308414<-192.763 407.029> 573 242 535 18.5 0.947477 0.319824<-121.151 263.197>
LayerCount: 2
Fore
SplineSet
916 811 m 0,0,1
 916 950 916 950 649 950 c 0,2,3
 465.428571429 950 465.428571429 950 402 926 c 1,4,5
 417 929 417 929 441 929 c 128,-1,6
 465 929 465 929 495 914 c 128,-1,7
 525 899 525 899 547.5 874.5 c 0,8,9
 597 820.6 597 820.6 597 764.3 c 128,-1,10
 597 708 597 708 580 671 c 128,-1,11
 563 634 563 634 533 607 c 0,12,13
 469.666666667 550 469.666666667 550 372 550 c 0,14,15
 127 550 127 550 127 788 c 0,16,17
 127 936.659090909 127 936.659090909 262 1019.5 c 0,18,19
 399.703703704 1104 399.703703704 1104 656.351851852 1104 c 128,-1,20
 913 1104 913 1104 1046.5 1027 c 128,-1,21
 1180 950 1180 950 1180 782 c 0,22,23
 1180 563.986486486 1180 563.986486486 907 457 c 0,24,25
 833 428 833 428 762 406 c 2,26,-1
 632 365 l 2,27,28
 424.984615385 300.307692308 424.984615385 300.307692308 408 272 c 0,29,30
 402 262 402 262 402 245 c 0,31,32
 402 211 402 211 455 211 c 0,33,34
 492.75 211 492.75 211 594.875 249 c 128,-1,35
 697 287 697 287 741.5 300 c 0,36,37
 847.615384615 331 847.615384615 331 929.307692308 331 c 0,38,39
 1098.6031746 331 1098.6031746 331 1260 83 c 1,40,-1
 1107 -52 l 1,41,42
 1031 60 1031 60 1001 84 c 0,43,44
 956 120 956 120 892.5 120 c 128,-1,45
 829 120 829 120 770 101 c 128,-1,46
 711 82 711 82 653 59.5 c 0,47,48
 499.622222222 -7.1054273576e-15 499.622222222 -7.1054273576e-15 408 0 c 0,49,50
 134 0 134 0 134 227 c 0,51,52
 134 329.620689655 134 329.620689655 213.5 394.5 c 0,53,54
 294.293835766 460.435199303 294.293835766 460.435199303 513 534 c 2,55,-1
 606 565 l 2,56,57
 662 583 662 583 717.5 599 c 128,-1,58
 773 615 773 615 817 639.5 c 0,59,60
 916 694.625 916 694.625 916 811 c 0,0,1
303 805 m 0,61,62
 305.017487221 685.968253968 305.017487221 685.968253968 366.455694321 685.968253968 c 128,-1,63
 427.89390142 685.968253968 427.89390142 685.968253968 428.94695071 759.984126984 c 128,-1,64
 430 834 430 834 355 834 c 2,65,-1
 306 834 l 1,66,67
 303 820 303 820 303 805 c 0,61,62
EndSplineSet
EndChar

StartChar: uni0E84
Encoding: 3716 3716 208
Width: 1268
GlyphClass: 2
Flags: HW
HStem: 0 139<384.311 484.928> 284 122<373.344 476.918> 521 157<410.133 662> 935 169<437.473 837.228>
VStem: 106 267<163.241 284 386 482.701 709.576 895.485> 496 167<149.784 271.501> 916 267<0 857.483>
LayerCount: 2
Fore
SplineSet
663 216 m 0,0,1
 663 0 663 0 399 0 c 0,2,3
 265.057471264 0 265.057471264 0 186 90.5 c 0,4,5
 106 182.078947368 106 182.078947368 106 333 c 0,6,7
 106 439.272727273 106 439.272727273 175 513.5 c 128,-1,8
 244.157322176 587.89651325 244.157322176 587.89651325 359 602 c 1,9,10
 249.089285714 602 249.089285714 602 178.5 661 c 0,11,12
 106 721.597014925 106 721.597014925 106 799.798507463 c 128,-1,13
 106 878 106 878 133.5 925 c 128,-1,14
 161 972 161 972 205.5 1004.5 c 128,-1,15
 250 1037 250 1037 307.5 1056.5 c 128,-1,16
 365 1076 365 1076 424.5 1086.5 c 0,17,18
 523.666666667 1104 523.666666667 1104 654.333333333 1104 c 128,-1,19
 785 1104 785 1104 887.5 1077.5 c 128,-1,20
 990 1051 990 1051 1055.5 996.5 c 0,21,22
 1183 890.41221374 1183 890.41221374 1183 658 c 2,23,-1
 1183 0 l 1,24,-1
 916 0 l 1,25,-1
 916 654 l 2,26,27
 916 819.318181818 916 819.318181818 854 878.5 c 0,28,29
 794.80952381 935 794.80952381 935 646.404761905 935 c 128,-1,30
 498 935 498 935 435.5 905.5 c 128,-1,31
 373 876 373 876 373 813 c 0,32,33
 373 678 373 678 514 678 c 2,34,-1
 662 678 l 1,35,-1
 662 521 l 1,36,-1
 514 521 l 2,37,38
 438 521 438 521 405.5 489 c 128,-1,39
 373 457 373 457 373 391 c 2,40,-1
 373 386 l 1,41,-1
 395 392 l 2,42,43
 445.75 406 445.75 406 477.875 406 c 128,-1,44
 510 406 510 406 545.5 392 c 128,-1,45
 581 378 581 378 607 353 c 0,46,47
 663 299.153846154 663 299.153846154 663 216 c 0,0,1
373 238 m 2,48,49
 373 139 373 139 434.5 139 c 128,-1,50
 496 139 496 139 496 216 c 0,51,52
 496 244 496 244 477.5 264 c 128,-1,53
 459 284 459 284 424 284 c 2,54,-1
 373 284 l 1,55,-1
 373 238 l 2,48,49
EndSplineSet
EndChar

StartChar: uni0E87
Encoding: 3719 3719 209
Width: 991
GlyphClass: 2
Flags: HW
HStem: -491 149<302.663 604.988> 697 124<230.523 332.19> 964 139<233.885 343 467 583.816>
VStem: 56 167<830.827 946.618> 76 180<-299.982 -179> 343 142<843.691 963.442> 669 268<-261.528 837.983>
LayerCount: 2
Fore
SplineSet
485 884 m 0,0,1
 485 697 485 697 266 697 c 0,2,3
 171.647058824 697 171.647058824 697 114 749.5 c 0,4,5
 56 802.321428571 56 802.321428571 56 896 c 0,6,7
 56 989.32967033 56 989.32967033 151.5 1046 c 0,8,9
 247.555555556 1103 247.555555556 1103 402 1103 c 0,10,11
 937 1103 937 1103 937 590 c 2,12,-1
 937 20 l 2,13,14
 937 -250.104347826 937 -250.104347826 823.5 -371.5 c 0,15,16
 711.772357724 -491 711.772357724 -491 470 -491 c 0,17,18
 78.0129032258 -491 78.0129032258 -491 76 -179 c 1,19,-1
 256 -179 l 1,20,21
 256 -268 256 -268 306 -305 c 128,-1,22
 356 -342 356 -342 438 -342 c 128,-1,23
 520 -342 520 -342 560 -327 c 128,-1,24
 600 -312 600 -312 624 -275 c 0,25,26
 669 -205.625 669 -205.625 669 -17 c 2,27,-1
 669 584 l 2,28,29
 669 876.157894737 669 876.157894737 557 941 c 0,30,31
 519 963 519 963 467 965 c 1,32,33
 485 915 485 915 485 884 c 0,0,1
277 821 m 0,34,35
 343 821 343 821 343 902 c 2,36,-1
 343 964 l 1,37,38
 223 953 223 953 223 884 c 0,39,40
 223 821 223 821 277 821 c 0,34,35
EndSplineSet
EndChar

StartChar: uni0E88
Encoding: 3720 3720 210
Width: 1340
GlyphClass: 2
Flags: HW
HStem: 382 125<542.692 643.719> 656 136<532.015 630.043> 935 169<409.047 879.952>
VStem: 35 238<678 818.736> 353 167<519.974 643.724> 1007 248<132 816.992>
LayerCount: 2
Fore
SplineSet
1007 638 m 2,0,1
 1007 796 1007 796 920 865.5 c 128,-1,2
 833 935 833 935 654 935 c 0,3,4
 376.463917526 935 376.463917526 935 299 790.5 c 0,5,6
 273 742 273 742 273 678 c 1,7,-1
 35 678 l 1,8,9
 36.9857125848 886.499821407 36.9857125848 886.499821407 202.5 996.5 c 0,10,11
 364.252336449 1104 364.252336449 1104 659 1104 c 0,12,13
 1114.27083333 1104 1114.27083333 1104 1220 814 c 0,14,15
 1255 718 1255 718 1255 590 c 2,16,-1
 1255 17 l 1,17,-1
 994 -77 l 1,18,-1
 952 -53 l 2,19,20
 714.863825364 81.6933471933 714.863825364 81.6933471933 654 407 c 1,21,-1
 607 392 l 2,22,23
 573 382 573 382 536 382 c 128,-1,24
 499 382 499 382 464.5 397.5 c 128,-1,25
 430 413 430 413 405.5 439.5 c 0,26,27
 353 496.285714286 353 496.285714286 353 561.142857143 c 128,-1,28
 353 626 353 626 370 665 c 128,-1,29
 387 704 387 704 419 732.5 c 0,30,31
 485.807017544 792 485.807017544 792 611.403508772 792 c 128,-1,32
 737 792 737 792 802 729.5 c 128,-1,33
 867 667 867 667 881 538 c 0,34,35
 902.011176158 331.390101118 902.011176158 331.390101118 960.5 203 c 0,36,37
 981 158 981 158 1007 132 c 1,38,-1
 1007 638 l 2,0,1
643 541 m 2,39,40
 643 656 643 656 582 656 c 0,41,42
 556 656 556 656 538 635.5 c 128,-1,43
 520 615 520 615 520 578 c 0,44,45
 520 507 520 507 606 507 c 2,46,-1
 644 507 l 1,47,48
 643 511 643 511 643 519.5 c 2,49,-1
 643 541 l 2,39,40
EndSplineSet
EndChar

StartChar: uni0E8A
Encoding: 3722 3722 211
Width: 1232
GlyphClass: 2
Flags: HW
HStem: 0 210<336 607.582> 137 205<748.856 1080> 547 139<314.87 425.299> 950 154<400.744 856.598>
VStem: 127 176<689.692 833.414> 430 167<688.991 821.98> 919 263<680.948 893.521> 961 235<-190 123.071>
DStem2: 591 562 507.5 319.5 0.940718 0.339189<-286.637 351.542> 616 258 539 19.5 0.949665 0.313269<-178.175 225.157>
LayerCount: 2
Fore
SplineSet
307 834 m 1,0,1
 303 806 303 806 303 801 c 0,2,3
 306 687 306 687 363 686 c 1,4,5
 430 686 430 686 430 766 c 1,6,7
 425.75 834 425.75 834 350 834 c 2,8,-1
 307 834 l 1,0,1
399 926 m 1,9,10
 409 928 409 928 429.5 928 c 128,-1,11
 450 928 450 928 484.5 915.5 c 128,-1,12
 519 903 519 903 544 880 c 0,13,14
 597 831.24 597 831.24 597 753 c 0,15,16
 597 666.733333333 597 666.733333333 533 607 c 0,17,18
 468.714285714 547 468.714285714 547 373 547 c 0,19,20
 127 547 127 547 127 788 c 0,21,22
 127 936.759398496 127 936.759398496 264.5 1020.5 c 0,23,24
 401.604938272 1104 401.604938272 1104 642 1104 c 0,25,26
 1182 1104 1182 1104 1182 771 c 0,27,28
 1182 648 1182 648 1104 570 c 0,29,30
 1027.98245614 493.98245614 1027.98245614 493.98245614 855 437 c 2,31,-1
 638 365 l 1,32,33
 423.595575221 292.67079646 423.595575221 292.67079646 406.5 269 c 0,34,35
 400 260 400 260 399 249 c 1,36,37
 401.166666667 210 401.166666667 210 441.083333333 210 c 128,-1,38
 481 210 481 210 583.5 246.5 c 128,-1,39
 686 283 686 283 738.5 299.5 c 128,-1,40
 791 316 791 316 831.5 325.5 c 0,41,42
 901.842105263 342 901.842105263 342 964 342 c 0,43,44
 1196 342 1196 342 1196 86 c 2,45,-1
 1196 -190 l 1,46,-1
 961 -190 l 1,47,-1
 961 68 l 2,48,49
 961 110 961 110 944.5 123.5 c 128,-1,50
 928 137 928 137 895.5 137 c 128,-1,51
 863 137 863 137 769.5 100.5 c 128,-1,52
 676 64 676 64 627 47 c 128,-1,53
 578 30 578 30 539 19.5 c 0,54,55
 466.571428571 1.06581410364e-14 466.571428571 1.06581410364e-14 403 0 c 0,56,57
 269 0 269 0 201.5 59 c 128,-1,58
 134 118 134 118 134 227 c 0,59,60
 134 331.68627451 134 331.68627451 223 398 c 0,61,62
 315.354269584 466.81298518 315.354269584 466.81298518 591 562 c 0,63,64
 658 585 658 585 718 603 c 128,-1,65
 778 621 778 621 822.5 644.5 c 0,66,67
 919 695.460674157 919 695.460674157 919 784.730337079 c 128,-1,68
 919 874 919 874 850.5 912 c 128,-1,69
 782 950 782 950 626.5 950 c 128,-1,70
 471 950 471 950 399 926 c 1,9,10
EndSplineSet
EndChar

StartChar: uni0E8D
Encoding: 3725 3725 212
Width: 1258
GlyphClass: 2
Flags: HW
HStem: 0 168<435.924 850.107> 425 157<420.133 672> 697 123<383.344 487.433> 965 139<394.574 494.928>
VStem: 116 267<207.953 393.35 621.407 718 820 940.243> 506 167<830.991 953.754> 926 267<246.017 1104>
LayerCount: 2
Fore
SplineSet
524 425 m 2,0,1
 383 425 383 425 383 290 c 0,2,3
 383 227 383 227 445.5 197.5 c 128,-1,4
 508 168 508 168 619.5 168 c 128,-1,5
 731 168 731 168 783.5 181.5 c 128,-1,6
 836 195 836 195 867.5 228 c 0,7,8
 926 289.285714286 926 289.285714286 926 450 c 2,9,-1
 926 1104 l 1,10,-1
 1193 1104 l 1,11,-1
 1193 446 l 2,12,13
 1193 209.992537313 1193 209.992537313 1067 107.5 c 0,14,15
 934.844036697 -7.1054273576e-15 934.844036697 -7.1054273576e-15 655.422018349 -3.5527136788e-15 c 0,16,17
 116 3.30577225785e-15 116 3.30577225785e-15 116 290 c 0,18,19
 116 382.985074627 116 382.985074627 188.5 442.5 c 0,20,21
 257.242507751 498.93041681 257.242507751 498.93041681 369 501 c 1,22,23
 256.975405254 514.757406372 256.975405254 514.757406372 185.5 590.5 c 0,24,25
 116 664.149253731 116 664.149253731 116 755.074626866 c 128,-1,26
 116 846 116 846 137 907.5 c 128,-1,27
 158 969 158 969 196.5 1012.5 c 0,28,29
 277.482758621 1104 277.482758621 1104 409 1104 c 0,30,31
 673 1104 673 1104 673 887 c 0,32,33
 673 807 673 807 618.5 752.5 c 0,34,35
 563 697 563 697 485 697 c 0,36,37
 448.4 697 448.4 697 405 711 c 2,38,-1
 383 718 l 1,39,-1
 383 712 l 2,40,41
 383 646 383 646 416 614 c 128,-1,42
 449 582 449 582 524 582 c 2,43,-1
 672 582 l 1,44,-1
 672 425 l 1,45,-1
 524 425 l 2,0,1
434 820 m 2,46,47
 506 820 506 820 506 892.5 c 128,-1,48
 506 965 506 965 444.5 965 c 128,-1,49
 383 965 383 965 383 866 c 2,50,-1
 383 820 l 1,51,-1
 434 820 l 2,46,47
EndSplineSet
EndChar

StartChar: uni0E94
Encoding: 3732 3732 213
Width: 1283
GlyphClass: 2
Flags: HW
HStem: 0 139<392.805 495.082> 283 123<382.578 485.402> 935 169<458.084 853.99>
VStem: 116 266<160.662 283 385 859.483> 505 166<149.891 270.663> 929 269<0 857.618>
LayerCount: 2
Fore
SplineSet
653.5 935 m 0,0,1
 577 935 577 935 524.5 921.5 c 128,-1,2
 472 908 472 908 440.5 876 c 0,3,4
 382 816.571428571 382 816.571428571 382 664 c 2,5,-1
 382 385 l 1,6,-1
 419 397 l 2,7,8
 447.8 406 447.8 406 485.4 406 c 128,-1,9
 523 406 523 406 558 391 c 128,-1,10
 593 376 593 376 618 349.5 c 0,11,12
 671 293.32 671 293.32 671 198.66 c 0,13,14
 671 0 671 0 399 0 c 0,15,16
 270.91011236 0 270.91011236 0 194 92.5 c 0,17,18
 116 186.310810811 116 186.310810811 116 335 c 2,19,-1
 116 658 l 2,20,21
 116 891.151515152 116 891.151515152 246 998.5 c 0,22,23
 373.76146789 1104 373.76146789 1104 655 1104 c 0,24,25
 1075.10714286 1104 1075.10714286 1104 1167 855 c 0,26,27
 1198 771 1198 771 1198 658 c 2,28,-1
 1198 0 l 1,29,-1
 929 0 l 1,30,-1
 929 654 l 2,31,32
 929 820.318181818 929 820.318181818 867 879.5 c 0,33,34
 808.857142857 935 808.857142857 935 653.5 935 c 0,0,1
447 139 m 0,35,36
 505 139 505 139 505 212 c 0,37,38
 505 244 505 244 486 263.5 c 128,-1,39
 467 283 467 283 432 283 c 2,40,-1
 382 283 l 1,41,-1
 382 227 l 2,42,43
 382 139 382 139 447 139 c 0,35,36
EndSplineSet
EndChar

StartChar: uni0E95
Encoding: 3733 3733 214
Width: 1566
GlyphClass: 2
Flags: HW
HStem: 0 139<394.107 494.721> 282 127<383.594 502.62> 935 169<417.475 628.109 972.851 1166.87>
VStem: 116 267<160.146 282 387 903.95> 506 167<149.606 277.906> 668 268<526 897.003> 1214 268<0 891.305>
LayerCount: 2
Fore
SplineSet
673 207 m 0,0,1
 673 0 673 0 408 0 c 0,2,3
 276.25 0 276.25 0 196.5 87 c 0,4,5
 116 174.818181818 116 174.818181818 116 318 c 2,6,-1
 116 658 l 2,7,8
 116 890 116 890 214.5 997 c 128,-1,9
 313 1104 313 1104 513 1104 c 0,10,11
 622 1104 622 1104 697.5 1062 c 128,-1,12
 773 1020 773 1020 802 938 c 1,13,14
 831 1014 831 1014 906 1059 c 128,-1,15
 981 1104 981 1104 1093 1104 c 0,16,17
 1482 1104 1482 1104 1482 654 c 2,18,-1
 1482 0 l 1,19,-1
 1214 0 l 1,20,-1
 1214 673 l 2,21,22
 1214 798.482758621 1214 798.482758621 1196.5 843.74137931 c 0,23,24
 1161.21333333 935 1161.21333333 935 1061 935 c 0,25,26
 950.4 935 950.4 935 939 783 c 0,27,28
 936 743 936 743 936 706 c 2,29,-1
 936 526 l 1,30,-1
 668 526 l 1,31,-1
 668 669 l 2,32,33
 668 792.52 668 792.52 653.5 837.76 c 0,34,35
 622.333333333 935 622.333333333 935 537 935 c 0,36,37
 445.461538462 935 445.461538462 935 414.5 889 c 0,38,39
 383 842.2 383 842.2 383 706 c 2,40,-1
 383 387 l 1,41,-1
 421 399 l 2,42,43
 451 409 451 409 487 409 c 128,-1,44
 523 409 523 409 557.5 393.5 c 128,-1,45
 592 378 592 378 617.5 351 c 0,46,47
 673 292.235294118 673 292.235294118 673 207 c 0,0,1
383 222 m 2,48,49
 383 139 383 139 448 139 c 0,50,51
 474 139 474 139 490 157.5 c 128,-1,52
 506 176 506 176 506 212 c 0,53,54
 505 282 505 282 432 282 c 2,55,-1
 383 282 l 1,56,-1
 383 222 l 2,48,49
EndSplineSet
EndChar

StartChar: uni0E96
Encoding: 3734 3734 215
Width: 1352
GlyphClass: 2
Flags: HW
HStem: 0 139<556.343 653.722> 283 122<545.547 659.688> 718 145<163.487 275.937> 935 169<608.265 945.672> 981 123<171.153 267.338>
VStem: -5 167<863.616 972.063> 277 268<144.861 283 386 724 864.772 881.194> 667 166<149.247 276.647> 1031 268<-311 846.432>
LayerCount: 2
Fore
SplineSet
-5 910 m 0,0,1
 -5 1104 -5 1104 235 1104 c 0,2,3
 382 1104 382 1104 480 1009 c 1,4,5
 638 1104 638 1104 801 1104 c 0,6,7
 1032.50442478 1104 1032.50442478 1104 1165.5 987.5 c 0,8,9
 1299 870.558139535 1299 870.558139535 1299 662 c 2,10,-1
 1299 -311 l 1,11,-1
 1031 -311 l 1,12,-1
 1031 661 l 2,13,14
 1031 801 1031 801 971 868 c 128,-1,15
 911 935 911 935 792.302325581 935 c 128,-1,16
 673.604651163 935 673.604651163 935 545 856 c 1,17,-1
 545 386 l 1,18,-1
 580 398 l 2,19,20
 599.6 405 599.6 405 639.8 405 c 128,-1,21
 680 405 680 405 715 390.5 c 128,-1,22
 750 376 750 376 776 349.5 c 0,23,24
 833 291.403846154 833 291.403846154 833 207 c 0,25,26
 833 0 833 0 559 0 c 0,27,28
 430.91011236 0 430.91011236 0 354 92.5 c 128,-1,29
 277 185.108108108 277 185.108108108 277 339 c 2,30,-1
 277 724 l 1,31,32
 245 718 245 718 201 718 c 256,33,34
 113.36 718 113.36 718 54 771 c 0,35,36
 -5 823.678571429 -5 823.678571429 -5 910 c 0,0,1
667 208 m 1,37,38
 661 280 661 280 591 283 c 1,39,-1
 545 283 l 1,40,-1
 545 226 l 1,41,42
 556 146 556 146 606 139 c 1,43,44
 631 139 631 139 649 156 c 128,-1,45
 667 173 667 173 667 208 c 1,37,38
277 878 m 1,46,47
 273 981 273 981 218.574074074 981 c 128,-1,48
 164.148148148 981 164.148148148 981 163.574074074 922 c 128,-1,49
 163 863 163 863 212 863 c 0,50,51
 241 863 241 863 277 878 c 1,46,47
EndSplineSet
EndChar

StartChar: uni0E97
Encoding: 3735 3735 216
Width: 1455
GlyphClass: 2
Flags: HW
HStem: 0 167<436.392 609.761> 697 124<186.799 265.376> 935 169<939.07 1075.87> 965 139<194.203 307.528>
VStem: 15 167<827.038 953.695> 162 252<185.463 484.656> 318 234<822.75 953.716> 652 267<206.375 918.635> 1112 268<0 920.681>
DStem2: 181 398 419 346 0.263422 0.964681<-103.673 318.548 438.617 520.873>
LayerCount: 2
Fore
SplineSet
919 463 m 2,0,1
 919 0 919 0 528 0 c 0,2,3
 348 0 348 0 255 75 c 128,-1,4
 162 150 162 150 162 295 c 0,5,6
 162 324.375 162 324.375 181 398 c 1,7,-1
 266 705 l 1,8,9
 239.333333333 697 239.333333333 697 200.166666667 697 c 128,-1,10
 161 697 161 697 127 713 c 128,-1,11
 93 729 93 729 68 756.5 c 0,12,13
 15 814.8 15 814.8 15 904.9 c 128,-1,14
 15 995 15 995 81.5 1049.5 c 128,-1,15
 148 1104 148 1104 284 1104 c 0,16,17
 396.056603774 1104 396.056603774 1104 472.5 1048.5 c 0,18,19
 552 990.780821918 552 990.780821918 552 902 c 0,20,21
 552 867 552 867 543 839 c 1,22,-1
 419 346 l 1,23,24
 414 316 414 316 414 299 c 2,25,-1
 414 288 l 1,26,27
 421 167 421 167 525 167 c 0,28,29
 596 167 596 167 624 237 c 128,-1,30
 652 307 652 307 652 457 c 2,31,-1
 652 737 l 2,32,33
 652 927 652 927 745.5 1015.5 c 128,-1,34
 839 1104 839 1104 1026 1104 c 128,-1,35
 1213 1104 1213 1104 1296.5 1000.5 c 128,-1,36
 1380 897 1380 897 1380 683 c 2,37,-1
 1380 0 l 1,38,-1
 1112 0 l 1,39,-1
 1112 685 l 2,40,41
 1112 836.454545455 1112 836.454545455 1096 875.727272727 c 128,-1,42
 1080 915 1080 915 1063 925 c 128,-1,43
 1046 935 1046 935 1019 935 c 128,-1,44
 992 935 992 935 972.5 925.5 c 128,-1,45
 953 916 953 916 941 895.5 c 0,46,47
 919 857.916666667 919 857.916666667 919 760 c 2,48,-1
 919 463 l 2,0,1
248 965 m 0,49,50
 182 965 182 965 182 892 c 1,51,52
 184 821 184 821 268 821 c 2,53,-1
 297 821 l 1,54,-1
 314 879 l 1,55,56
 318 886 318 886 318 907.5 c 128,-1,57
 318 929 318 929 300 947 c 128,-1,58
 282 965 282 965 248 965 c 0,49,50
EndSplineSet
EndChar

StartChar: uni0E99
Encoding: 3737 3737 217
Width: 1420
GlyphClass: 2
Flags: HW
HStem: 0 167<124 261.5 694.82 1020.73> 698 123<254.145 353.039> 965 139<237.198 348.237>
VStem: 66 167<833.333 963.512> 355 267<263.832 719 821 960.343> 1088 267<233.678 1104>
LayerCount: 2
Fore
SplineSet
1355 470 m 2,0,1
 1355 0 1355 0 864 0 c 0,2,3
 709 0 709 0 609 59 c 128,-1,4
 509 118 509 118 480 235 c 1,5,6
 425.446428571 -7.1054273576e-14 425.446428571 -7.1054273576e-14 124 0 c 1,7,-1
 124 170 l 1,8,9
 355 171 355 171 355 465 c 2,10,-1
 355 719 l 1,11,12
 292 698 292 698 256 698 c 128,-1,13
 220 698 220 698 184 712 c 128,-1,14
 148 726 148 726 122 752.5 c 0,15,16
 66 809.576923077 66 809.576923077 66 902.788461538 c 128,-1,17
 66 996 66 996 131.5 1050 c 128,-1,18
 197 1104 197 1104 336 1104 c 0,19,20
 464.411764706 1104 464.411764706 1104 542.5 1015.5 c 0,21,22
 622 925.4 622 925.4 622 777 c 2,23,-1
 622 467 l 2,24,25
 622 297.035714286 622 297.035714286 676 230.5 c 0,26,27
 727.536231884 167 727.536231884 167 857 167 c 0,28,29
 987 167 987 167 1038 226.5 c 0,30,31
 1088 284.833333333 1088 284.833333333 1088 436 c 2,32,-1
 1088 1104 l 1,33,-1
 1355 1104 l 1,34,-1
 1355 470 l 2,0,1
291 965 m 1,35,36
 233 965 233 965 233 893 c 128,-1,37
 233 821 233 821 312 821 c 2,38,-1
 355 821 l 1,39,-1
 355 877 l 2,40,41
 355 961 355 961 291 965 c 1,35,36
EndSplineSet
EndChar

StartChar: uni0E9A
Encoding: 3738 3738 218
Width: 1344
GlyphClass: 2
Flags: HW
HStem: 0 167<496.956 913.201> 697 122<185.966 265.062> 965 139<186.661 305.632>
VStem: 15 167<826.063 963.206> 176 251<230.441 541.938> 316 226<820.422 894 897 945.919> 1001 268<251.397 1104>
DStem2: 194 445 446 448 0.267527 0.96355<-51.7801 270.749 388.619 503.049>
LayerCount: 2
Fore
SplineSet
542 871 m 0,0,1
 542 828.115384615 542 828.115384615 493 634 c 2,2,-1
 446 448 l 2,3,4
 427 375 427 375 427 333 c 128,-1,5
 427 291 427 291 445 262 c 128,-1,6
 463 233 463 233 496.5 212 c 0,7,8
 568.285714286 167 568.285714286 167 672.142857143 167 c 128,-1,9
 776 167 776 167 836 180.5 c 128,-1,10
 896 194 896 194 933 225 c 0,11,12
 1001 281.972972973 1001 281.972972973 1001 428 c 2,13,-1
 1001 1104 l 1,14,-1
 1269 1104 l 1,15,-1
 1269 478 l 2,16,17
 1269 229 1269 229 1127 114.5 c 128,-1,18
 985 0 985 0 691 0 c 0,19,20
 447.5 0 447.5 0 311 91 c 0,21,22
 176 181 176 181 176 340 c 0,23,24
 176 379.75 176 379.75 194 445 c 2,25,-1
 266 706 l 1,26,27
 236 697 236 697 200.5 697 c 128,-1,28
 165 697 165 697 130.5 712.5 c 128,-1,29
 96 728 96 728 70.5 755 c 0,30,31
 15 813.764705882 15 813.764705882 15 903.382352941 c 128,-1,32
 15 993 15 993 78.5 1048.5 c 128,-1,33
 142 1104 142 1104 264.93442623 1104 c 128,-1,34
 387.868852459 1104 387.868852459 1104 464.93442623 1038.70833333 c 128,-1,35
 542 973.416666667 542 973.416666667 542 871 c 0,0,1
317 897 m 1,36,37
 317 965 317 965 243 965 c 0,38,39
 182 965 182 965 182 889 c 0,40,41
 182 820 182 820 272 819 c 1,42,-1
 278 819 l 1,43,44
 279 820 279 820 288 820 c 2,45,-1
 296 820 l 1,46,-1
 305 847 l 1,47,48
 316 876.333333333 316 876.333333333 316 894 c 1,49,-1
 317 897 l 1,36,37
EndSplineSet
EndChar

StartChar: uni0E9B
Encoding: 3739 3739 219
Width: 1353
GlyphClass: 2
Flags: HW
HStem: 0 167<496.439 910.881> 697 122<185.466 266.469> 965 139<186.833 307.594>
VStem: 15 167<824.465 960.73> 176 251<228.775 539.695> 317 225<819.489 954.885> 1009 268<263.164 1427>
DStem2: 204 481 446 448 0.263569 0.964641<-89.2595 232.684 350.56 435.736>
LayerCount: 2
Fore
SplineSet
267 705 m 1,0,1
 233 697 233 697 199 697 c 128,-1,2
 165 697 165 697 131 712.5 c 128,-1,3
 97 728 97 728 71 754.5 c 0,4,5
 15 811.576923077 15 811.576923077 15 896 c 0,6,7
 15 989.507246377 15 989.507246377 86.5 1046.5 c 0,8,9
 158.636363636 1104 158.636363636 1104 281 1104 c 0,10,11
 393.612903226 1104 393.612903226 1104 467 1039 c 0,12,13
 542 972.571428571 542 972.571428571 542 870 c 0,14,15
 542 829 542 829 516 725 c 2,16,-1
 446 448 l 2,17,18
 427 375 427 375 427 326 c 0,19,20
 427 253 427 253 495.5 210 c 128,-1,21
 564 167 564 167 677 167 c 128,-1,22
 790 167 790 167 847.5 183.5 c 128,-1,23
 905 200 905 200 941 234.5 c 0,24,25
 1009 299.666666667 1009 299.666666667 1009 451 c 2,26,-1
 1009 1427 l 1,27,-1
 1277 1427 l 1,28,-1
 1277 483 l 2,29,30
 1277 112.704545455 1277 112.704545455 952 28.5 c 0,31,32
 842 0 842 0 707.5 0 c 128,-1,33
 573 0 573 0 477 23 c 128,-1,34
 381 46 381 46 314 90 c 0,35,36
 176 180.626865672 176 180.626865672 176 339 c 0,37,38
 176 376.636363636 176 376.636363636 204 481 c 1,39,-1
 267 705 l 1,0,1
317 902 m 1,40,41
 317 965 317 965 253 965 c 1,42,43
 182 963 182 963 182 891 c 128,-1,44
 182 819 182 819 266 819 c 2,45,-1
 297 819 l 1,46,-1
 308 857 l 2,47,48
 313 874 313 874 314.5 885.5 c 128,-1,49
 316 897 316 897 317 902 c 1,40,41
EndSplineSet
EndChar

StartChar: uni0E9C
Encoding: 3740 3740 220
Width: 1577
GlyphClass: 2
Flags: HW
HStem: 0 167<436.696 608.098 960.085 1130.14> 698 123<405.407 505.339 1051.81 1169.75> 965 139<410.858 518.073 1058.09 1158.58>
VStem: 137 267<201.126 717 821 961.262> 527 167<835.316 954.028> 652 268<228.374 555> 881 166<827.179 953.188> 1170 267<226.312 705> 1398 165<977.132 1231>
LayerCount: 2
Fore
SplineSet
1170 877 m 2,0,1
 1170 962.9 1170 962.9 1107 965 c 0,2,3
 1083 965 1083 965 1065 946.5 c 128,-1,4
 1047 928 1047 928 1047 894 c 0,5,6
 1047 821 1047 821 1132 821 c 2,7,-1
 1152.5 821 l 2,8,9
 1162 821 1162 821 1170 822 c 1,10,-1
 1170 877 l 2,0,1
446 821 m 1,11,12
 527 825.153846154 527 825.153846154 527 895.076923077 c 128,-1,13
 527 965 527 965 468 965 c 1,14,15
 404 961 404 961 404 877 c 2,16,-1
 404 821 l 1,17,-1
 446 821 l 1,11,12
1170 705 m 1,18,19
 1136.75 698 1136.75 698 1085.875 698 c 128,-1,20
 1035 698 1035 698 999 712.5 c 128,-1,21
 963 727 963 727 936.5 753.5 c 0,22,23
 881 809 881 809 881 900 c 0,24,25
 881 1104 881 1104 1149 1104 c 0,26,27
 1311.85714286 1104 1311.85714286 1104 1385 976 c 1,28,29
 1398 1012 1398 1012 1398 1077 c 2,30,-1
 1398 1231 l 1,31,-1
 1563 1231 l 1,32,-1
 1563 1077 l 2,33,34
 1563 927.53125 1563 927.53125 1432 817 c 1,35,36
 1437 754.5 1437 754.5 1437 734 c 2,37,-1
 1437 482 l 2,38,39
 1437 0 1437 0 1083 0 c 0,40,41
 823.566037736 0 823.566037736 0 783 215 c 1,42,43
 744 0 744 0 485 0 c 0,44,45
 137 0 137 0 137 482 c 2,46,-1
 137 764 l 2,47,48
 137 1005.73584906 137 1005.73584906 301 1080 c 0,49,50
 354 1104 354 1104 422 1104 c 0,51,52
 694 1104 694 1104 694 899 c 0,53,54
 694 813.076923077 694 813.076923077 640 757 c 0,55,56
 583.185185185 698 583.185185185 698 498 698 c 0,57,58
 449 698 449 698 404 717 c 1,59,-1
 404 405 l 2,60,61
 404 272.133333333 404 272.133333333 426 231.066666667 c 128,-1,62
 448 190 448 190 470.5 178.5 c 128,-1,63
 493 167 493 167 523 167 c 0,64,65
 652 167 652 167 652 405 c 2,66,-1
 652 555 l 1,67,-1
 920 555 l 1,68,-1
 920 407 l 2,69,70
 920 167 920 167 1048 167 c 256,71,72
 1114 167 1114 167 1142 224.5 c 128,-1,73
 1170 282 1170 282 1170 403 c 2,74,-1
 1170 705 l 1,18,19
EndSplineSet
EndChar

StartChar: uni0E9D
Encoding: 3741 3741 221
Width: 1555
GlyphClass: 2
Flags: HW
HStem: 0 167<438.732 644.508 995.667 1190.08> 698 123<405.146 517.257> 965 139<409.378 513.633>
VStem: 136 267<206.375 718 821 961.875> 526 166<831.396 952.541> 686 268<224.252 555> 1232 268<209.885 1427>
LayerCount: 2
Fore
SplineSet
1500 482 m 2,0,1
 1500 0 1500 0 1128 0 c 0,2,3
 862 0 862 0 820 207 c 1,4,-1
 818 215 l 1,5,6
 799 109 799 109 727 54.5 c 128,-1,7
 655 0 655 0 543 0 c 128,-1,8
 431 0 431 0 355 30.5 c 128,-1,9
 279 61 279 61 230 121.5 c 0,10,11
 136 237.56122449 136 237.56122449 136 482 c 2,12,-1
 136 774 l 2,13,14
 136 917.780821918 136 917.780821918 212.5 1010 c 0,15,16
 290.477272727 1104 290.477272727 1104 416 1104 c 0,17,18
 692 1104 692 1104 692 902 c 0,19,20
 692 762.152777778 692 762.152777778 579 713.5 c 0,21,22
 543 698 543 698 507.5 698 c 128,-1,23
 472 698 472 698 403 718 c 1,24,-1
 403 405 l 2,25,26
 403 209.754716981 403 209.754716981 479.5 178 c 0,27,28
 506 167 506 167 543 167 c 0,29,30
 622 167 622 167 654 224 c 128,-1,31
 686 281 686 281 686 405 c 2,32,-1
 686 555 l 1,33,-1
 954 555 l 1,34,-1
 954 405 l 2,35,36
 954 278 954 278 987.5 222.5 c 128,-1,37
 1021 167 1021 167 1094.5 167 c 128,-1,38
 1168 167 1168 167 1200 224.5 c 128,-1,39
 1232 282 1232 282 1232 405 c 2,40,-1
 1232 1427 l 1,41,-1
 1500 1427 l 1,42,-1
 1500 482 l 2,0,1
468 965 m 0,43,44
 403 965 403 965 403 877 c 2,45,-1
 403 821 l 1,46,-1
 444 821 l 1,47,48
 522 832 522 832 526 899 c 1,49,50
 526 926 526 926 511 945.5 c 128,-1,51
 496 965 496 965 468 965 c 0,43,44
EndSplineSet
EndChar

StartChar: uni0E9E
Encoding: 3742 3742 222
Width: 1516
GlyphClass: 2
Flags: HW
HStem: 0 167<448.272 631.238 968.964 1151.63> 697 123<202.631 264.5> 965 139<187.513 305.173>
VStem: 15 167<831.801 960.517> 175 252<184.112 537.578> 316 226<821.031 955.826> 663 268<231.776 1103> 1184 267<220.124 1104>
DStem2: 193 443 441 431 0.263675 0.964612<-67.917 271.713 390.817 473.982>
LayerCount: 2
Fore
SplineSet
265 705 m 1,0,1
 233 697 233 697 198.5 697 c 128,-1,2
 164 697 164 697 129.5 712 c 128,-1,3
 95 727 95 727 69.5 754 c 0,4,5
 15 811.705882353 15 811.705882353 15 902.352941176 c 128,-1,6
 15 993 15 993 77 1048.5 c 128,-1,7
 139 1104 139 1104 269 1104 c 0,8,9
 383.322033898 1104 383.322033898 1104 461.5 1042.5 c 0,10,11
 542 979.173333333 542 979.173333333 542 881 c 0,12,13
 542 854 542 854 530 790 c 1,14,-1
 441 431 l 1,15,16
 427 347 427 347 427 308 c 0,17,18
 427 168 427 168 530 167 c 0,19,20
 606.41509434 167 606.41509434 167 635 217.5 c 0,21,22
 663 266.966666667 663 266.966666667 663 384 c 2,23,-1
 663 1103 l 1,24,-1
 931 1103 l 1,25,-1
 931 384 l 2,26,27
 931 266 931 266 963.5 216.5 c 128,-1,28
 996 167 996 167 1063.5 167 c 128,-1,29
 1131 167 1131 167 1157.5 218.5 c 128,-1,30
 1184 270 1184 270 1184 383 c 2,31,-1
 1184 1104 l 1,32,-1
 1451 1104 l 1,33,-1
 1451 483 l 2,34,35
 1451 0 1451 0 1097 0 c 0,36,37
 845 0 845 0 796 231 c 1,38,39
 778 122 778 122 704 61 c 128,-1,40
 630 0 630 0 496 0 c 0,41,42
 265.295652174 0 265.295652174 0 197 178.5 c 0,43,44
 175 236 175 236 175 289 c 0,45,46
 175 380 175 380 193 443 c 2,47,-1
 265 705 l 1,0,1
316 901 m 0,48,49
 316 965 316 965 247 965 c 1,50,51
 187 959 187 959 182 894 c 1,52,53
 182 855 182 855 202 837.5 c 128,-1,54
 222 820 222 820 267 820 c 2,55,-1
 296 820 l 1,56,-1
 308 863 l 2,57,58
 310 871 310 871 313 882 c 128,-1,59
 316 893 316 893 316 901 c 0,48,49
EndSplineSet
EndChar

StartChar: uni0E9F
Encoding: 3743 3743 223
Width: 1512
GlyphClass: 2
Flags: HW
HStem: 0 167<437.582 612.913 952.538 1137.91> 978 126<175.273 304.928>
VStem: 15 153<841.971 970.863> 161 251<188.836 536.016> 307 229<853 974.918> 649 267<232.368 1103> 1169 267<208.011 1428>
DStem2: 182 452 433 451 0.2617 0.965149<-62.076 293.288 382.274 483.437>
LayerCount: 2
Fore
SplineSet
481 0 m 1,0,1
 161 2 161 2 161 317 c 0,2,3
 161 377.692307692 161 377.692307692 182 452 c 2,4,-1
 259 735 l 1,5,6
 229 722 229 722 166 722 c 128,-1,7
 103 722 103 722 59 771 c 128,-1,8
 15 820 15 820 15 909.5 c 128,-1,9
 15 999 15 999 80 1051.5 c 128,-1,10
 145 1104 145 1104 280 1104 c 0,11,12
 389.36 1104 389.36 1104 462.5 1051 c 0,13,14
 536 997.739130435 536 997.739130435 536 916 c 256,15,16
 536 875 536 875 515 787 c 2,17,-1
 433 451 l 2,18,19
 412 365.384615385 412 365.384615385 412 325 c 0,20,21
 412 167 412 167 519 167 c 0,22,23
 625.43902439 167 625.43902439 167 643 287 c 0,24,25
 649 328 649 328 649 384 c 2,26,-1
 649 1103 l 1,27,-1
 916 1103 l 1,28,-1
 916 383 l 2,29,30
 916 267 916 267 948 217 c 128,-1,31
 980 167 980 167 1048 167 c 0,32,33
 1116.32075472 167 1116.32075472 167 1143 217.5 c 0,34,35
 1169 266.714285714 1169 266.714285714 1169 384 c 2,36,-1
 1169 1428 l 1,37,-1
 1436 1428 l 1,38,-1
 1436 483 l 2,39,40
 1436 0 1436 0 1083 0 c 0,41,42
 826.2 0 826.2 0 780 231 c 1,43,44
 736 7 736 7 491 0 c 1,45,-1
 481 0 l 1,0,1
238 978 m 1,46,47
 172 967 172 967 168 908 c 1,48,49
 168 860 168 860 194.5 845 c 128,-1,50
 221 830 221 830 286 830 c 1,51,-1
 293 853 l 1,52,-1
 307 913 l 1,53,-1
 307 919 l 1,54,55
 306 976 306 976 238 978 c 1,46,47
EndSplineSet
EndChar

StartChar: uni0EA1
Encoding: 3745 3745 224
Width: 1664
GlyphClass: 2
Flags: HW
HStem: 0 167<923.8 1230.56> 0 140<233.43 321.826> 283 124<211.862 309.483>
VStem: 35 168<156.903 272.222> 323 141<166.599 263.918> 571 268<260.117 1104> 1311 267<248.902 1104>
LayerCount: 2
Fore
SplineSet
896 240 m 128,-1,1
 953 167 953 167 1077 167 c 128,-1,2
 1201 167 1201 167 1256 233.5 c 128,-1,3
 1311 300 1311 300 1311 438 c 2,4,-1
 1311 1104 l 1,5,-1
 1578 1104 l 1,6,-1
 1578 478 l 2,7,8
 1578 0 1578 0 1087 0 c 0,9,10
 854.045454545 0 854.045454545 0 750.5 136 c 0,11,12
 717 180 717 180 703 236 c 1,13,14
 677.046340952 128.192493185 677.046340952 128.192493185 569.5 64.5 c 0,15,16
 460.590163934 -2.13162820728e-14 460.590163934 -2.13162820728e-14 315 0 c 0,17,18
 114.4625 0 114.4625 0 54.5 123 c 0,19,20
 35 163 35 163 35 209 c 128,-1,21
 35 255 35 255 50 290.5 c 128,-1,22
 65 326 65 326 92 351.5 c 0,23,24
 150.764705882 407 150.764705882 407 250.382352941 407 c 128,-1,25
 350 407 350 407 407 360 c 128,-1,26
 464 313 464 313 464 225 c 0,27,28
 464 185 464 185 454 166 c 1,29,30
 571 239 571 239 571 470 c 2,31,-1
 571 1104 l 1,32,-1
 839 1104 l 1,33,-1
 839 477 l 2,34,0
 839 313 839 313 896 240 c 128,-1,1
323 212 m 1,35,36
 314.647058824 283 314.647058824 283 261 283 c 0,37,38
 231 283 231 283 217 263.5 c 128,-1,39
 203 244 203 244 203 210 c 128,-1,40
 203 176 203 176 232.5 160 c 128,-1,41
 262 144 262 144 323 140 c 1,42,-1
 323 212 l 1,35,36
EndSplineSet
EndChar

StartChar: uni0EA2
Encoding: 3746 3746 225
Width: 1277
GlyphClass: 2
Flags: HW
HStem: 0 168<429.813 864.922> 425 157<431.133 683> 696 124<395.152 496.372> 965 139<401.311 511.422>
VStem: 127 267<208.245 394.373 619.668 718 820 961.972> 517 167<831.537 961.933> 937 267<240.867 1431.45>
LayerCount: 2
Fore
SplineSet
535 425 m 2,0,1
 394 425 394 425 394 293 c 0,2,3
 394 195.039215686 394 195.039215686 540 175 c 0,4,5
 591 168 591 168 665.5 168 c 128,-1,6
 740 168 740 168 792.5 180.5 c 128,-1,7
 845 193 845 193 877 222.5 c 0,8,9
 937 277.8125 937 277.8125 937 423 c 2,10,-1
 937 1073 l 2,11,12
 937 1330 937 1330 1001 1489 c 1,13,-1
 1253 1489 l 1,14,15
 1204 1286.31818182 1204 1286.31818182 1204 1050 c 2,16,-1
 1204 446 l 2,17,18
 1204 210.582089552 1204 210.582089552 1073 105 c 0,19,20
 942.722222222 4.97379915032e-14 942.722222222 4.97379915032e-14 663 0 c 0,21,22
 127 0 127 0 127 290 c 0,23,24
 127 383.910447761 127 383.910447761 196.5 442 c 0,25,26
 267.089285714 501 267.089285714 501 380 501 c 1,27,28
 268.439461883 512.952914798 268.439461883 512.952914798 198 586.5 c 0,29,30
 127 660.632352941 127 660.632352941 127 771 c 0,31,32
 127 921.142857143 127 921.142857143 206.5 1012 c 0,33,34
 287 1104 287 1104 420 1104 c 0,35,36
 684 1104 684 1104 684 887 c 0,37,38
 684 804.277777778 684 804.277777778 626 749.5 c 0,39,40
 569.352941176 696 569.352941176 696 486 696 c 0,41,42
 461.833333333 696 461.833333333 696 394 718 c 1,43,-1
 394 712 l 2,44,45
 394 582 394 582 535 582 c 2,46,-1
 683 582 l 1,47,-1
 683 425 l 1,48,-1
 535 425 l 2,0,1
455 965 m 1,49,50
 394 964 394 964 394 866 c 2,51,-1
 394 820 l 1,52,-1
 445 820 l 2,53,54
 477 820 477 820 497 838 c 128,-1,55
 517 856 517 856 517 888 c 0,56,57
 517 965 517 965 455 965 c 1,49,50
EndSplineSet
EndChar

StartChar: uni0EA3
Encoding: 3747 3747 226
Width: 1271
GlyphClass: 2
Flags: HW
HStem: 0 164<356.379 860.967> 429 137<271.939 378.074> 935 169<378.62 884.537>
VStem: 86 175<283.735 424.39> 389 166<295.681 417.225> 929 242<764 890.295> 957 248<244.247 444.848>
DStem2: 513.5 784.5 380 602.5 0.97556 -0.219733<-140.897 477.6>
LayerCount: 2
Fore
SplineSet
100 873 m 0,0,1
 100 1104 100 1104 613 1104 c 0,2,3
 918.285714286 1104 918.285714286 1104 1046 1029.5 c 0,4,5
 1171 956.583333333 1171 956.583333333 1171 785 c 2,6,-1
 1171 764 l 1,7,-1
 929 764 l 1,8,-1
 929 789 l 2,9,10
 929 874.283783784 929 874.283783784 859 905.5 c 0,11,12
 792.848484848 935 792.848484848 935 669.924242424 935 c 128,-1,13
 547 935 547 935 499 931.5 c 128,-1,14
 451 928 451 928 422 920 c 0,15,16
 368 905.103448276 368 905.103448276 368 869 c 1,17,18
 370.006369427 828.872611465 370.006369427 828.872611465 423 809 c 0,19,20
 472.360544218 790.489795918 472.360544218 790.489795918 642.680272109 759.244897959 c 128,-1,21
 813 728 813 728 915 695.5 c 128,-1,22
 1017 663 1017 663 1081.5 617.5 c 0,23,24
 1205 530.379844961 1205 530.379844961 1205 361 c 0,25,26
 1205 193.321917808 1205 193.321917808 1053 96.5 c 0,27,28
 901.505376344 -7.81597009336e-14 901.505376344 -7.81597009336e-14 644 0 c 0,29,30
 392.823529412 0 392.823529412 0 241.5 87.5 c 0,31,32
 86 177.414965986 86 177.414965986 86 328 c 0,33,34
 86 443 86 443 145.5 504.5 c 128,-1,35
 205 566 205 566 326 566 c 0,36,37
 423.075471698 566 423.075471698 566 488 510.5 c 0,38,39
 555 453.225806452 555 453.225806452 555 364 c 0,40,41
 555 295.695652174 555 295.695652174 506 243.5 c 0,42,43
 455.775510204 190 455.775510204 190 386 190 c 1,44,-1
 354 195 l 1,45,46
 425 164 425 164 635 164 c 0,47,48
 861.567164179 164 861.567164179 164 934 269.5 c 0,49,50
 957 303 957 303 957 344 c 128,-1,51
 957 385 957 385 938.5 415.5 c 128,-1,52
 920 446 920 446 873.5 471.5 c 0,53,54
 787.405940594 518.712871287 787.405940594 518.712871287 624.202970297 550.856435644 c 128,-1,55
 461 583 461 583 380 602.5 c 128,-1,56
 299 622 299 622 236.5 654.5 c 0,57,58
 100 725.48 100 725.48 100 873 c 0,0,1
389 352 m 0,59,60
 389 426.862068966 389 426.862068966 327 429 c 1,61,62
 263 428 263 428 261 316 c 0,63,64
 261 309.5 261 309.5 266 282 c 1,65,-1
 302 282 l 1,66,67
 389 286.142857143 389 286.142857143 389 352 c 0,59,60
EndSplineSet
EndChar

StartChar: uni0EA5
Encoding: 3749 3749 227
Width: 1295
GlyphClass: 2
Flags: HW
HStem: 0 208<881.173 963.463> 0 139<311.172 413.331> 283 123<319.186 421.699> 470 165<338.359 543.589> 935 169<457.662 880.725>
VStem: 96 207<142.054 283> 145 216<736 844.835> 425 156<151.745 279.009> 973 268<283.663 845.743>
DStem2: 776 440.5 608.5 336 0.520727 -0.853723<-174.752 274.855>
LayerCount: 2
Fore
SplineSet
359 139 m 0,0,1
 422.861111111 139 422.861111111 139 425 216 c 1,2,3
 425 277 425 277 360 283 c 1,4,-1
 303 283 l 1,5,-1
 303 278 l 2,6,7
 303 163.761904762 303 163.761904762 332.5 145.5 c 0,8,9
 343 139 343 139 359 139 c 0,0,1
673 935 m 1,10,11
 523 935 523 935 448.5 885 c 128,-1,12
 374 835 374 835 361 736 c 1,13,-1
 145 736 l 1,14,15
 145 912.926470588 145 912.926470588 284 1009 c 0,16,17
 421.446808511 1104 421.446808511 1104 678 1104 c 0,18,19
 973.172413793 1104 973.172413793 1104 1108 989 c 0,20,21
 1241 875.558823529 1241 875.558823529 1241 636 c 2,22,-1
 1241 373 l 2,23,24
 1241 83.2075471698 1241 83.2075471698 1084 21 c 0,25,26
 1031 0 1031 0 959 0 c 0,27,28
 815.625 0 815.625 0 725 145 c 0,29,30
 710 169 710 169 691 201 c 128,-1,31
 672 233 672 233 650.5 268.5 c 128,-1,32
 629 304 629 304 608.5 336 c 0,33,34
 561.615141956 409.186119874 561.615141956 409.186119874 540 429 c 1,35,36
 490 470 490 470 441 470 c 0,37,38
 352.285714286 470 352.285714286 470 318 390 c 1,39,40
 356 406 356 406 387 406 c 2,41,-1
 408 406 l 1,42,43
 483.488505747 397.83908046 483.488505747 397.83908046 532 343 c 0,44,45
 581 287.608695652 581 287.608695652 581 199.804347826 c 128,-1,46
 581 112 581 112 520 56 c 128,-1,47
 459 0 459 0 342.5 0 c 128,-1,48
 226 0 226 0 161 71.5 c 128,-1,49
 96 143 96 143 96 290 c 0,50,51
 96 439.559139785 96 439.559139785 194.5 537 c 0,52,53
 293.565217391 635 293.565217391 635 441 635 c 256,54,55
 583.162790698 635 583.162790698 635 682 550 c 0,56,57
 770.680688337 473.734608031 770.680688337 473.734608031 865 283 c 0,58,59
 902.5 208 902.5 208 921.25 208 c 128,-1,60
 940 208 940 208 950 213 c 128,-1,61
 960 218 960 218 965 234 c 0,62,63
 973 259.6 973 259.6 973 365 c 2,64,-1
 973 623 l 2,65,66
 973 801.181818182 973 801.181818182 916 862.5 c 0,67,68
 855.919072409 927.132513015 855.919072409 927.132513015 673 935 c 1,10,11
EndSplineSet
EndChar

StartChar: uni0EA7
Encoding: 3751 3751 228
Width: 1236
GlyphClass: 2
Flags: HW
HStem: 0 152<343.804 806.384> 417 137<280.818 383.737> 935 169<420.645 837.74>
VStem: 86 181<270.935 399.962> 120 217<738 854.605> 395 167<283.39 404.537> 923 268<268.645 849.258>
LayerCount: 2
Fore
SplineSet
341 187 m 1,0,1
 431 152 431 152 602.5 152 c 128,-1,2
 774 152 774 152 848.5 226.5 c 128,-1,3
 923 301 923 301 923 456 c 2,4,-1
 923 623 l 2,5,6
 923 799 923 799 870.5 861.5 c 0,7,8
 808.76 935 808.76 935 627 935 c 0,9,10
 419.459459459 935 419.459459459 935 364 827 c 0,11,12
 345 790 345 790 337 738 c 1,13,-1
 120 738 l 1,14,15
 120 911.178294574 120 911.178294574 251.5 1007 c 0,16,17
 384.617021277 1104 384.617021277 1104 632 1104 c 0,18,19
 926.385964912 1104 926.385964912 1104 1060 992 c 0,20,21
 1191 882.191176471 1191 882.191176471 1191 636 c 2,22,-1
 1191 450 l 2,23,24
 1191 233 1191 233 1048 116.5 c 128,-1,25
 905 0 905 0 632 0 c 0,26,27
 385.444444444 0 385.444444444 0 237 83.5 c 0,28,29
 86 168.4375 86 168.4375 86 311 c 0,30,31
 86 429 86 429 147 491.5 c 128,-1,32
 208 554 208 554 326 554 c 0,33,34
 427.865384615 554 427.865384615 554 494.5 499 c 0,35,36
 562 443.285714286 562 443.285714286 562 352 c 0,37,38
 562 280.733333333 562 280.733333333 513.5 229 c 0,39,40
 465.6875 178 465.6875 178 393 178 c 1,41,-1
 341 187 l 1,0,1
395 339 m 0,42,43
 395 417 395 417 331 417 c 1,44,45
 267 414.866666667 267 414.866666667 267 304 c 0,46,47
 267 277 267 277 271 270 c 1,48,-1
 299 270 l 2,49,50
 395 270 395 270 395 339 c 0,42,43
EndSplineSet
EndChar

StartChar: uni0EAA
Encoding: 3754 3754 229
Width: 1343
GlyphClass: 2
Flags: HW
HStem: 0 204<874.542 1005.5> 0 139<310.951 413.018> 283 123<328.587 420.48> 445 131<334.347 560.485> 601 172<400.958 953.75> 935 169<410.074 937.197>
VStem: 106 197<140.164 283> 425 166<151.19 275.823> 973 268<227.724 660> 1139 193<960.186 1172>
DStem2: 760.5 416 728 141 0.602658 -0.798<-191.774 271.624>
LayerCount: 2
Fore
SplineSet
663 601 m 0,0,1
 118 601 118 601 118 844 c 0,2,3
 118 1104 118 1104 663 1104 c 0,4,5
 1025 1104 1025 1104 1118 958 c 1,6,7
 1139 1028 1139 1028 1139 1093 c 2,8,-1
 1139 1172 l 1,9,-1
 1332 1172 l 1,10,-1
 1332 1101 l 2,11,12
 1332 892.2 1332 892.2 1234 804 c 1,13,14
 1241 789 1241 789 1241 741 c 2,15,-1
 1241 401 l 2,16,17
 1241 111.65 1241 111.65 1088 27.5 c 0,18,19
 1038 0 1038 0 978.5 0 c 128,-1,20
 919 0 919 0 877.5 13.5 c 128,-1,21
 836 27 836 27 799.5 58.5 c 0,22,23
 735.13740458 114.045801527 735.13740458 114.045801527 653 266 c 0,24,25
 596.458100559 371.284916201 596.458100559 371.284916201 561.229050279 400.642458101 c 0,26,27
 508 445 508 445 458 445 c 0,28,29
 360.75 445 360.75 445 327 391 c 1,30,31
 378 406 378 406 409 406 c 128,-1,32
 440 406 440 406 475 391 c 128,-1,33
 510 376 510 376 535.5 349.5 c 0,34,35
 591 291.823529412 591 291.823529412 591 206 c 0,36,37
 591 113.076923077 591 113.076923077 523.5 57 c 0,38,39
 454.888888889 1.7763568394e-14 454.888888889 1.7763568394e-14 341 0 c 0,40,41
 238.905405405 0 238.905405405 0 172.5 78 c 128,-1,42
 106 156.111111111 106 156.111111111 106 281 c 0,43,44
 106 416.595505618 106 416.595505618 202.5 499 c 0,45,46
 292.671052632 576 292.671052632 576 434 576 c 0,47,48
 575.028169014 576 575.028169014 576 669 506.5 c 0,49,50
 751.966405658 445.139429149 751.966405658 445.139429149 851 285 c 0,51,52
 899.9375 204 899.9375 204 931 204 c 0,53,54
 973 204 973 204 973 296 c 2,55,-1
 973 660 l 1,56,57
 961.744408946 626.233226837 961.744408946 626.233226837 768 606.5 c 0,58,59
 714 601 714 601 663 601 c 0,0,1
359 139 m 0,60,61
 422.888888889 139 422.888888889 139 425 215 c 1,62,63
 422 281 422 281 339 283 c 1,64,-1
 303 283 l 1,65,-1
 303 276 l 2,66,67
 303 162.428571429 303 162.428571429 333.5 145 c 0,68,69
 344 139 344 139 359 139 c 0,60,61
663 935 m 0,70,71
 386 935 386 935 386 844 c 0,72,73
 386 804.03030303 386 804.03030303 448 789 c 0,74,75
 514 773 514 773 615.5 773 c 128,-1,76
 717 773 717 773 761.5 775 c 128,-1,77
 806 777 806 777 845 783 c 0,78,79
 921.555555556 794.777777778 921.555555556 794.777777778 988 828 c 1,80,81
 985 876 985 876 905.5 905.5 c 128,-1,82
 826 935 826 935 663 935 c 0,70,71
EndSplineSet
EndChar

StartChar: uni0EAB
Encoding: 3755 3755 230
Width: 1854
GlyphClass: 2
Flags: HW
HStem: 0 167<483.614 819.434> 698 145<774.37 889> 698 123<188.083 222> 935 169<1236.67 1484.16> 965 139<186.684 305.42 782.396 878.35>
VStem: 15 167<827.963 962.524> 170 252<225.542 517.125> 605 167<845.441 963.661> 889 268<238.198 711 843.295 883.334> 1521 268<0 895.086>
DStem2: 182 402 432 402 0.264675 0.964338<-1.1167 318.549 434.495 517.863>
LayerCount: 2
Fore
SplineSet
267 709 m 1,0,-1
 207 698 l 1,1,2
 123.867924528 698 123.867924528 698 69.5 754.5 c 128,-1,3
 15 811.137254902 15 811.137254902 15 901 c 0,4,5
 15 1104 15 1104 285 1104 c 0,6,7
 400.814814815 1104 400.814814815 1104 476 1046 c 128,-1,8
 551 988.142857143 551 988.142857143 551 901 c 0,9,10
 551 847 551 847 527 775 c 1,11,-1
 432 402 l 2,12,13
 422 365 422 365 422 334 c 0,14,15
 422 256 422 256 482.5 211.5 c 128,-1,16
 543 167 543 167 629.5 167 c 128,-1,17
 716 167 716 167 761.5 181.5 c 128,-1,18
 807 196 807 196 835 226 c 0,19,20
 889 283.857142857 889 283.857142857 889 414 c 2,21,-1
 889 711 l 1,22,23
 859 698 859 698 812 698 c 0,24,25
 715 698 715 698 660 750.5 c 128,-1,26
 605 803 605 803 605 900 c 128,-1,27
 605 997 605 997 668 1050.5 c 128,-1,28
 731 1104 731 1104 860 1104 c 0,29,30
 1036 1104 1036 1104 1116 988 c 1,31,32
 1289.07936508 1104 1289.07936508 1104 1391 1104 c 0,33,34
 1789 1104 1789 1104 1789 662 c 2,35,-1
 1789 0 l 1,36,-1
 1521 0 l 1,37,-1
 1521 658 l 2,38,39
 1521 828.972222222 1521 828.972222222 1496.5 870.486111111 c 128,-1,40
 1472 912 1472 912 1440 923.5 c 128,-1,41
 1408 935 1408 935 1348.22972973 935 c 128,-1,42
 1288.45945946 935 1288.45945946 935 1157 859 c 1,43,-1
 1157 418 l 2,44,45
 1157 0 1157 0 626 0 c 0,46,47
 441.405063291 0 441.405063291 0 314 82.5 c 0,48,49
 182.778701299 167.471168831 182.778701299 167.471168831 171 299 c 0,50,51
 171 304 171 304 170 305 c 1,52,-1
 170 320 l 2,53,54
 170 358 170 358 182 402 c 2,55,-1
 267 709 l 1,0,-1
246 965 m 0,56,57
 184 964 184 964 182 892 c 1,58,59
 187 821 187 821 270 821 c 2,60,-1
 297 821 l 1,61,62
 315 902 315 902 317 902 c 1,63,64
 317 927 317 927 298 946 c 128,-1,65
 279 965 279 965 246 965 c 0,56,57
833 974 m 256,66,67
 774.206896552 974 774.206896552 974 773.603448276 908.5 c 128,-1,68
 773 843 773 843 832 843 c 0,69,70
 870 843 870 843 889 853 c 1,71,-1
 889 884 l 2,72,73
 889 974 889 974 833 974 c 256,66,67
EndSplineSet
EndChar

StartChar: uni0EAD
Encoding: 3757 3757 231
Width: 1239
GlyphClass: 2
Flags: HW
HStem: 0 152<372.562 827.911> 178 93<370.04 401.868> 417 137<295.048 402.96> 576 187<366.926 916.758> 935 169<378.664 903.824>
VStem: 86 267<796.542 905.322> 99 182<271.027 399.796> 407 167<280.972 415.422> 945 269<273.375 626 797.884 889.589>
LayerCount: 2
Fore
SplineSet
614 935 m 0,0,1
 353 935 353 935 353 844 c 0,2,3
 353 795.967213115 353 795.967213115 410.5 779 c 0,4,5
 464.722222222 763 464.722222222 763 614 763 c 0,6,7
 938 763 938 763 941 844 c 1,8,9
 941 883 941 883 860.5 909 c 128,-1,10
 780 935 780 935 614 935 c 0,0,1
574 360.5 m 0,11,12
 574 320 574 320 562 288 c 128,-1,13
 550 256 550 256 528.5 232 c 0,14,15
 481.863501484 179.940652819 481.863501484 179.940652819 412 178 c 1,16,-1
 407 178 l 2,17,18
 371 178 371 178 370 179 c 1,19,20
 442 152 442 152 580.5 152 c 128,-1,21
 719 152 719 152 785.5 174 c 128,-1,22
 852 196 852 196 887.5 250 c 128,-1,23
 923 304 923 304 934 393.5 c 128,-1,24
 945 483 945 483 945 618 c 2,25,-1
 945 626 l 1,26,27
 935.273159145 600.06175772 935.273159145 600.06175772 727.5 581 c 0,28,29
 673 576 673 576 627 576 c 0,30,31
 86 576 86 576 86 844 c 0,32,33
 86 1104 86 1104 614 1104 c 0,34,35
 1077.30188679 1104 1077.30188679 1104 1179.5 868.5 c 0,36,37
 1214 789 1214 789 1214 682 c 2,38,-1
 1214 486 l 2,39,40
 1214 0 1214 0 644 0 c 0,41,42
 399.6 0 399.6 0 252 82 c 0,43,44
 99 167 99 167 99 311 c 0,45,46
 99 426 99 426 159.5 490 c 128,-1,47
 220 554 220 554 335 554 c 0,48,49
 439.538461538 554 439.538461538 554 506 500 c 0,50,51
 574 444.75 574 444.75 574 360.5 c 0,11,12
350 417 m 0,52,53
 281 417 281 417 281 315 c 0,54,55
 281 301 281 301 286 271 c 1,56,-1
 314 270 l 1,57,58
 403 278 403 278 407 338 c 1,59,60
 407 417 407 417 350 417 c 0,52,53
EndSplineSet
EndChar

StartChar: uni0EAE
Encoding: 3758 3758 232
Width: 1212
GlyphClass: 2
Flags: HW
HStem: 0 152<338.934 812.047> 416 138<278.107 384.763> 809 181<697.966 954.116> 926 178<328.673 578.297>
VStem: 86 182<272.949 410.843> 395 167<283.162 403.837> 884 268<218.403 426.838> 960 192<1003.41 1104>
DStem2: 598 755 506 576 0.951758 -0.306851<-270.036 338.329> 586 1063.5 593 877 0.972473 -0.233016<-151.843 323.086>
LayerCount: 2
Fore
SplineSet
395 338 m 0,0,1
 395 416 395 416 334 416 c 1,2,3
 268 414 268 414 268 304 c 0,4,5
 268 287 268 287 271 272 c 1,6,-1
 312 272 l 2,7,8
 395 272 395 272 395 338 c 0,0,1
613 152 m 0,9,10
 875.654320988 152 875.654320988 152 884 321 c 1,11,12
 882.020400859 398.2043665 882.020400859 398.2043665 815.5 446.5 c 0,13,14
 752.735449735 492.068783069 752.735449735 492.068783069 562 557 c 2,15,-1
 506 576 l 2,16,17
 276.689655172 654.448275862 276.689655172 654.448275862 196 719 c 0,18,19
 114 784.6 114 784.6 114 896 c 0,20,21
 114 980.360655738 114 980.360655738 180.5 1042.5 c 0,22,23
 246.315789474 1104 246.315789474 1104 342 1104 c 0,24,25
 448.625 1104 448.625 1104 735 1025 c 0,26,27
 764 1017 764 1017 797 1010 c 128,-1,28
 830 1003 830 1003 859.5 996.5 c 128,-1,29
 889 990 889 990 906.5 990 c 128,-1,30
 924 990 924 990 942 1003 c 128,-1,31
 960 1016 960 1016 960 1042 c 2,32,-1
 960 1104 l 1,33,-1
 1152 1104 l 1,34,-1
 1152 1042 l 2,35,36
 1152 809 1152 809 951 809 c 0,37,38
 833.914285714 809 833.914285714 809 628.957142857 867.5 c 128,-1,39
 424 926 424 926 388 926 c 128,-1,40
 352 926 352 926 352 894 c 0,41,42
 352 833.796875 352 833.796875 598 755 c 2,43,-1
 781 696 l 2,44,45
 1072.62242211 602.567573497 1072.62242211 602.567573497 1132.5 447.5 c 0,46,47
 1152 397 1152 397 1152 339 c 0,48,49
 1152 0 1152 0 606 0 c 0,50,51
 228.717948718 0 228.717948718 0 120.5 183.5 c 0,52,53
 86 242 86 242 86 335 c 128,-1,54
 86 428 86 428 147 491 c 128,-1,55
 208 554 208 554 329 554 c 0,56,57
 427.339622642 554 427.339622642 554 494.5 497.5 c 0,58,59
 562 440.714285714 562 440.714285714 562 353 c 0,60,61
 562 280 562 280 512 230 c 0,62,63
 461 179 461 179 381 179 c 1,64,-1
 337 187 l 1,65,66
 424 152 424 152 613 152 c 0,9,10
EndSplineSet
EndChar

StartChar: uni0EAF
Encoding: 3759 3759 233
Width: 1347
GlyphClass: 2
Flags: HW
HStem: 378 184<363.23 669.587> 670 140<478.594 576.823>
VStem: 45 249<630.156 921.588> 580 156<811.655 944.316>
DStem2: 558 -315 778 -408 0.391894 0.920011<0.655617 1104.16>
LayerCount: 2
Fore
SplineSet
294 766 m 0,0,1
 294 673 294 673 350 617.5 c 128,-1,2
 406 562 406 562 499.5 562 c 128,-1,3
 593 562 593 562 675.5 610 c 128,-1,4
 758 658 758 658 827.5 735.5 c 0,5,6
 971.251192369 895.79809221 971.251192369 895.79809221 1031 998 c 2,7,-1
 1078 1079 l 1,8,-1
 1362 963 l 1,9,-1
 778 -408 l 1,10,-1
 558 -315 l 1,11,-1
 988 702 l 1,12,-1
 956 652 l 2,13,14
 781.275362319 378 781.275362319 378 501 378 c 0,15,16
 300.113402062 378 300.113402062 378 173.5 479.5 c 0,17,18
 45 582.512396694 45 582.512396694 45 751 c 0,19,20
 45 920.435185185 45 920.435185185 160 1036.5 c 0,21,22
 275.431192661 1153 275.431192661 1153 444 1153 c 0,23,24
 567.55 1153 567.55 1153 650.5 1090 c 0,25,26
 736 1025.06329114 736 1025.06329114 736 922 c 0,27,28
 736 822.526315789 736 822.526315789 674.5 747 c 0,29,30
 611.8 670 611.8 670 528.4 670 c 128,-1,31
 445 670 445 670 398 712 c 128,-1,32
 351 754 351 754 351 830 c 1,33,-1
 356 858 l 2,34,35
 361 887 361 887 371 947 c 1,36,37
 294 908 294 908 294 766 c 0,0,1
471 864 m 2,38,39
 471 810 471 810 528 810 c 1,40,41
 579 815 579 815 580 879 c 1,42,43
 577 950 577 950 473 961 c 1,44,45
 471 889 471 889 471 878 c 2,46,-1
 471 864 l 2,38,39
EndSplineSet
EndChar

StartChar: uni0EB1
Encoding: 3761 3761 235
Width: 0
GlyphClass: 2
Flags: HW
HStem: 1176 179<-944.339 -821 -748 -334.924> 1478 148<-955.247 -832.214>
VStem: -1119 152<1366.64 1465.78> -821 110<1355.84 1460.47> -295 201<1395.16 1556>
LayerCount: 2
Fore
SplineSet
-897 1478 m 0,0,1
 -967 1478 -967 1478 -967 1418 c 1,2,3
 -964.9 1355 -964.9 1355 -882 1355 c 2,4,-1
 -821 1355 l 1,5,-1
 -821 1417 l 2,6,7
 -821 1444 -821 1444 -840 1461 c 128,-1,8
 -859 1478 -859 1478 -897 1478 c 0,0,1
-94 1556 m 1,9,10
 -94 1176 -94 1176 -563 1176 c 2,11,-1
 -726 1176 l 2,12,13
 -1028.7037037 1176 -1028.7037037 1176 -1096 1294.5 c 0,14,15
 -1119 1335 -1119 1335 -1119 1389 c 0,16,17
 -1119 1626 -1119 1626 -900 1626 c 0,18,19
 -822.333333333 1626 -822.333333333 1626 -767 1584.5 c 0,20,21
 -711 1542.5 -711 1542.5 -711 1474 c 0,22,23
 -711 1439 -711 1439 -724 1409 c 2,24,-1
 -748 1355 l 1,25,-1
 -541 1355 l 2,26,27
 -477 1355 -477 1355 -431.5 1358.5 c 128,-1,28
 -386 1362 -386 1362 -356.5 1380.5 c 0,29,30
 -298.713629051 1416.7389106 -298.713629051 1416.7389106 -295 1556 c 1,31,-1
 -94 1556 l 1,9,10
EndSplineSet
EndChar

StartChar: uni0EB2
Encoding: 3762 3762 236
Width: 902
GlyphClass: 2
Flags: HW
HStem: 0 21G<555 822> 668 141<232.149 348.919> 963 143<227.955 364>
VStem: 53 166<822.14 951.945> 364 106<837.365 944.768> 364 90<859.232 956> 555 267<0 928.242>
LayerCount: 2
Fore
SplineSet
53 866 m 0,0,1
 53 978 53 978 134 1042 c 128,-1,2
 215 1106 215 1106 378 1106 c 0,3,4
 602 1106 602 1106 712 1012.5 c 128,-1,5
 822 919 822 919 822 725 c 2,6,-1
 822 0 l 1,7,-1
 555 0 l 1,8,-1
 555 772 l 2,9,10
 555 863.75 555 863.75 537.5 894.375 c 128,-1,11
 520 925 520 925 500.5 937 c 128,-1,12
 481 949 481 949 454 956 c 1,13,-1
 470 848 l 1,14,15
 470 668 470 668 284 668 c 0,16,17
 121.260273973 668 121.260273973 668 69.5 782.5 c 0,18,19
 53 819 53 819 53 866 c 0,0,1
298 809 m 0,20,21
 364 809 364 809 364 916 c 2,22,-1
 364 963 l 1,23,24
 277.4 963 277.4 963 254.2 948.5 c 0,25,26
 219 926.5 219 926.5 219 884 c 0,27,28
 219 809 219 809 298 809 c 0,20,21
EndSplineSet
EndChar

StartChar: uni0EB3
Encoding: 3763 3763 237
Width: 961
GlyphClass: 2
Flags: HW
HStem: 0 21G<603 870> 687 143<280.186 397.192> 983 142<272.392 411> 1216 131<-442.061 -300.384> 1522 127<-448.768 -300.464>
VStem: -595 135<1365.9 1510.76> -282 133<1364.03 1503.24> 102 165<842.769 971.529> 412 107<858.365 958.389> 412 90<885.611 975> 603 267<0 948.188>
LayerCount: 2
Fore
SplineSet
102 885 m 0,0,1
 102 997 102 997 182.5 1061 c 128,-1,2
 263 1125 263 1125 426 1125 c 0,3,4
 650 1125 650 1125 760 1032 c 128,-1,5
 870 939 870 939 870 746 c 2,6,-1
 870 0 l 1,7,-1
 603 0 l 1,8,-1
 603 791 l 2,9,10
 603 882.75 603 882.75 585.5 913.375 c 128,-1,11
 568 944 568 944 548.5 956 c 128,-1,12
 529 968 529 968 502 975 c 1,13,-1
 519 869 l 1,14,15
 519 687 519 687 333 687 c 0,16,17
 169.808219178 687 169.808219178 687 118.5 800.5 c 0,18,19
 102 837 102 837 102 885 c 0,0,1
347 830 m 0,20,21
 407.843137255 830 407.843137255 830 412 936 c 1,22,-1
 411 983 l 1,23,24
 324.315789474 983 324.315789474 983 300.657894737 968.5 c 128,-1,25
 277 954 277 954 272 939 c 128,-1,26
 267 924 267 924 267 904 c 0,27,28
 267 830 267 830 347 830 c 0,20,21
-371 1216 m 0,29,30
 -416 1216 -416 1216 -456.5 1233 c 128,-1,31
 -497 1250 -497 1250 -528 1279 c 0,32,33
 -595 1341.67741935 -595 1341.67741935 -595 1432 c 0,34,35
 -595 1521.14754098 -595 1521.14754098 -529.5 1584.5 c 0,36,37
 -462.813559322 1649 -462.813559322 1649 -372 1649 c 256,38,39
 -279.118644068 1649 -279.118644068 1649 -214.5 1586.5 c 0,40,41
 -149 1523.14754098 -149 1523.14754098 -149 1432 c 0,42,43
 -149 1343.41666667 -149 1343.41666667 -214 1279.5 c 0,44,45
 -278.576271186 1216 -278.576271186 1216 -371 1216 c 0,29,30
-308.5 1369.5 m 128,-1,47
 -282 1392 -282 1392 -282 1431 c 128,-1,48
 -282 1470 -282 1470 -307 1496 c 128,-1,49
 -332 1522 -332 1522 -360.5 1522 c 128,-1,50
 -389 1522 -389 1522 -404.5 1516 c 128,-1,51
 -420 1510 -420 1510 -432.5 1498.5 c 0,52,53
 -460 1473.2 -460 1473.2 -460 1436.6 c 128,-1,54
 -460 1400 -460 1400 -436 1373.5 c 128,-1,55
 -412 1347 -412 1347 -373.5 1347 c 128,-1,46
 -335 1347 -335 1347 -308.5 1369.5 c 128,-1,47
EndSplineSet
Substitution2: "'liga' Standard Ligatures lookup 0 subtable" uni0ECD_uni0EB2
EndChar

StartChar: uni0EB4
Encoding: 3764 3764 238
Width: 0
GlyphClass: 2
Flags: HW
HStem: 1176 149<-831.392 -668 -501 -347.242> 1527 154<-793.43 -378.821>
VStem: -1043 201<1339.98 1488.51> -331 202<1344.99 1491.53>
LayerCount: 2
Fore
SplineSet
-211.5 1238 m 128,-1,1
 -294 1176 -294 1176 -460 1176 c 2,2,-1
 -501 1176 l 1,3,-1
 -501 1325 l 1,4,-1
 -458 1325 l 1,5,6
 -337 1332 -337 1332 -331 1409 c 1,7,8
 -331 1475 -331 1475 -392.5 1501 c 128,-1,9
 -454 1527 -454 1527 -588.5 1527 c 128,-1,10
 -723 1527 -723 1527 -781.5 1498.5 c 128,-1,11
 -840 1470 -840 1470 -842 1409 c 1,12,13
 -841 1325 -841 1325 -713 1325 c 2,14,-1
 -668 1325 l 1,15,-1
 -668 1176 l 1,16,-1
 -711 1176 l 2,17,18
 -949.942528736 1176 -949.942528736 1176 -1020 1308.5 c 0,19,20
 -1043 1352 -1043 1352 -1043 1415 c 128,-1,21
 -1043 1478 -1043 1478 -1005 1529 c 128,-1,22
 -967 1580 -967 1580 -903.5 1613.5 c 0,23,24
 -775.552238806 1681 -775.552238806 1681 -586 1681 c 0,25,26
 -375.690140845 1681 -375.690140845 1681 -252.5 1607.5 c 0,27,28
 -129 1533.81512605 -129 1533.81512605 -129 1416.90756303 c 128,-1,0
 -129 1300 -129 1300 -211.5 1238 c 128,-1,1
EndSplineSet
EndChar

